SplineFontDB: 3.2
FontName: RisingSun-BlackItalic
FullName: Rising Sun Black Italic
FamilyName: Rising Sun Black
Weight: Black
Copyright: Copyright (c) 2012, The Raleway Project Authors (matt@pixelspread.com)
Version: 4.322
ItalicAngle: -12
UnderlinePosition: -125
UnderlineWidth: 50
Ascent: 800
Descent: 200
InvalidEm: 0
sfntRevision: 0x0004526e
LayerCount: 2
Layer: 0 1 "Back" 1
Layer: 1 1 "Fore" 0
XUID: [1021 158 994486733 3916403]
StyleMap: 0x0001
FSType: 0
OS2Version: 4
OS2_WeightWidthSlopeOnly: 0
OS2_UseTypoMetrics: 1
CreationTime: 1683073834
ModificationTime: 1710186542
PfmFamily: 81
TTFWeight: 900
TTFWidth: 5
LineGap: 21
VLineGap: 0
Panose: 0 0 0 0 0 0 0 0 0 0
OS2TypoAscent: 923
OS2TypoAOffset: 0
OS2TypoDescent: -213
OS2TypoDOffset: 0
OS2TypoLinegap: 21
OS2WinAscent: 944
OS2WinAOffset: 0
OS2WinDescent: 234
OS2WinDOffset: 0
HheadAscent: 923
HheadAOffset: 0
HheadDescent: -213
HheadDOffset: 0
OS2SubXSize: 650
OS2SubYSize: 600
OS2SubXOff: 0
OS2SubYOff: 75
OS2SupXSize: 650
OS2SupYSize: 600
OS2SupXOff: 0
OS2SupYOff: 350
OS2StrikeYSize: 50
OS2StrikeYPos: 300
OS2CapHeight: 710
OS2XHeight: 526
OS2Vendor: '    '
OS2CodePages: 2000019f.00000000
OS2UnicodeRanges: a00002ff.4000205b.00000000.00000000
Lookup: 1 0 0 "'aalt' Access All Alternates lookup 0" { "'aalt' Access All Alternates lookup 0 subtable"  } ['aalt' ('DFLT' <'dflt' > 'cyrl' <'BGR ' 'MKD ' 'SRB ' 'dflt' > 'latn' <'AZE ' 'CAT ' 'CRT ' 'KAZ ' 'MOL ' 'ROM ' 'TAT ' 'TRK ' 'dflt' > ) ]
Lookup: 3 0 0 "'aalt' Access All Alternates lookup 1" { "'aalt' Access All Alternates lookup 1 subtable"  } ['aalt' ('DFLT' <'dflt' > 'cyrl' <'BGR ' 'MKD ' 'SRB ' 'dflt' > 'latn' <'AZE ' 'CAT ' 'CRT ' 'KAZ ' 'MOL ' 'ROM ' 'TAT ' 'TRK ' 'dflt' > ) ]

StartChar: .notdef
Encoding: 65536 -1 0
Width: 608
GlyphClass: 1
Flags: W
LayerCount: 2
Fore
SplineSet
558 689 m 2,0,1
 558 699 558 699 553 704.5 c 128,-1,2
 548 710 548 710 540 710 c 2,3,-1
 69 710 l 2,4,5
 61 710 61 710 55.5 704 c 128,-1,6
 50 698 50 698 50 687 c 2,7,-1
 50 25 l 2,8,9
 50 12 50 12 55.5 6 c 128,-1,10
 61 0 61 0 77 0 c 2,11,-1
 525 0 l 2,12,13
 542 0 542 0 550 6.5 c 128,-1,14
 558 13 558 13 558 29 c 2,15,-1
 558 689 l 2,0,1
506 74 m 2,16,17
 506 61 506 61 499 55.5 c 128,-1,18
 492 50 492 50 478 50 c 2,19,-1
 125 50 l 2,20,21
 111 50 111 50 106.5 55 c 128,-1,22
 102 60 102 60 102 71 c 2,23,-1
 102 641 l 2,24,25
 102 650 102 650 106.5 655 c 128,-1,26
 111 660 111 660 118 660 c 2,27,-1
 491 660 l 2,28,29
 498 660 498 660 502 655 c 128,-1,30
 506 650 506 650 506 642 c 2,31,-1
 506 74 l 2,16,17
538 33 m 1,32,-1
 123 696 l 1,33,-1
 71 669 l 1,34,-1
 478 28 l 1,35,-1
 538 33 l 1,32,-1
EndSplineSet
EndChar

StartChar: exclam
Encoding: 33 33 4
Width: 330
GlyphClass: 1
Flags: W
LayerCount: 2
Fore
SplineSet
15 103 m 256,0,1
 10 80 10 80 14.5 59.5 c 128,-1,2
 19 39 19 39 31 23.5 c 128,-1,3
 43 8 43 8 62 -1 c 128,-1,4
 81 -10 81 -10 104 -10 c 256,5,6
 127 -10 127 -10 149.5 -1 c 128,-1,7
 172 8 172 8 191 23.5 c 128,-1,8
 210 39 210 39 223 59.5 c 128,-1,9
 236 80 236 80 241 103 c 256,10,11
 246 126 246 126 241.5 146.5 c 128,-1,12
 237 167 237 167 225 182.5 c 128,-1,13
 213 198 213 198 194 207 c 128,-1,14
 175 216 175 216 152 216 c 256,15,16
 129 216 129 216 106.5 207 c 128,-1,17
 84 198 84 198 65 182.5 c 128,-1,18
 46 167 46 167 33 146.5 c 128,-1,19
 20 126 20 126 15 103 c 256,0,1
236 300 m 1,20,-1
 319 550 l 1,21,-1
 354 717 l 1,22,-1
 164 717 l 1,23,-1
 129 550 l 1,24,-1
 106 300 l 1,25,-1
 236 300 l 1,20,-1
EndSplineSet
EndChar

StartChar: quotedbl
Encoding: 34 34 5
Width: 532
GlyphClass: 1
Flags: W
LayerCount: 2
Fore
SplineSet
124 495 m 1,0,-1
 206 495 l 1,1,-1
 385 730 l 1,2,-1
 228 730 l 1,3,-1
 124 495 l 1,0,-1
310 495 m 1,4,-1
 392 495 l 1,5,-1
 571 730 l 1,6,-1
 414 730 l 1,7,-1
 310 495 l 1,4,-1
EndSplineSet
EndChar

StartChar: numbersign
Encoding: 35 35 6
Width: 727
GlyphClass: 1
Flags: W
LayerCount: 2
Fore
SplineSet
740 527 m 1,0,-1
 618 527 l 1,1,-1
 701 710 l 1,2,-1
 550 710 l 1,3,-1
 469 527 l 1,4,-1
 422 527 l 1,5,-1
 504 710 l 1,6,-1
 353 710 l 1,7,-1
 272 527 l 1,8,-1
 132 527 l 1,9,-1
 104 397 l 1,10,-1
 212 397 l 1,11,-1
 177 310 l 1,12,-1
 37 310 l 1,13,-1
 7 170 l 1,14,-1
 113 170 l 1,15,-1
 38 0 l 1,16,-1
 189 0 l 1,17,-1
 263 170 l 1,18,-1
 310 170 l 1,19,-1
 235 0 l 1,20,-1
 385 0 l 1,21,-1
 460 170 l 1,22,-1
 615 170 l 1,23,-1
 645 310 l 1,24,-1
 524 310 l 1,25,-1
 559 397 l 1,26,-1
 712 397 l 1,27,-1
 740 527 l 1,0,-1
327 310 m 1,28,-1
 362 397 l 1,29,-1
 409 397 l 1,30,-1
 374 310 l 1,31,-1
 327 310 l 1,28,-1
EndSplineSet
EndChar

StartChar: dollar
Encoding: 36 36 7
Width: 630
GlyphClass: 1
Flags: W
LayerCount: 2
Fore
SplineSet
187 -129 m 1,0,-1
 267 -129 l 1,1,-1
 314 95 l 1,2,-1
 235 95 l 1,3,-1
 187 -129 l 1,0,-1
304 115 m 1,4,-1
 408 603 l 1,5,-1
 354 589 l 1,6,-1
 254 117 l 1,7,-1
 304 115 l 1,4,-1
344 609 m 1,8,-1
 426 623 l 1,9,-1
 467 815 l 1,10,-1
 388 815 l 1,11,-1
 344 609 l 1,8,-1
642 639 m 1,12,13
 622 651 622 651 596 664.5 c 128,-1,14
 570 678 570 678 539.5 689.5 c 128,-1,15
 509 701 509 701 474.5 708.5 c 128,-1,16
 440 716 440 716 403 716 c 0,17,18
 346 716 346 716 290.5 697 c 128,-1,19
 235 678 235 678 191 642 c 128,-1,20
 147 606 147 606 120 553.5 c 128,-1,21
 93 501 93 501 93 434 c 0,22,23
 93 406 93 406 101 382.5 c 128,-1,24
 109 359 109 359 125.5 340 c 128,-1,25
 142 321 142 321 166.5 305.5 c 128,-1,26
 191 290 191 290 224 277 c 0,27,28
 249 267 249 267 272.5 259.5 c 128,-1,29
 296 252 296 252 314 244 c 128,-1,30
 332 236 332 236 343 227 c 128,-1,31
 354 218 354 218 354 204 c 0,32,33
 354 197 354 197 352 190.5 c 128,-1,34
 350 184 350 184 344.5 178.5 c 128,-1,35
 339 173 339 173 329 170 c 128,-1,36
 319 167 319 167 302 167 c 0,37,38
 263 167 263 167 226.5 179 c 128,-1,39
 190 191 190 191 162.5 206 c 128,-1,40
 135 221 135 221 119 233 c 128,-1,41
 103 245 103 245 104 245 c 1,42,-1
 -16 74 l 1,43,44
 11 55 11 55 44 40 c 128,-1,45
 77 25 77 25 113 14 c 128,-1,46
 149 3 149 3 187 -3 c 128,-1,47
 225 -9 225 -9 262 -9 c 0,48,49
 316 -9 316 -9 371.5 5 c 128,-1,50
 427 19 427 19 472 51 c 128,-1,51
 517 83 517 83 545.5 134.5 c 128,-1,52
 574 186 574 186 574 262 c 0,53,54
 574 299 574 299 562.5 326 c 128,-1,55
 551 353 551 353 529.5 373 c 128,-1,56
 508 393 508 393 478.5 408.5 c 128,-1,57
 449 424 449 424 413 437 c 0,58,59
 389 446 389 446 369.5 452.5 c 128,-1,60
 350 459 350 459 336 466 c 128,-1,61
 322 473 322 473 314.5 481 c 128,-1,62
 307 489 307 489 307 501 c 0,63,64
 307 512 307 512 311 520 c 128,-1,65
 315 528 315 528 322.5 533 c 128,-1,66
 330 538 330 538 339.5 540.5 c 128,-1,67
 349 543 349 543 360 543 c 0,68,69
 390 543 390 543 420 533 c 128,-1,70
 450 523 450 523 473.5 510.5 c 128,-1,71
 497 498 497 498 511.5 488 c 128,-1,72
 526 478 526 478 524 478 c 1,73,-1
 642 639 l 1,12,13
EndSplineSet
EndChar

StartChar: percent
Encoding: 37 37 8
Width: 825
GlyphClass: 1
Flags: W
LayerCount: 2
Fore
SplineSet
227 404 m 0,0,1
 268 404 268 404 305.5 418.5 c 128,-1,2
 343 433 343 433 371.5 458.5 c 128,-1,3
 400 484 400 484 417.5 517.5 c 128,-1,4
 435 551 435 551 435 588 c 0,5,6
 435 616 435 616 425 640 c 128,-1,7
 415 664 415 664 396 682 c 128,-1,8
 377 700 377 700 351.5 710 c 128,-1,9
 326 720 326 720 294 720 c 0,10,11
 254 720 254 720 216 705.5 c 128,-1,12
 178 691 178 691 149.5 665.5 c 128,-1,13
 121 640 121 640 103.5 607 c 128,-1,14
 86 574 86 574 86 536 c 0,15,16
 86 508 86 508 96 484 c 128,-1,17
 106 460 106 460 124.5 442 c 128,-1,18
 143 424 143 424 169 414 c 128,-1,19
 195 404 195 404 227 404 c 0,0,1
246 494 m 0,20,21
 232 494 232 494 224 508.5 c 128,-1,22
 216 523 216 523 216 544 c 0,23,24
 216 561 216 561 221.5 576.5 c 128,-1,25
 227 592 227 592 235.5 604 c 128,-1,26
 244 616 244 616 254.5 623 c 128,-1,27
 265 630 265 630 275 630 c 0,28,29
 289 630 289 630 297 615.5 c 128,-1,30
 305 601 305 601 305 580 c 0,31,32
 305 563 305 563 299.5 547.5 c 128,-1,33
 294 532 294 532 285.5 520 c 128,-1,34
 277 508 277 508 266.5 501 c 128,-1,35
 256 494 256 494 246 494 c 0,20,21
554 -10 m 0,36,37
 595 -10 595 -10 632.5 4.5 c 128,-1,38
 670 19 670 19 698.5 44.5 c 128,-1,39
 727 70 727 70 744.5 103.5 c 128,-1,40
 762 137 762 137 762 174 c 0,41,42
 762 202 762 202 752 226 c 128,-1,43
 742 250 742 250 723 268 c 128,-1,44
 704 286 704 286 678.5 296 c 128,-1,45
 653 306 653 306 621 306 c 0,46,47
 581 306 581 306 543 291.5 c 128,-1,48
 505 277 505 277 476.5 251.5 c 128,-1,49
 448 226 448 226 430.5 193 c 128,-1,50
 413 160 413 160 413 122 c 0,51,52
 413 94 413 94 423 70 c 128,-1,53
 433 46 433 46 451.5 28 c 128,-1,54
 470 10 470 10 496 0 c 128,-1,55
 522 -10 522 -10 554 -10 c 0,36,37
573 80 m 0,56,57
 559 80 559 80 551 94.5 c 128,-1,58
 543 109 543 109 543 130 c 0,59,60
 543 147 543 147 548.5 162.5 c 128,-1,61
 554 178 554 178 562.5 190 c 128,-1,62
 571 202 571 202 581.5 209 c 128,-1,63
 592 216 592 216 602 216 c 0,64,65
 616 216 616 216 623.5 201.5 c 128,-1,66
 631 187 631 187 631 166 c 0,67,68
 631 149 631 149 625.5 133.5 c 128,-1,69
 620 118 620 118 612 106 c 128,-1,70
 604 94 604 94 593.5 87 c 128,-1,71
 583 80 583 80 573 80 c 0,56,57
135 -10 m 1,72,-1
 457 337 l 1,73,-1
 780 646 l 1,74,-1
 713 721 l 1,75,-1
 405 384 l 1,76,-1
 68 65 l 1,77,-1
 135 -10 l 1,72,-1
EndSplineSet
EndChar

StartChar: ampersand
Encoding: 38 38 9
Width: 728
GlyphClass: 1
Flags: W
LayerCount: 2
Fore
SplineSet
210 -10 m 0,0,1
 272 -10 272 -10 341 15.5 c 128,-1,2
 410 41 410 41 473 93.5 c 128,-1,3
 536 146 536 146 586 226 c 128,-1,4
 636 306 636 306 660 416 c 1,5,-1
 507 416 l 1,6,7
 498 347 498 347 472 294.5 c 128,-1,8
 446 242 446 242 411.5 206 c 128,-1,9
 377 170 377 170 338 152 c 128,-1,10
 299 134 299 134 264 134 c 0,11,12
 235 134 235 134 216 148.5 c 128,-1,13
 197 163 197 163 197 195 c 0,14,15
 197 213 197 213 204.5 227 c 128,-1,16
 212 241 212 241 230 254.5 c 128,-1,17
 248 268 248 268 278.5 283.5 c 128,-1,18
 309 299 309 299 355 318 c 1,19,-1
 273 444 l 1,20,21
 225 417 225 417 178.5 391.5 c 128,-1,22
 132 366 132 366 95 335.5 c 128,-1,23
 58 305 58 305 35 267 c 128,-1,24
 12 229 12 229 12 176 c 0,25,26
 12 141 12 141 23.5 107.5 c 128,-1,27
 35 74 35 74 59 48 c 128,-1,28
 83 22 83 22 120.5 6 c 128,-1,29
 158 -10 158 -10 210 -10 c 0,0,1
415 0 m 1,30,-1
 663 0 l 1,31,-1
 361 438 l 2,32,33
 345 461 345 461 333 476 c 128,-1,34
 321 491 321 491 313 501.5 c 128,-1,35
 305 512 305 512 301 520.5 c 128,-1,36
 297 529 297 529 297 539 c 0,37,38
 297 550 297 550 301.5 558 c 128,-1,39
 306 566 306 566 313 571.5 c 128,-1,40
 320 577 320 577 328.5 579.5 c 128,-1,41
 337 582 337 582 345 582 c 0,42,43
 365 582 365 582 383 567 c 128,-1,44
 401 552 401 552 409 515 c 1,45,-1
 543 565 l 1,46,47
 536 606 536 606 518 635 c 128,-1,48
 500 664 500 664 474.5 682.5 c 128,-1,49
 449 701 449 701 418.5 710 c 128,-1,50
 388 719 388 719 355 719 c 0,51,52
 310 719 310 719 267.5 703.5 c 128,-1,53
 225 688 225 688 192 660 c 128,-1,54
 159 632 159 632 139.5 593 c 128,-1,55
 120 554 120 554 120 507 c 0,56,57
 120 486 120 486 124 467.5 c 128,-1,58
 128 449 128 449 136.5 429 c 128,-1,59
 145 409 145 409 158 387 c 128,-1,60
 171 365 171 365 189 338 c 2,61,-1
 415 0 l 1,30,-1
503 287 m 1,62,-1
 679 287 l 1,63,-1
 694 416 l 1,64,-1
 518 416 l 1,65,-1
 503 287 l 1,62,-1
EndSplineSet
EndChar

StartChar: quotesingle
Encoding: 39 39 10
Width: 266
GlyphClass: 1
Flags: W
LayerCount: 2
Fore
SplineSet
136 495 m 1,0,-1
 315 730 l 1,1,-1
 158 730 l 1,2,-1
 54 495 l 1,3,-1
 136 495 l 1,0,-1
EndSplineSet
EndChar

StartChar: parenleft
Encoding: 40 40 11
Width: 336
GlyphClass: 1
Flags: W
LayerCount: 2
Fore
SplineSet
26 266 m 0,0,1
 26 224 26 224 32 180 c 128,-1,2
 38 136 38 136 48 93 c 128,-1,3
 58 50 58 50 71 9.5 c 128,-1,4
 84 -31 84 -31 99 -66 c 1,5,-1
 252 1 l 1,6,7
 242 36 242 36 233 71.5 c 128,-1,8
 224 107 224 107 217.5 142 c 128,-1,9
 211 177 211 177 207.5 210.5 c 128,-1,10
 204 244 204 244 204 275 c 0,11,12
 204 316 204 316 215.5 363 c 128,-1,13
 227 410 227 410 251.5 464 c 128,-1,14
 276 518 276 518 315 580 c 128,-1,15
 354 642 354 642 408 714 c 1,16,-1
 276 772 l 1,17,18
 224 704 224 704 178 641 c 128,-1,19
 132 578 132 578 98.5 516.5 c 128,-1,20
 65 455 65 455 45.5 393 c 128,-1,21
 26 331 26 331 26 266 c 0,0,1
EndSplineSet
EndChar

StartChar: parenright
Encoding: 41 41 12
Width: 335
GlyphClass: 1
Flags: W
LayerCount: 2
Fore
SplineSet
329 430 m 0,0,1
 329 509 329 509 309 598 c 128,-1,2
 289 687 289 687 260 772 c 1,3,-1
 103 714 l 1,4,5
 108 699 108 699 116 669 c 128,-1,6
 124 639 124 639 132 599.5 c 128,-1,7
 140 560 140 560 145.5 514.5 c 128,-1,8
 151 469 151 469 151 425 c 0,9,10
 151 367 151 367 136 315 c 128,-1,11
 121 263 121 263 94.5 212.5 c 128,-1,12
 68 162 68 162 32.5 110 c 128,-1,13
 -3 58 -3 58 -44 1 c 1,14,-1
 80 -66 l 1,15,16
 126 -11 126 -11 170.5 47.5 c 128,-1,17
 215 106 215 106 250.5 168 c 128,-1,18
 286 230 286 230 307.5 295.5 c 128,-1,19
 329 361 329 361 329 430 c 0,0,1
EndSplineSet
EndChar

StartChar: asterisk
Encoding: 42 42 13
Width: 356
GlyphClass: 1
Flags: W
LayerCount: 2
Fore
SplineSet
166 454 m 1,0,-1
 229 537 l 1,1,-1
 258 454 l 1,2,-1
 336 499 l 1,3,-1
 305 577 l 1,4,-1
 378 598 l 1,5,-1
 371 675 l 1,6,-1
 292 639 l 1,7,-1
 316 721 l 1,8,-1
 221 721 l 1,9,-1
 210 639 l 1,10,-1
 146 675 l 1,11,-1
 106 598 l 1,12,-1
 170 577 l 1,13,-1
 107 499 l 1,14,-1
 166 454 l 1,0,-1
EndSplineSet
EndChar

StartChar: plus
Encoding: 43 43 14
Width: 440
GlyphClass: 1
Flags: W
LayerCount: 2
Fore
SplineSet
315 430 m 1,0,-1
 315 525 l 1,1,-1
 145 525 l 1,2,-1
 145 430 l 1,3,-1
 60 430 l 1,4,-1
 60 280 l 1,5,-1
 145 280 l 1,6,-1
 145 185 l 1,7,-1
 315 185 l 1,8,-1
 315 280 l 1,9,-1
 400 280 l 1,10,-1
 400 430 l 1,11,-1
 315 430 l 1,0,-1
EndSplineSet
EndChar

StartChar: comma
Encoding: 44 44 15
Width: 257
GlyphClass: 1
Flags: W
LayerCount: 2
Fore
SplineSet
65 -160 m 1,0,-1
 257 100 l 1,1,-1
 100 100 l 1,2,-1
 -17 -160 l 1,3,-1
 65 -160 l 1,0,-1
EndSplineSet
EndChar

StartChar: hyphen
Encoding: 45 45 16
Width: 398
GlyphClass: 1
Flags: W
LayerCount: 2
Fore
SplineSet
325 191 m 1,0,-1
 361 361 l 1,1,-1
 62 361 l 1,2,-1
 26 191 l 1,3,-1
 325 191 l 1,0,-1
EndSplineSet
EndChar

StartChar: period
Encoding: 46 46 17
Width: 254
GlyphClass: 1
Flags: W
LayerCount: 2
Fore
SplineSet
32 84 m 256,0,1
 24 45 24 45 45.5 17.5 c 128,-1,2
 67 -10 67 -10 106 -10 c 256,3,4
 145 -10 145 -10 178.5 17.5 c 128,-1,5
 212 45 212 45 220 84 c 256,6,7
 228 123 228 123 206.5 150.5 c 128,-1,8
 185 178 185 178 146 178 c 256,9,10
 107 178 107 178 73.5 150.5 c 128,-1,11
 40 123 40 123 32 84 c 256,0,1
EndSplineSet
EndChar

StartChar: slash
Encoding: 47 47 18
Width: 771
GlyphClass: 1
Flags: W
LayerCount: 2
Fore
SplineSet
616 710 m 1,0,-1
 -28 0 l 1,1,-1
 181 0 l 1,2,-1
 825 710 l 1,3,-1
 616 710 l 1,0,-1
EndSplineSet
Substitution2: "'frac' Diagonal Fractions lookup 23 subtable" fraction
Substitution2: "'aalt' Access All Alternates lookup 0 subtable" fraction
EndChar

StartChar: zero
Encoding: 48 48 19
Width: 689
GlyphClass: 1
Flags: W
LayerCount: 2
Fore
SplineSet
278 -10 m 0,0,1
 360 -10 360 -10 431.5 29 c 128,-1,2
 503 68 503 68 556.5 129.5 c 128,-1,3
 610 191 610 191 640.5 267 c 128,-1,4
 671 343 671 343 671 416 c 0,5,6
 671 467 671 467 657.5 519.5 c 128,-1,7
 644 572 644 572 614.5 614.5 c 128,-1,8
 585 657 585 657 539.5 683.5 c 128,-1,9
 494 710 494 710 431 710 c 0,10,11
 350 710 350 710 278 670.5 c 128,-1,12
 206 631 206 631 153 569 c 128,-1,13
 100 507 100 507 69 431 c 128,-1,14
 38 355 38 355 38 281 c 0,15,16
 38 229 38 229 52 177 c 128,-1,17
 66 125 66 125 95 83.5 c 128,-1,18
 124 42 124 42 169.5 16 c 128,-1,19
 215 -10 215 -10 278 -10 c 0,0,1
315 163 m 0,20,21
 293 163 293 163 278 172 c 128,-1,22
 263 181 263 181 253.5 196.5 c 128,-1,23
 244 212 244 212 240 232.5 c 128,-1,24
 236 253 236 253 236 276 c 0,25,26
 236 310 236 310 246 355 c 128,-1,27
 256 400 256 400 276 440.5 c 128,-1,28
 296 481 296 481 325.5 509 c 128,-1,29
 355 537 355 537 395 537 c 0,30,31
 416 537 416 537 431 526 c 128,-1,32
 446 515 446 515 455.5 497 c 128,-1,33
 465 479 465 479 469 455.5 c 128,-1,34
 473 432 473 432 473 408 c 0,35,36
 473 374 473 374 463 331.5 c 128,-1,37
 453 289 453 289 433 251.5 c 128,-1,38
 413 214 413 214 383.5 188.5 c 128,-1,39
 354 163 354 163 315 163 c 0,20,21
EndSplineSet
Substitution2: "'frac' Diagonal Fractions lookup 24 subtable" zero.numr
Substitution2: "'dnom' Denominators lookup 22 subtable" zero.dnom
Substitution2: "'numr' Numerators lookup 21 subtable" zero.numr
Substitution2: "'sups' Superscript lookup 20 subtable" uni2070
Substitution2: "'sinf' Scientific Inferiors lookup 19 subtable" zero.subs
Substitution2: "'subs' Subscript lookup 18 subtable" uni2080
AlternateSubs2: "'aalt' Access All Alternates lookup 1 subtable" uni2080 zero.subs uni2070 zero.numr zero.dnom
EndChar

StartChar: one
Encoding: 49 49 20
Width: 480
GlyphClass: 1
Flags: W
LayerCount: 2
Fore
SplineSet
135 0 m 1,0,-1
 329 0 l 1,1,-1
 480 715 l 1,2,-1
 286 715 l 2,3,4
 285 714 285 714 267 698.5 c 128,-1,5
 249 683 249 683 222.5 666 c 128,-1,6
 196 649 196 649 165.5 634.5 c 128,-1,7
 135 620 135 620 109 620 c 1,8,-1
 72 446 l 1,9,10
 91 446 91 446 117 455 c 128,-1,11
 143 464 143 464 168.5 477.5 c 128,-1,12
 194 491 194 491 216 505.5 c 128,-1,13
 238 520 238 520 248 532 c 1,14,-1
 135 0 l 1,0,-1
EndSplineSet
Substitution2: "'frac' Diagonal Fractions lookup 24 subtable" one.numr
Substitution2: "'dnom' Denominators lookup 22 subtable" one.dnom
Substitution2: "'numr' Numerators lookup 21 subtable" one.numr
Substitution2: "'sups' Superscript lookup 20 subtable" onesuperior
Substitution2: "'sinf' Scientific Inferiors lookup 19 subtable" one.subs
Substitution2: "'subs' Subscript lookup 18 subtable" uni2081
AlternateSubs2: "'aalt' Access All Alternates lookup 1 subtable" uni2081 one.subs onesuperior one.numr one.dnom
EndChar

StartChar: two
Encoding: 50 50 21
Width: 614
GlyphClass: 1
Flags: W
LayerCount: 2
Fore
SplineSet
-25 0 m 1,0,-1
 500 0 l 1,1,-1
 536 170 l 1,2,-1
 246 170 l 1,3,4
 249 186 249 186 270.5 200.5 c 128,-1,5
 292 215 292 215 320.5 228 c 128,-1,6
 349 241 349 241 379 253 c 128,-1,7
 409 265 409 265 430 277 c 0,8,9
 479 305 479 305 513 331 c 128,-1,10
 547 357 547 357 568.5 387 c 128,-1,11
 590 417 590 417 600 454.5 c 128,-1,12
 610 492 610 492 610 541 c 0,13,14
 610 583 610 583 596.5 616 c 128,-1,15
 583 649 583 649 557.5 671.5 c 128,-1,16
 532 694 532 694 494 706 c 128,-1,17
 456 718 456 718 407 718 c 0,18,19
 361 718 361 718 317 709 c 128,-1,20
 273 700 273 700 234 684 c 128,-1,21
 195 668 195 668 161.5 648 c 128,-1,22
 128 628 128 628 103 605 c 1,23,-1
 193 478 l 1,24,25
 210 492 210 492 229 505 c 128,-1,26
 248 518 248 518 268 528 c 128,-1,27
 288 538 288 538 307.5 544 c 128,-1,28
 327 550 327 550 344 550 c 0,29,30
 352 550 352 550 360 547.5 c 128,-1,31
 368 545 368 545 374 539.5 c 128,-1,32
 380 534 380 534 384 525.5 c 128,-1,33
 388 517 388 517 388 504 c 0,34,35
 388 473 388 473 374 449.5 c 128,-1,36
 360 426 360 426 336 407.5 c 128,-1,37
 312 389 312 389 280 373 c 128,-1,38
 248 357 248 357 211 340 c 0,39,40
 150 313 150 313 111 282.5 c 128,-1,41
 72 252 72 252 46.5 212 c 128,-1,42
 21 172 21 172 5.5 120.5 c 128,-1,43
 -10 69 -10 69 -25 0 c 1,0,-1
EndSplineSet
Substitution2: "'frac' Diagonal Fractions lookup 24 subtable" two.numr
Substitution2: "'dnom' Denominators lookup 22 subtable" two.dnom
Substitution2: "'numr' Numerators lookup 21 subtable" two.numr
Substitution2: "'sups' Superscript lookup 20 subtable" twosuperior
Substitution2: "'sinf' Scientific Inferiors lookup 19 subtable" two.subs
Substitution2: "'subs' Subscript lookup 18 subtable" uni2082
AlternateSubs2: "'aalt' Access All Alternates lookup 1 subtable" uni2082 two.subs twosuperior two.numr two.dnom
EndChar

StartChar: three
Encoding: 51 51 22
Width: 561
GlyphClass: 1
Flags: W
LayerCount: 2
Fore
SplineSet
188 -9 m 0,0,1
 260 -9 260 -9 319.5 8 c 128,-1,2
 379 25 379 25 421.5 56.5 c 128,-1,3
 464 88 464 88 487.5 132.5 c 128,-1,4
 511 177 511 177 511 232 c 256,5,6
 511 287 511 287 484.5 326.5 c 128,-1,7
 458 366 458 366 411 375 c 1,8,9
 443 381 443 381 472 399 c 128,-1,10
 501 417 501 417 523.5 443 c 128,-1,11
 546 469 546 469 559.5 500.5 c 128,-1,12
 573 532 573 532 573 566 c 0,13,14
 573 599 573 599 559 626.5 c 128,-1,15
 545 654 545 654 518.5 673.5 c 128,-1,16
 492 693 492 693 454 703.5 c 128,-1,17
 416 714 416 714 368 714 c 0,18,19
 329 714 329 714 290 707.5 c 128,-1,20
 251 701 251 701 215.5 689 c 128,-1,21
 180 677 180 677 149.5 660.5 c 128,-1,22
 119 644 119 644 98 624 c 1,23,-1
 188 483 l 1,24,25
 217 518 217 518 249 535.5 c 128,-1,26
 281 553 281 553 312 553 c 0,27,28
 335 553 335 553 346.5 542.5 c 128,-1,29
 358 532 358 532 358 513 c 0,30,31
 358 495 358 495 349.5 480.5 c 128,-1,32
 341 466 341 466 326 455.5 c 128,-1,33
 311 445 311 445 290.5 439 c 128,-1,34
 270 433 270 433 246 433 c 2,35,-1
 212 433 l 1,36,-1
 184 301 l 1,37,-1
 214 301 l 2,38,39
 269 301 269 301 294 287.5 c 128,-1,40
 319 274 319 274 319 245 c 0,41,42
 319 226 319 226 313.5 211 c 128,-1,43
 308 196 308 196 295.5 185.5 c 128,-1,44
 283 175 283 175 263 170 c 128,-1,45
 243 165 243 165 214 165 c 0,46,47
 176 165 176 165 148 175.5 c 128,-1,48
 120 186 120 186 97 209 c 1,49,-1
 -28 71 l 1,50,51
 10 30 10 30 62.5 10.5 c 128,-1,52
 115 -9 115 -9 188 -9 c 0,0,1
EndSplineSet
Substitution2: "'frac' Diagonal Fractions lookup 24 subtable" three.numr
Substitution2: "'dnom' Denominators lookup 22 subtable" three.dnom
Substitution2: "'numr' Numerators lookup 21 subtable" three.numr
Substitution2: "'sups' Superscript lookup 20 subtable" threesuperior
Substitution2: "'sinf' Scientific Inferiors lookup 19 subtable" three.subs
Substitution2: "'subs' Subscript lookup 18 subtable" uni2083
AlternateSubs2: "'aalt' Access All Alternates lookup 1 subtable" uni2083 three.subs threesuperior three.numr three.dnom
EndChar

StartChar: four
Encoding: 52 52 23
Width: 575
GlyphClass: 1
Flags: W
LayerCount: 2
Fore
SplineSet
390 1 m 1,0,-1
 419 137 l 1,1,-1
 503 137 l 1,2,-1
 539 307 l 1,3,-1
 455 307 l 1,4,-1
 541 711 l 1,5,-1
 411 711 l 1,6,-1
 28 307 l 1,7,-1
 -8 137 l 1,8,-1
 229 137 l 1,9,-1
 200 1 l 1,10,-1
 390 1 l 1,0,-1
215 307 m 1,11,-1
 313 427 l 1,12,-1
 287 307 l 1,13,-1
 215 307 l 1,11,-1
EndSplineSet
Substitution2: "'frac' Diagonal Fractions lookup 24 subtable" four.numr
Substitution2: "'dnom' Denominators lookup 22 subtable" four.dnom
Substitution2: "'numr' Numerators lookup 21 subtable" four.numr
Substitution2: "'sups' Superscript lookup 20 subtable" uni2074
Substitution2: "'sinf' Scientific Inferiors lookup 19 subtable" four.subs
Substitution2: "'subs' Subscript lookup 18 subtable" uni2084
AlternateSubs2: "'aalt' Access All Alternates lookup 1 subtable" uni2084 four.subs uni2074 four.numr four.dnom
EndChar

StartChar: five
Encoding: 53 53 24
Width: 557
GlyphClass: 1
Flags: W
LayerCount: 2
Fore
SplineSet
190 -9 m 0,0,1
 258 -9 258 -9 316.5 13 c 128,-1,2
 375 35 375 35 418.5 74 c 128,-1,3
 462 113 462 113 487 166 c 128,-1,4
 512 219 512 219 512 282 c 0,5,6
 512 323 512 323 499.5 357 c 128,-1,7
 487 391 487 391 463 415 c 128,-1,8
 439 439 439 439 405.5 452.5 c 128,-1,9
 372 466 372 466 330 466 c 0,10,11
 309 466 309 466 300 463.5 c 128,-1,12
 291 461 291 461 293 461 c 2,13,-1
 317 538 l 1,14,-1
 519 538 l 1,15,-1
 556 711 l 1,16,-1
 217 711 l 1,17,18
 202 674 202 674 187 637.5 c 128,-1,19
 172 601 172 601 158 564 c 128,-1,20
 144 527 144 527 129.5 490 c 128,-1,21
 115 453 115 453 101 416 c 128,-1,22
 87 379 87 379 72.5 342.5 c 128,-1,23
 58 306 58 306 43 269 c 1,24,-1
 205 269 l 1,25,26
 216 285 216 285 232.5 294.5 c 128,-1,27
 249 304 249 304 267 304 c 0,28,29
 278 304 278 304 286.5 300 c 128,-1,30
 295 296 295 296 300.5 289 c 128,-1,31
 306 282 306 282 309 272 c 128,-1,32
 312 262 312 262 312 250 c 0,33,34
 312 230 312 230 306 213 c 128,-1,35
 300 196 300 196 288.5 183.5 c 128,-1,36
 277 171 277 171 261.5 164 c 128,-1,37
 246 157 246 157 226 157 c 0,38,39
 196 157 196 157 166.5 174.5 c 128,-1,40
 137 192 137 192 117 223 c 1,41,-1
 -12 103 l 1,42,43
 9 49 9 49 62 20 c 128,-1,44
 115 -9 115 -9 190 -9 c 0,0,1
EndSplineSet
Substitution2: "'frac' Diagonal Fractions lookup 24 subtable" five.numr
Substitution2: "'dnom' Denominators lookup 22 subtable" five.dnom
Substitution2: "'numr' Numerators lookup 21 subtable" five.numr
Substitution2: "'sups' Superscript lookup 20 subtable" uni2075
Substitution2: "'sinf' Scientific Inferiors lookup 19 subtable" five.subs
Substitution2: "'subs' Subscript lookup 18 subtable" uni2085
AlternateSubs2: "'aalt' Access All Alternates lookup 1 subtable" uni2085 five.subs uni2075 five.numr five.dnom
EndChar

StartChar: six
Encoding: 54 54 25
Width: 593
GlyphClass: 1
Flags: W
LayerCount: 2
Fore
SplineSet
234 -10 m 0,0,1
 186 -10 186 -10 149.5 7 c 128,-1,2
 113 24 113 24 88.5 55.5 c 128,-1,3
 64 87 64 87 51.5 132 c 128,-1,4
 39 177 39 177 39 234 c 0,5,6
 39 336 39 336 66 424 c 128,-1,7
 93 512 93 512 141.5 577 c 128,-1,8
 190 642 190 642 258 679 c 128,-1,9
 326 716 326 716 408 716 c 0,10,11
 469 716 469 716 518 692 c 128,-1,12
 567 668 567 668 603 620 c 1,13,-1
 472 498 l 1,14,15
 452 524 452 524 426 538 c 128,-1,16
 400 552 400 552 370 552 c 0,17,18
 348 552 348 552 329 544.5 c 128,-1,19
 310 537 310 537 295 522.5 c 128,-1,20
 280 508 280 508 268.5 487 c 128,-1,21
 257 466 257 466 250 439 c 1,22,23
 261 448 261 448 272.5 454 c 128,-1,24
 284 460 284 460 297 464.5 c 128,-1,25
 310 469 310 469 324 471 c 128,-1,26
 338 473 338 473 353 473 c 0,27,28
 397 473 397 473 433 458.5 c 128,-1,29
 469 444 469 444 494.5 418.5 c 128,-1,30
 520 393 520 393 533.5 358 c 128,-1,31
 547 323 547 323 547 282 c 0,32,33
 547 223 547 223 521.5 170 c 128,-1,34
 496 117 496 117 452.5 77 c 128,-1,35
 409 37 409 37 352.5 13.5 c 128,-1,36
 296 -10 296 -10 234 -10 c 0,0,1
268 149 m 0,37,38
 285 149 285 149 301.5 158 c 128,-1,39
 318 167 318 167 331.5 182 c 128,-1,40
 345 197 345 197 353.5 216.5 c 128,-1,41
 362 236 362 236 362 257 c 0,42,43
 362 271 362 271 358 283.5 c 128,-1,44
 354 296 354 296 346.5 305 c 128,-1,45
 339 314 339 314 328.5 319 c 128,-1,46
 318 324 318 324 305 324 c 0,47,48
 287 324 287 324 270.5 316 c 128,-1,49
 254 308 254 308 241 294 c 128,-1,50
 228 280 228 280 220 261.5 c 128,-1,51
 212 243 212 243 212 222 c 0,52,53
 212 207 212 207 216 193.5 c 128,-1,54
 220 180 220 180 227.5 170.5 c 128,-1,55
 235 161 235 161 245.5 155 c 128,-1,56
 256 149 256 149 268 149 c 0,37,38
EndSplineSet
Substitution2: "'frac' Diagonal Fractions lookup 24 subtable" six.numr
Substitution2: "'dnom' Denominators lookup 22 subtable" six.dnom
Substitution2: "'numr' Numerators lookup 21 subtable" six.numr
Substitution2: "'sups' Superscript lookup 20 subtable" uni2076
Substitution2: "'sinf' Scientific Inferiors lookup 19 subtable" six.subs
Substitution2: "'subs' Subscript lookup 18 subtable" uni2086
AlternateSubs2: "'aalt' Access All Alternates lookup 1 subtable" uni2086 six.subs uni2076 six.numr six.dnom
EndChar

StartChar: seven
Encoding: 55 55 26
Width: 585
GlyphClass: 1
Flags: W
LayerCount: 2
Fore
SplineSet
-22 1 m 1,0,-1
 193 1 l 1,1,-1
 673 711 l 1,2,-1
 125 711 l 1,3,-1
 88 538 l 1,4,-1
 337 538 l 1,5,-1
 -22 1 l 1,0,-1
EndSplineSet
Substitution2: "'frac' Diagonal Fractions lookup 24 subtable" seven.numr
Substitution2: "'dnom' Denominators lookup 22 subtable" seven.dnom
Substitution2: "'numr' Numerators lookup 21 subtable" seven.numr
Substitution2: "'sups' Superscript lookup 20 subtable" uni2077
Substitution2: "'sinf' Scientific Inferiors lookup 19 subtable" seven.subs
Substitution2: "'subs' Subscript lookup 18 subtable" uni2087
AlternateSubs2: "'aalt' Access All Alternates lookup 1 subtable" uni2087 seven.subs uni2077 seven.numr seven.dnom
EndChar

StartChar: eight
Encoding: 56 56 27
Width: 591
GlyphClass: 1
Flags: W
LayerCount: 2
Fore
SplineSet
538 254 m 0,0,1
 538 297 538 297 522.5 329 c 128,-1,2
 507 361 507 361 490 379 c 1,3,4
 507 389 507 389 523 405 c 128,-1,5
 539 421 539 421 552 441.5 c 128,-1,6
 565 462 565 462 572.5 486 c 128,-1,7
 580 510 580 510 580 534 c 0,8,9
 580 577 580 577 562 610 c 128,-1,10
 544 643 544 643 515.5 665 c 128,-1,11
 487 687 487 687 451.5 698.5 c 128,-1,12
 416 710 416 710 381 710 c 0,13,14
 338 710 338 710 288 694 c 128,-1,15
 238 678 238 678 195 648 c 128,-1,16
 152 618 152 618 124 574 c 128,-1,17
 96 530 96 530 96 474 c 0,18,19
 96 446 96 446 105.5 419.5 c 128,-1,20
 115 393 115 393 132 379 c 1,21,22
 114 366 114 366 94 348 c 128,-1,23
 74 330 74 330 56.5 306.5 c 128,-1,24
 39 283 39 283 28 253 c 128,-1,25
 17 223 17 223 17 186 c 0,26,27
 17 141 17 141 33.5 105 c 128,-1,28
 50 69 50 69 78.5 43.5 c 128,-1,29
 107 18 107 18 146 4 c 128,-1,30
 185 -10 185 -10 229 -10 c 0,31,32
 289 -10 289 -10 345 10 c 128,-1,33
 401 30 401 30 443.5 65 c 128,-1,34
 486 100 486 100 512 148.5 c 128,-1,35
 538 197 538 197 538 254 c 0,0,1
345 248 m 0,36,37
 345 231 345 231 339 215.5 c 128,-1,38
 333 200 333 200 322 188.5 c 128,-1,39
 311 177 311 177 296.5 170 c 128,-1,40
 282 163 282 163 265 163 c 0,41,42
 253 163 253 163 244 167 c 128,-1,43
 235 171 235 171 228.5 178.5 c 128,-1,44
 222 186 222 186 218.5 196 c 128,-1,45
 215 206 215 206 215 218 c 0,46,47
 215 236 215 236 221 251 c 128,-1,48
 227 266 227 266 237.5 277 c 128,-1,49
 248 288 248 288 263 294.5 c 128,-1,50
 278 301 278 301 295 301 c 0,51,52
 307 301 307 301 316.5 297.5 c 128,-1,53
 326 294 326 294 332 287.5 c 128,-1,54
 338 281 338 281 341.5 271 c 128,-1,55
 345 261 345 261 345 248 c 0,36,37
289 482 m 0,56,57
 289 494 289 494 293.5 505.5 c 128,-1,58
 298 517 298 517 305.5 525 c 128,-1,59
 313 533 313 533 323.5 538 c 128,-1,60
 334 543 334 543 346 543 c 0,61,62
 355 543 355 543 362 540 c 128,-1,63
 369 537 369 537 373.5 532 c 128,-1,64
 378 527 378 527 380.5 519.5 c 128,-1,65
 383 512 383 512 383 504 c 0,66,67
 383 489 383 489 377.5 477.5 c 128,-1,68
 372 466 372 466 363.5 458 c 128,-1,69
 355 450 355 450 344.5 446 c 128,-1,70
 334 442 334 442 324 442 c 0,71,72
 317 442 317 442 311 444.5 c 128,-1,73
 305 447 305 447 300 452 c 128,-1,74
 295 457 295 457 292 464.5 c 128,-1,75
 289 472 289 472 289 482 c 0,56,57
EndSplineSet
Substitution2: "'frac' Diagonal Fractions lookup 24 subtable" eight.numr
Substitution2: "'dnom' Denominators lookup 22 subtable" eight.dnom
Substitution2: "'numr' Numerators lookup 21 subtable" eight.numr
Substitution2: "'sups' Superscript lookup 20 subtable" uni2078
Substitution2: "'sinf' Scientific Inferiors lookup 19 subtable" eight.subs
Substitution2: "'subs' Subscript lookup 18 subtable" uni2088
AlternateSubs2: "'aalt' Access All Alternates lookup 1 subtable" uni2088 eight.subs uni2078 eight.numr eight.dnom
EndChar

StartChar: nine
Encoding: 57 57 28
Width: 574
GlyphClass: 1
Flags: W
LayerCount: 2
Fore
SplineSet
207 -10 m 0,0,1
 146 -10 146 -10 97 14 c 128,-1,2
 48 38 48 38 11 86 c 1,3,-1
 142 208 l 1,4,5
 162 182 162 182 188 168 c 128,-1,6
 214 154 214 154 245 154 c 0,7,8
 266 154 266 154 285 161.5 c 128,-1,9
 304 169 304 169 319.5 183.5 c 128,-1,10
 335 198 335 198 346.5 219 c 128,-1,11
 358 240 358 240 365 267 c 1,12,13
 354 258 354 258 342 252 c 128,-1,14
 330 246 330 246 317.5 241.5 c 128,-1,15
 305 237 305 237 291 235 c 128,-1,16
 277 233 277 233 262 233 c 0,17,18
 218 233 218 233 182 247.5 c 128,-1,19
 146 262 146 262 120.5 287.5 c 128,-1,20
 95 313 95 313 81.5 348 c 128,-1,21
 68 383 68 383 68 424 c 0,22,23
 68 483 68 483 93.5 536 c 128,-1,24
 119 589 119 589 162 629 c 128,-1,25
 205 669 205 669 261.5 692.5 c 128,-1,26
 318 716 318 716 380 716 c 0,27,28
 428 716 428 716 464.5 699.5 c 128,-1,29
 501 683 501 683 525.5 651.5 c 128,-1,30
 550 620 550 620 562.5 574.5 c 128,-1,31
 575 529 575 529 575 472 c 0,32,33
 575 370 575 370 548 282 c 128,-1,34
 521 194 521 194 472.5 129 c 128,-1,35
 424 64 424 64 356.5 27 c 128,-1,36
 289 -10 289 -10 207 -10 c 0,0,1
309 382 m 0,37,38
 327 382 327 382 343.5 390 c 128,-1,39
 360 398 360 398 373 412 c 128,-1,40
 386 426 386 426 394 444.5 c 128,-1,41
 402 463 402 463 402 484 c 0,42,43
 402 499 402 499 398 512.5 c 128,-1,44
 394 526 394 526 386.5 535.5 c 128,-1,45
 379 545 379 545 368.5 551 c 128,-1,46
 358 557 358 557 346 557 c 0,47,48
 330 557 330 557 313 548 c 128,-1,49
 296 539 296 539 282.5 524 c 128,-1,50
 269 509 269 509 260.5 489.5 c 128,-1,51
 252 470 252 470 252 449 c 0,52,53
 252 435 252 435 256 422.5 c 128,-1,54
 260 410 260 410 267.5 401 c 128,-1,55
 275 392 275 392 285.5 387 c 128,-1,56
 296 382 296 382 309 382 c 0,37,38
EndSplineSet
Substitution2: "'frac' Diagonal Fractions lookup 24 subtable" nine.numr
Substitution2: "'dnom' Denominators lookup 22 subtable" nine.dnom
Substitution2: "'numr' Numerators lookup 21 subtable" nine.numr
Substitution2: "'sups' Superscript lookup 20 subtable" uni2079
Substitution2: "'sinf' Scientific Inferiors lookup 19 subtable" nine.subs
Substitution2: "'subs' Subscript lookup 18 subtable" uni2089
AlternateSubs2: "'aalt' Access All Alternates lookup 1 subtable" uni2089 nine.subs uni2079 nine.numr nine.dnom
EndChar

StartChar: less
Encoding: 60 60 31
Width: 554
GlyphClass: 1
Flags: W
LayerCount: 2
Fore
SplineSet
28 210 m 1,0,-1
 452 -40 l 1,1,-1
 452 172 l 1,2,-1
 304 259 l 1,3,-1
 452 354 l 1,4,-1
 452 556 l 1,5,-1
 28 298 l 1,6,-1
 28 210 l 1,0,-1
EndSplineSet
EndChar

StartChar: equal
Encoding: 61 61 32
Width: 492
GlyphClass: 1
Flags: W
LayerCount: 2
Fore
SplineSet
401 101 m 1,0,-1
 401 221 l 1,1,-1
 78 221 l 1,2,-1
 78 101 l 1,3,-1
 401 101 l 1,0,-1
401 331 m 1,4,-1
 401 451 l 1,5,-1
 78 451 l 1,6,-1
 78 331 l 1,7,-1
 401 331 l 1,4,-1
EndSplineSet
EndChar

StartChar: greater
Encoding: 62 62 33
Width: 555
GlyphClass: 1
Flags: W
LayerCount: 2
Fore
SplineSet
507 298 m 1,0,-1
 83 556 l 1,1,-1
 83 354 l 1,2,-1
 231 259 l 1,3,-1
 83 172 l 1,4,-1
 83 -40 l 1,5,-1
 507 210 l 1,6,-1
 507 298 l 1,0,-1
EndSplineSet
EndChar

StartChar: question
Encoding: 63 63 34
Width: 482
GlyphClass: 1
Flags: W
LayerCount: 2
Fore
SplineSet
230 259 m 1,0,1
 233 276 233 276 247.5 287.5 c 128,-1,2
 262 299 262 299 283 310 c 128,-1,3
 304 321 304 321 328.5 332 c 128,-1,4
 353 343 353 343 377 358 c 0,5,6
 402 373 402 373 420.5 390.5 c 128,-1,7
 439 408 439 408 452 427.5 c 128,-1,8
 465 447 465 447 474 469 c 128,-1,9
 483 491 483 491 488 515 c 0,10,11
 500 571 500 571 489 610 c 128,-1,12
 478 649 478 649 453.5 673 c 128,-1,13
 429 697 429 697 394 708 c 128,-1,14
 359 719 359 719 322 719 c 0,15,16
 287 719 287 719 254 710 c 128,-1,17
 221 701 221 701 191 684.5 c 128,-1,18
 161 668 161 668 136 644 c 128,-1,19
 111 620 111 620 93 590 c 1,20,-1
 190 504 l 1,21,22
 197 511 197 511 206 521.5 c 128,-1,23
 215 532 215 532 226 542 c 128,-1,24
 237 552 237 552 251 559 c 128,-1,25
 265 566 265 566 282 566 c 0,26,27
 294 566 294 566 303.5 562.5 c 128,-1,28
 313 559 313 559 319.5 552.5 c 128,-1,29
 326 546 326 546 329 536.5 c 128,-1,30
 332 527 332 527 329 516 c 0,31,32
 325 495 325 495 307 477.5 c 128,-1,33
 289 460 289 460 266.5 446 c 128,-1,34
 244 432 244 432 222 422 c 128,-1,35
 200 412 200 412 188 406 c 0,36,37
 159 392 159 392 140 375 c 128,-1,38
 121 358 121 358 109.5 339.5 c 128,-1,39
 98 321 98 321 92 300.5 c 128,-1,40
 86 280 86 280 81 259 c 1,41,-1
 230 259 l 1,0,1
32 84 m 0,42,43
 24 45 24 45 44 17.5 c 128,-1,44
 64 -10 64 -10 102 -10 c 0,45,46
 121 -10 121 -10 139 -2.5 c 128,-1,47
 157 5 157 5 172 17.5 c 128,-1,48
 187 30 187 30 198 47.5 c 128,-1,49
 209 65 209 65 213 84 c 0,50,51
 221 123 221 123 200.5 150.5 c 128,-1,52
 180 178 180 178 142 178 c 0,53,54
 123 178 123 178 105 170.5 c 128,-1,55
 87 163 87 163 72 150.5 c 128,-1,56
 57 138 57 138 46.5 121 c 128,-1,57
 36 104 36 104 32 84 c 0,42,43
EndSplineSet
EndChar

StartChar: at
Encoding: 64 64 35
Width: 820
GlyphClass: 1
Flags: W
LayerCount: 2
Fore
SplineSet
588 64 m 0,0,1
 573 64 573 64 564.5 74.5 c 128,-1,2
 556 85 556 85 556 102 c 0,3,4
 556 109 556 109 557 118 c 128,-1,5
 558 127 558 127 560 135 c 2,6,-1
 619 450 l 1,7,-1
 536 450 l 1,8,-1
 526 394 l 1,9,10
 519 428 519 428 488.5 448 c 128,-1,11
 458 468 458 468 412 468 c 0,12,13
 362 468 362 468 316 444.5 c 128,-1,14
 270 421 270 421 234.5 381 c 128,-1,15
 199 341 199 341 178 288.5 c 128,-1,16
 157 236 157 236 157 178 c 0,17,18
 157 137 157 137 168.5 103 c 128,-1,19
 180 69 180 69 201 45 c 128,-1,20
 222 21 222 21 252 7.5 c 128,-1,21
 282 -6 282 -6 319 -6 c 0,22,23
 357 -6 357 -6 392.5 9.5 c 128,-1,24
 428 25 428 25 470 60 c 1,25,26
 469 58 469 58 469 55.5 c 128,-1,27
 469 53 469 53 469 49 c 0,28,29
 469 18 469 18 491.5 1 c 128,-1,30
 514 -16 514 -16 550 -16 c 0,31,32
 582 -16 582 -16 610.5 -3 c 128,-1,33
 639 10 639 10 663.5 32.5 c 128,-1,34
 688 55 688 55 708 86 c 128,-1,35
 728 117 728 117 742 153.5 c 128,-1,36
 756 190 756 190 763.5 230 c 128,-1,37
 771 270 771 270 771 311 c 0,38,39
 771 380 771 380 749 434.5 c 128,-1,40
 727 489 727 489 687.5 526.5 c 128,-1,41
 648 564 648 564 592 583.5 c 128,-1,42
 536 603 536 603 467 603 c 0,43,44
 374 603 374 603 291.5 568 c 128,-1,45
 209 533 209 533 148 472.5 c 128,-1,46
 87 412 87 412 51.5 330 c 128,-1,47
 16 248 16 248 16 155 c 0,48,49
 16 86 16 86 36 30.5 c 128,-1,50
 56 -25 56 -25 92.5 -64 c 128,-1,51
 129 -103 129 -103 181.5 -124.5 c 128,-1,52
 234 -146 234 -146 299 -146 c 0,53,54
 344 -146 344 -146 387.5 -136 c 128,-1,55
 431 -126 431 -126 473 -106 c 1,56,-1
 466 -38 l 1,57,58
 420 -58 420 -58 384.5 -67 c 128,-1,59
 349 -76 349 -76 313 -76 c 0,60,61
 261 -76 261 -76 220 -59.5 c 128,-1,62
 179 -43 179 -43 150.5 -12 c 128,-1,63
 122 19 122 19 106.5 63.5 c 128,-1,64
 91 108 91 108 91 164 c 0,65,66
 91 241 91 241 119 308 c 128,-1,67
 147 375 147 375 195 425 c 128,-1,68
 243 475 243 475 308.5 504 c 128,-1,69
 374 533 374 533 449 533 c 0,70,71
 506 533 506 533 551.5 516 c 128,-1,72
 597 499 597 499 629 467.5 c 128,-1,73
 661 436 661 436 678.5 391.5 c 128,-1,74
 696 347 696 347 696 291 c 0,75,76
 696 249 696 249 686.5 208.5 c 128,-1,77
 677 168 677 168 662 136 c 128,-1,78
 647 104 647 104 627.5 84 c 128,-1,79
 608 64 608 64 588 64 c 0,0,1
354 82 m 0,80,81
 330 82 330 82 313 90.5 c 128,-1,82
 296 99 296 99 285.5 113 c 128,-1,83
 275 127 275 127 270.5 146 c 128,-1,84
 266 165 266 165 266 186 c 0,85,86
 266 223 266 223 278 255.5 c 128,-1,87
 290 288 290 288 309.5 312 c 128,-1,88
 329 336 329 336 353.5 349.5 c 128,-1,89
 378 363 378 363 403 363 c 0,90,91
 438 363 438 363 457.5 339.5 c 128,-1,92
 477 316 477 316 479 284 c 1,93,-1
 463 169 l 1,94,95
 454 148 454 148 443.5 132 c 128,-1,96
 433 116 433 116 419.5 104.5 c 128,-1,97
 406 93 406 93 390 87.5 c 128,-1,98
 374 82 374 82 354 82 c 0,80,81
EndSplineSet
EndChar

StartChar: A
Encoding: 65 65 36
Width: 636
GlyphClass: 1
Flags: W
LayerCount: 2
Fore
SplineSet
-61 0 m 1,0,-1
 138 0 l 1,1,-1
 203 139 l 1,2,-1
 373 139 l 1,3,-1
 380 0 l 1,4,-1
 578 0 l 1,5,-1
 499 710 l 1,6,-1
 320 710 l 1,7,-1
 -61 0 l 1,0,-1
259 269 m 1,8,-1
 362 489 l 1,9,-1
 370 269 l 1,10,-1
 259 269 l 1,8,-1
EndSplineSet
Substitution2: "Single Substitution lookup 46 subtable" ordfeminine
Substitution2: "'aalt' Access All Alternates lookup 0 subtable" ordfeminine
EndChar

StartChar: B
Encoding: 66 66 37
Width: 667
GlyphClass: 1
Flags: W
LayerCount: 2
Fore
SplineSet
-3 0 m 1,0,-1
 330 0 l 2,1,2
 387 0 387 0 440 13 c 128,-1,3
 493 26 493 26 533 53 c 128,-1,4
 573 80 573 80 597 122.5 c 128,-1,5
 621 165 621 165 621 225 c 0,6,7
 621 279 621 279 596.5 314.5 c 128,-1,8
 572 350 572 350 528 364 c 1,9,10
 561 378 561 378 586.5 399.5 c 128,-1,11
 612 421 612 421 629.5 448 c 128,-1,12
 647 475 647 475 656 504.5 c 128,-1,13
 665 534 665 534 665 564 c 0,14,15
 665 592 665 592 657.5 618.5 c 128,-1,16
 650 645 650 645 635 665 c 128,-1,17
 620 685 620 685 597.5 697.5 c 128,-1,18
 575 710 575 710 545 710 c 2,19,-1
 148 710 l 1,20,-1
 -3 0 l 1,0,-1
227 164 m 1,21,-1
 252 283 l 1,22,-1
 396 283 l 2,23,24
 404 283 404 283 409.5 279.5 c 128,-1,25
 415 276 415 276 419.5 270 c 128,-1,26
 424 264 424 264 426 256 c 128,-1,27
 428 248 428 248 428 238 c 0,28,29
 428 221 428 221 422.5 207 c 128,-1,30
 417 193 417 193 408.5 183.5 c 128,-1,31
 400 174 400 174 388.5 169 c 128,-1,32
 377 164 377 164 365 164 c 2,33,-1
 227 164 l 1,21,-1
284 435 m 1,34,-1
 308 544 l 1,35,-1
 431 544 l 2,36,37
 437 544 437 544 442.5 542 c 128,-1,38
 448 540 448 540 452 535.5 c 128,-1,39
 456 531 456 531 458.5 523.5 c 128,-1,40
 461 516 461 516 461 506 c 0,41,42
 461 485 461 485 455.5 471.5 c 128,-1,43
 450 458 450 458 441.5 450 c 128,-1,44
 433 442 433 442 422.5 438.5 c 128,-1,45
 412 435 412 435 402 435 c 2,46,-1
 284 435 l 1,34,-1
EndSplineSet
EndChar

StartChar: C
Encoding: 67 67 38
Width: 664
GlyphClass: 1
Flags: W
LayerCount: 2
Fore
SplineSet
299 -6 m 0,0,1
 343 -6 343 -6 390.5 5 c 128,-1,2
 438 16 438 16 482.5 37 c 128,-1,3
 527 58 527 58 564.5 89 c 128,-1,4
 602 120 602 120 625 159 c 1,5,-1
 486 254 l 1,6,7
 473 230 473 230 455.5 213.5 c 128,-1,8
 438 197 438 197 418.5 186.5 c 128,-1,9
 399 176 399 176 378.5 171.5 c 128,-1,10
 358 167 358 167 340 167 c 0,11,12
 312 167 312 167 290.5 178.5 c 128,-1,13
 269 190 269 190 255 209.5 c 128,-1,14
 241 229 241 229 234 255.5 c 128,-1,15
 227 282 227 282 227 311 c 0,16,17
 227 348 227 348 239.5 388.5 c 128,-1,18
 252 429 252 429 276 463 c 128,-1,19
 300 497 300 497 335.5 519 c 128,-1,20
 371 541 371 541 417 541 c 0,21,22
 435 541 435 541 454 537 c 128,-1,23
 473 533 473 533 489.5 523 c 128,-1,24
 506 513 506 513 517.5 496 c 128,-1,25
 529 479 529 479 533 453 c 1,26,-1
 704 559 l 1,27,28
 694 594 694 594 672.5 622.5 c 128,-1,29
 651 651 651 651 619.5 671.5 c 128,-1,30
 588 692 588 692 547.5 703 c 128,-1,31
 507 714 507 714 458 714 c 0,32,33
 365 714 365 714 286.5 676.5 c 128,-1,34
 208 639 208 639 150.5 579.5 c 128,-1,35
 93 520 93 520 60.5 446 c 128,-1,36
 28 372 28 372 28 298 c 0,37,38
 28 240 28 240 46 185 c 128,-1,39
 64 130 64 130 99 87.5 c 128,-1,40
 134 45 134 45 184.5 19.5 c 128,-1,41
 235 -6 235 -6 299 -6 c 0,0,1
EndSplineSet
EndChar

StartChar: D
Encoding: 68 68 39
Width: 693
GlyphClass: 1
Flags: W
LayerCount: 2
Fore
SplineSet
-3 0 m 1,0,-1
 259 0 l 2,1,2
 350 0 350 0 428 32.5 c 128,-1,3
 506 65 506 65 563.5 123 c 128,-1,4
 621 181 621 181 653.5 260 c 128,-1,5
 686 339 686 339 686 433 c 0,6,7
 686 491 686 491 669.5 541.5 c 128,-1,8
 653 592 653 592 618.5 629.5 c 128,-1,9
 584 667 584 667 532.5 688.5 c 128,-1,10
 481 710 481 710 410 710 c 2,11,-1
 148 710 l 1,12,-1
 -3 0 l 1,0,-1
228 170 m 1,13,-1
 307 540 l 1,14,-1
 374 540 l 2,15,16
 401 540 401 540 421.5 530.5 c 128,-1,17
 442 521 442 521 456.5 503 c 128,-1,18
 471 485 471 485 478 460 c 128,-1,19
 485 435 485 435 485 405 c 0,20,21
 485 358 485 358 471 315.5 c 128,-1,22
 457 273 457 273 432 240.5 c 128,-1,23
 407 208 407 208 372 189 c 128,-1,24
 337 170 337 170 295 170 c 2,25,-1
 228 170 l 1,13,-1
EndSplineSet
EndChar

StartChar: E
Encoding: 69 69 40
Width: 575
GlyphClass: 1
Flags: W
LayerCount: 2
Fore
SplineSet
-3 0 m 1,0,-1
 480 0 l 1,1,-1
 516 170 l 1,2,-1
 228 170 l 1,3,-1
 252 282 l 1,4,-1
 490 282 l 1,5,-1
 524 440 l 1,6,-1
 286 440 l 1,7,-1
 307 540 l 1,8,-1
 586 540 l 1,9,-1
 622 710 l 1,10,-1
 148 710 l 1,11,-1
 -3 0 l 1,0,-1
EndSplineSet
EndChar

StartChar: F
Encoding: 70 70 41
Width: 546
GlyphClass: 1
Flags: W
LayerCount: 2
Fore
SplineSet
-3 0 m 1,0,-1
 192 0 l 1,1,-1
 248 264 l 1,2,-1
 467 264 l 1,3,-1
 500 422 l 1,4,-1
 282 422 l 1,5,-1
 307 540 l 1,6,-1
 576 540 l 1,7,-1
 612 710 l 1,8,-1
 148 710 l 1,9,-1
 -3 0 l 1,0,-1
EndSplineSet
EndChar

StartChar: G
Encoding: 71 71 42
Width: 701
GlyphClass: 1
Flags: W
LayerCount: 2
Fore
SplineSet
287 -5 m 0,0,1
 328 -5 328 -5 363.5 -1 c 128,-1,2
 399 3 399 3 435 14 c 128,-1,3
 471 25 471 25 510 45.5 c 128,-1,4
 549 66 549 66 596 100 c 1,5,-1
 659 398 l 1,6,-1
 350 398 l 1,7,-1
 320 238 l 1,8,-1
 433 238 l 1,9,-1
 422 184 l 1,10,11
 405 177 405 177 395 172.5 c 128,-1,12
 385 168 385 168 376 166.5 c 128,-1,13
 367 165 367 165 356 164.5 c 128,-1,14
 345 164 345 164 325 164 c 0,15,16
 286 164 286 164 262.5 182.5 c 128,-1,17
 239 201 239 201 228.5 229 c 128,-1,18
 218 257 218 257 218 291 c 128,-1,19
 218 325 218 325 225 356 c 0,20,21
 233 391 233 391 248 424 c 128,-1,22
 263 457 263 457 285.5 483.5 c 128,-1,23
 308 510 308 510 337 526 c 128,-1,24
 366 542 366 542 401 542 c 0,25,26
 433 542 433 542 452.5 529.5 c 128,-1,27
 472 517 472 517 483.5 501 c 128,-1,28
 495 485 495 485 499.5 469.5 c 128,-1,29
 504 454 504 454 505 449 c 1,30,-1
 680 570 l 1,31,32
 657 641 657 641 597 678 c 128,-1,33
 537 715 537 715 449 715 c 0,34,35
 370 715 370 715 301 685.5 c 128,-1,36
 232 656 232 656 178 606.5 c 128,-1,37
 124 557 124 557 87 491.5 c 128,-1,38
 50 426 50 426 35 355 c 0,39,40
 20 287 20 287 27.5 222 c 128,-1,41
 35 157 35 157 66 106.5 c 128,-1,42
 97 56 97 56 152 25.5 c 128,-1,43
 207 -5 207 -5 287 -5 c 0,0,1
EndSplineSet
Substitution2: "'ss11' Style Set 11 lookup 42 subtable" G.ss11
Substitution2: "'aalt' Access All Alternates lookup 0 subtable" G.ss11
EndChar

StartChar: H
Encoding: 72 72 43
Width: 724
GlyphClass: 1
Flags: W
LayerCount: 2
Fore
SplineSet
-3 0 m 1,0,-1
 192 0 l 1,1,-1
 251 278 l 1,2,-1
 463 278 l 1,3,-1
 404 0 l 1,4,-1
 599 0 l 1,5,-1
 750 710 l 1,6,-1
 555 710 l 1,7,-1
 499 448 l 1,8,-1
 287 448 l 1,9,-1
 343 710 l 1,10,-1
 148 710 l 1,11,-1
 -3 0 l 1,0,-1
EndSplineSet
EndChar

StartChar: I
Encoding: 73 73 44
Width: 317
GlyphClass: 1
Flags: W
LayerCount: 2
Fore
SplineSet
-3 0 m 1,0,-1
 192 0 l 1,1,-1
 343 710 l 1,2,-1
 148 710 l 1,3,-1
 -3 0 l 1,0,-1
EndSplineSet
EndChar

StartChar: J
Encoding: 74 74 45
Width: 589
GlyphClass: 2
Flags: W
LayerCount: 2
Fore
SplineSet
162 253 m 1,0,1
 167 239 167 239 174 224 c 128,-1,2
 181 209 181 209 191 196.5 c 128,-1,3
 201 184 201 184 214 176 c 128,-1,4
 227 168 227 168 245 168 c 0,5,6
 265 168 265 168 279 177.5 c 128,-1,7
 293 187 293 187 302.5 202 c 128,-1,8
 312 217 312 217 318 235 c 128,-1,9
 324 253 324 253 327 269 c 2,10,-1
 416 710 l 1,11,-1
 610 710 l 1,12,-1
 518 254 l 2,13,14
 507 199 507 199 479 151.5 c 128,-1,15
 451 104 451 104 410.5 69 c 128,-1,16
 370 34 370 34 318.5 14 c 128,-1,17
 267 -6 267 -6 210 -6 c 0,18,19
 166 -6 166 -6 130 8 c 128,-1,20
 94 22 94 22 67 47.5 c 128,-1,21
 40 73 40 73 21.5 108 c 128,-1,22
 3 143 3 143 -6 184 c 1,23,-1
 162 253 l 1,0,1
EndSplineSet
EndChar

StartChar: K
Encoding: 75 75 46
Width: 665
GlyphClass: 1
Flags: W
LayerCount: 2
Fore
SplineSet
-3 0 m 1,0,-1
 192 0 l 1,1,-1
 236 205 l 1,2,-1
 292 261 l 1,3,-1
 396 0 l 1,4,-1
 621 0 l 1,5,-1
 444 392 l 1,6,-1
 755 710 l 1,7,-1
 534 710 l 1,8,-1
 286 440 l 1,9,-1
 343 710 l 1,10,-1
 148 710 l 1,11,-1
 -3 0 l 1,0,-1
EndSplineSet
EndChar

StartChar: L
Encoding: 76 76 47
Width: 564
GlyphClass: 1
Flags: W
LayerCount: 2
Fore
SplineSet
-3 0 m 1,0,-1
 491 0 l 1,1,-1
 527 170 l 1,2,-1
 228 170 l 1,3,-1
 343 710 l 1,4,-1
 148 710 l 1,5,-1
 -3 0 l 1,0,-1
EndSplineSet
EndChar

StartChar: M
Encoding: 77 77 48
Width: 820
GlyphClass: 1
Flags: W
LayerCount: 2
Fore
SplineSet
-3 0 m 1,0,-1
 192 0 l 1,1,-1
 272 374 l 1,2,-1
 318 111 l 1,3,-1
 421 111 l 1,4,-1
 579 374 l 1,5,-1
 500 0 l 1,6,-1
 695 0 l 1,7,-1
 846 710 l 1,8,-1
 634 710 l 1,9,-1
 426 376 l 1,10,-1
 361 710 l 1,11,-1
 148 710 l 1,12,-1
 -3 0 l 1,0,-1
EndSplineSet
EndChar

StartChar: N
Encoding: 78 78 49
Width: 725
GlyphClass: 1
Flags: W
LayerCount: 2
Fore
SplineSet
-3 0 m 1,0,-1
 192 0 l 1,1,-1
 266 349 l 1,2,-1
 446 0 l 1,3,-1
 600 0 l 1,4,-1
 751 710 l 1,5,-1
 556 710 l 1,6,-1
 480 349 l 1,7,-1
 300 710 l 1,8,-1
 148 710 l 1,9,-1
 -3 0 l 1,0,-1
EndSplineSet
EndChar

StartChar: O
Encoding: 79 79 50
Width: 738
GlyphClass: 1
Flags: W
LayerCount: 2
Fore
SplineSet
303 -6 m 0,0,1
 389 -6 389 -6 467 30 c 128,-1,2
 545 66 545 66 604 125 c 128,-1,3
 663 184 663 184 698 260 c 128,-1,4
 733 336 733 336 733 416 c 0,5,6
 733 474 733 474 715 527.5 c 128,-1,7
 697 581 697 581 662.5 622.5 c 128,-1,8
 628 664 628 664 577 689 c 128,-1,9
 526 714 526 714 460 714 c 0,10,11
 374 714 374 714 295.5 678.5 c 128,-1,12
 217 643 217 643 157.5 584 c 128,-1,13
 98 525 98 525 63 449 c 128,-1,14
 28 373 28 373 28 292 c 0,15,16
 28 234 28 234 46 180 c 128,-1,17
 64 126 64 126 99 85 c 128,-1,18
 134 44 134 44 185.5 19 c 128,-1,19
 237 -6 237 -6 303 -6 c 0,0,1
341 167 m 0,20,21
 311 167 311 167 289.5 178.5 c 128,-1,22
 268 190 268 190 254.5 209.5 c 128,-1,23
 241 229 241 229 234.5 254 c 128,-1,24
 228 279 228 279 228 307 c 0,25,26
 228 346 228 346 240.5 387.5 c 128,-1,27
 253 429 253 429 277 463 c 128,-1,28
 301 497 301 497 337 519 c 128,-1,29
 373 541 373 541 420 541 c 0,30,31
 450 541 450 541 472 530 c 128,-1,32
 494 519 494 519 507.5 500 c 128,-1,33
 521 481 521 481 527.5 456 c 128,-1,34
 534 431 534 431 534 403 c 0,35,36
 534 364 534 364 522 322.5 c 128,-1,37
 510 281 510 281 485.5 246.5 c 128,-1,38
 461 212 461 212 425 189.5 c 128,-1,39
 389 167 389 167 341 167 c 0,20,21
EndSplineSet
Substitution2: "Single Substitution lookup 46 subtable" ordmasculine
Substitution2: "'aalt' Access All Alternates lookup 0 subtable" ordmasculine
EndChar

StartChar: P
Encoding: 80 80 51
Width: 602
GlyphClass: 1
Flags: W
LayerCount: 2
Fore
SplineSet
-3 0 m 1,0,-1
 192 0 l 1,1,-1
 238 218 l 1,2,-1
 340 218 l 2,3,4
 398 218 398 218 449 243.5 c 128,-1,5
 500 269 500 269 538.5 309.5 c 128,-1,6
 577 350 577 350 599.5 401.5 c 128,-1,7
 622 453 622 453 622 505 c 0,8,9
 622 544 622 544 609.5 581 c 128,-1,10
 597 618 597 618 573.5 646.5 c 128,-1,11
 550 675 550 675 516.5 692.5 c 128,-1,12
 483 710 483 710 440 710 c 2,13,-1
 148 710 l 1,14,-1
 -3 0 l 1,0,-1
275 388 m 1,15,-1
 307 540 l 1,16,-1
 390 540 l 2,17,18
 396 540 396 540 401.5 537.5 c 128,-1,19
 407 535 407 535 411.5 529 c 128,-1,20
 416 523 416 523 419 513.5 c 128,-1,21
 422 504 422 504 422 489 c 0,22,23
 422 463 422 463 416 444 c 128,-1,24
 410 425 410 425 401.5 412.5 c 128,-1,25
 393 400 393 400 382.5 394 c 128,-1,26
 372 388 372 388 363 388 c 2,27,-1
 275 388 l 1,15,-1
EndSplineSet
EndChar

StartChar: Q
Encoding: 81 81 52
Width: 738
GlyphClass: 1
Flags: W
LayerCount: 2
Fore
SplineSet
303 -6 m 0,0,1
 389 -6 389 -6 467 30 c 128,-1,2
 545 66 545 66 604 125 c 128,-1,3
 663 184 663 184 698 260 c 128,-1,4
 733 336 733 336 733 416 c 0,5,6
 733 474 733 474 715 527.5 c 128,-1,7
 697 581 697 581 662.5 622.5 c 128,-1,8
 628 664 628 664 577 689 c 128,-1,9
 526 714 526 714 460 714 c 0,10,11
 374 714 374 714 295.5 678.5 c 128,-1,12
 217 643 217 643 157.5 584 c 128,-1,13
 98 525 98 525 63 449 c 128,-1,14
 28 373 28 373 28 292 c 0,15,16
 28 234 28 234 46 180 c 128,-1,17
 64 126 64 126 99 85 c 128,-1,18
 134 44 134 44 185.5 19 c 128,-1,19
 237 -6 237 -6 303 -6 c 0,0,1
341 167 m 0,20,21
 311 167 311 167 289.5 178.5 c 128,-1,22
 268 190 268 190 254.5 209.5 c 128,-1,23
 241 229 241 229 234.5 254 c 128,-1,24
 228 279 228 279 228 307 c 0,25,26
 228 346 228 346 240.5 387.5 c 128,-1,27
 253 429 253 429 277 463 c 128,-1,28
 301 497 301 497 337 519 c 128,-1,29
 373 541 373 541 420 541 c 0,30,31
 450 541 450 541 472 530 c 128,-1,32
 494 519 494 519 507.5 500 c 128,-1,33
 521 481 521 481 527.5 456 c 128,-1,34
 534 431 534 431 534 403 c 0,35,36
 534 364 534 364 522 322.5 c 128,-1,37
 510 281 510 281 485.5 246.5 c 128,-1,38
 461 212 461 212 425 189.5 c 128,-1,39
 389 167 389 167 341 167 c 0,20,21
550 -30 m 1,40,-1
 659 62 l 1,41,-1
 440 354 l 1,42,-1
 333 262 l 1,43,-1
 550 -30 l 1,40,-1
EndSplineSet
EndChar

StartChar: R
Encoding: 82 82 53
Width: 653
GlyphClass: 1
Flags: W
LayerCount: 2
Fore
SplineSet
192 0 m 1,0,-1
 238 218 l 1,1,-1
 297 218 l 1,2,-1
 366 0 l 1,3,-1
 586 0 l 1,4,-1
 501 261 l 1,5,6
 533 282 533 282 559 309.5 c 128,-1,7
 585 337 585 337 603.5 369 c 128,-1,8
 622 401 622 401 632 435.5 c 128,-1,9
 642 470 642 470 642 505 c 0,10,11
 642 544 642 544 629.5 581 c 128,-1,12
 617 618 617 618 594 646.5 c 128,-1,13
 571 675 571 675 537 692.5 c 128,-1,14
 503 710 503 710 460 710 c 2,15,-1
 148 710 l 1,16,-1
 -3 0 l 1,17,-1
 192 0 l 1,0,-1
275 388 m 1,18,-1
 307 540 l 1,19,-1
 410 540 l 2,20,21
 416 540 416 540 421.5 536.5 c 128,-1,22
 427 533 427 533 431.5 526 c 128,-1,23
 436 519 436 519 438.5 508.5 c 128,-1,24
 441 498 441 498 441 485 c 0,25,26
 441 464 441 464 435 446 c 128,-1,27
 429 428 429 428 420 415 c 128,-1,28
 411 402 411 402 401 395 c 128,-1,29
 391 388 391 388 383 388 c 2,30,-1
 275 388 l 1,18,-1
EndSplineSet
EndChar

StartChar: S
Encoding: 83 83 54
Width: 596
GlyphClass: 1
Flags: W
LayerCount: 2
Fore
SplineSet
245 -9 m 0,0,1
 299 -9 299 -9 354.5 5 c 128,-1,2
 410 19 410 19 455 51 c 128,-1,3
 500 83 500 83 528.5 134.5 c 128,-1,4
 557 186 557 186 557 262 c 0,5,6
 557 299 557 299 545.5 326 c 128,-1,7
 534 353 534 353 512.5 373 c 128,-1,8
 491 393 491 393 461.5 408.5 c 128,-1,9
 432 424 432 424 396 437 c 0,10,11
 372 446 372 446 352.5 452.5 c 128,-1,12
 333 459 333 459 319 466 c 128,-1,13
 305 473 305 473 297.5 481 c 128,-1,14
 290 489 290 489 290 501 c 0,15,16
 290 512 290 512 294 520 c 128,-1,17
 298 528 298 528 305.5 533 c 128,-1,18
 313 538 313 538 322.5 540.5 c 128,-1,19
 332 543 332 543 343 543 c 0,20,21
 373 543 373 543 403 533 c 128,-1,22
 433 523 433 523 456.5 510.5 c 128,-1,23
 480 498 480 498 494.5 488 c 128,-1,24
 509 478 509 478 507 478 c 1,25,-1
 625 639 l 1,26,27
 605 651 605 651 579 664.5 c 128,-1,28
 553 678 553 678 522.5 689.5 c 128,-1,29
 492 701 492 701 457.5 708.5 c 128,-1,30
 423 716 423 716 386 716 c 0,31,32
 329 716 329 716 273.5 697 c 128,-1,33
 218 678 218 678 174 642 c 128,-1,34
 130 606 130 606 103 553.5 c 128,-1,35
 76 501 76 501 76 434 c 0,36,37
 76 406 76 406 84 382.5 c 128,-1,38
 92 359 92 359 108.5 340 c 128,-1,39
 125 321 125 321 149.5 305.5 c 128,-1,40
 174 290 174 290 207 277 c 0,41,42
 232 267 232 267 255.5 259.5 c 128,-1,43
 279 252 279 252 297 244 c 128,-1,44
 315 236 315 236 326 227 c 128,-1,45
 337 218 337 218 337 204 c 0,46,47
 337 197 337 197 335 190.5 c 128,-1,48
 333 184 333 184 327.5 178.5 c 128,-1,49
 322 173 322 173 312 170 c 128,-1,50
 302 167 302 167 285 167 c 0,51,52
 246 167 246 167 209.5 179 c 128,-1,53
 173 191 173 191 145.5 206 c 128,-1,54
 118 221 118 221 102 233 c 128,-1,55
 86 245 86 245 87 245 c 1,56,-1
 -33 74 l 1,57,58
 -6 55 -6 55 27 40 c 128,-1,59
 60 25 60 25 96 14 c 128,-1,60
 132 3 132 3 170 -3 c 128,-1,61
 208 -9 208 -9 245 -9 c 0,0,1
EndSplineSet
EndChar

StartChar: T
Encoding: 84 84 55
Width: 600
GlyphClass: 1
Flags: W
LayerCount: 2
Fore
SplineSet
139 0 m 1,0,-1
 334 0 l 1,1,-1
 449 540 l 1,2,-1
 639 540 l 1,3,-1
 675 710 l 1,4,-1
 99 710 l 1,5,-1
 63 540 l 1,6,-1
 254 540 l 1,7,-1
 139 0 l 1,0,-1
EndSplineSet
EndChar

StartChar: U
Encoding: 85 85 56
Width: 713
GlyphClass: 1
Flags: W
LayerCount: 2
Fore
SplineSet
291 -6 m 0,0,1
 369 -6 369 -6 432.5 21 c 128,-1,2
 496 48 496 48 544 95.5 c 128,-1,3
 592 143 592 143 624 207 c 128,-1,4
 656 271 656 271 672 345 c 2,5,-1
 750 710 l 1,6,-1
 555 710 l 1,7,-1
 477 345 l 2,8,9
 470 311 470 311 457 278.5 c 128,-1,10
 444 246 444 246 425 221.5 c 128,-1,11
 406 197 406 197 382 182 c 128,-1,12
 358 167 358 167 328 167 c 0,13,14
 306 167 306 167 291 175 c 128,-1,15
 276 183 276 183 266 197.5 c 128,-1,16
 256 212 256 212 251.5 231.5 c 128,-1,17
 247 251 247 251 247 274 c 0,18,19
 247 291 247 291 249 308.5 c 128,-1,20
 251 326 251 326 255 345 c 2,21,-1
 333 710 l 1,22,-1
 138 710 l 1,23,-1
 60 345 l 2,24,25
 54 317 54 317 51 290.5 c 128,-1,26
 48 264 48 264 48 238 c 0,27,28
 48 186 48 186 61.5 141.5 c 128,-1,29
 75 97 75 97 104.5 64 c 128,-1,30
 134 31 134 31 180 12.5 c 128,-1,31
 226 -6 226 -6 291 -6 c 0,0,1
EndSplineSet
EndChar

StartChar: V
Encoding: 86 86 57
Width: 641
GlyphClass: 1
Flags: W
LayerCount: 2
Fore
SplineSet
173 0 m 1,0,-1
 335 0 l 1,1,-1
 731 710 l 1,2,-1
 526 710 l 1,3,-1
 306 245 l 1,4,-1
 282 710 l 1,5,-1
 76 710 l 1,6,-1
 173 0 l 1,0,-1
EndSplineSet
EndChar

StartChar: W
Encoding: 87 87 58
Width: 991
GlyphClass: 1
Flags: W
LayerCount: 2
Fore
SplineSet
138 0 m 1,0,-1
 306 0 l 1,1,-1
 523 429 l 1,2,-1
 581 1 l 1,3,-1
 747 1 l 1,4,-1
 1065 710 l 1,5,-1
 887 710 l 1,6,-1
 693 245 l 1,7,-1
 666 709 l 1,8,-1
 489 709 l 1,9,-1
 286 243 l 1,10,-1
 267 709 l 1,11,-1
 88 709 l 1,12,-1
 138 0 l 1,0,-1
EndSplineSet
Substitution2: "'ss09' Style Set 9 lookup 40 subtable" W.ss09
Substitution2: "'aalt' Access All Alternates lookup 0 subtable" W.ss09
EndChar

StartChar: X
Encoding: 88 88 59
Width: 631
GlyphClass: 1
Flags: W
LayerCount: 2
Fore
SplineSet
-66 0 m 1,0,-1
 145 0 l 1,1,-1
 297 214 l 1,2,-1
 358 0 l 1,3,-1
 568 0 l 1,4,-1
 428 350 l 1,5,-1
 727 710 l 1,6,-1
 517 710 l 1,7,-1
 355 486 l 1,8,-1
 288 710 l 1,9,-1
 77 710 l 1,10,-1
 223 350 l 1,11,-1
 -66 0 l 1,0,-1
EndSplineSet
EndChar

StartChar: Y
Encoding: 89 89 60
Width: 627
GlyphClass: 1
Flags: W
LayerCount: 2
Fore
SplineSet
147 0 m 1,0,-1
 341 0 l 1,1,-1
 391 235 l 1,2,-1
 723 710 l 1,3,-1
 511 710 l 1,4,-1
 330 403 l 1,5,-1
 283 710 l 1,6,-1
 72 710 l 1,7,-1
 198 237 l 1,8,-1
 147 0 l 1,0,-1
EndSplineSet
EndChar

StartChar: Z
Encoding: 90 90 61
Width: 593
GlyphClass: 1
Flags: W
LayerCount: 2
Fore
SplineSet
-37 0 m 1,0,-1
 498 0 l 1,1,-1
 534 170 l 1,2,-1
 244 170 l 1,3,-1
 612 565 l 1,4,-1
 643 710 l 1,5,-1
 129 710 l 1,6,-1
 93 540 l 1,7,-1
 381 540 l 1,8,-1
 -6 145 l 1,9,-1
 -37 0 l 1,0,-1
EndSplineSet
EndChar

StartChar: bracketleft
Encoding: 91 91 62
Width: 346
GlyphClass: 1
Flags: W
LayerCount: 2
Fore
SplineSet
233 -40 m 1,0,-1
 264 110 l 1,1,-1
 197 110 l 1,2,-1
 299 590 l 1,3,-1
 366 590 l 1,4,-1
 398 740 l 1,5,-1
 156 740 l 1,6,-1
 -10 -40 l 1,7,-1
 233 -40 l 1,0,-1
EndSplineSet
EndChar

StartChar: backslash
Encoding: 92 92 63
Width: 663
GlyphClass: 1
Flags: W
LayerCount: 2
Fore
SplineSet
106 710 m 1,0,-1
 369 0 l 1,1,-1
 578 0 l 1,2,-1
 316 710 l 1,3,-1
 106 710 l 1,0,-1
EndSplineSet
EndChar

StartChar: bracketright
Encoding: 93 93 64
Width: 347
GlyphClass: 1
Flags: W
LayerCount: 2
Fore
SplineSet
212 -40 m 1,0,-1
 377 740 l 1,1,-1
 135 740 l 1,2,-1
 103 590 l 1,3,-1
 171 590 l 1,4,-1
 69 110 l 1,5,-1
 1 110 l 1,6,-1
 -31 -40 l 1,7,-1
 212 -40 l 1,0,-1
EndSplineSet
EndChar

StartChar: asciicircum
Encoding: 94 94 65
Width: 630
GlyphClass: 1
Flags: W
LayerCount: 2
Fore
SplineSet
195 303 m 1,0,-1
 321 556 l 1,1,-1
 444 303 l 1,2,-1
 597 303 l 1,3,-1
 400 710 l 1,4,-1
 242 710 l 1,5,-1
 44 303 l 1,6,-1
 195 303 l 1,0,-1
EndSplineSet
EndChar

StartChar: underscore
Encoding: 95 95 66
Width: 423
GlyphClass: 1
Flags: W
LayerCount: 2
Fore
SplineSet
278 -170 m 1,0,-1
 314 0 l 1,1,-1
 -19 0 l 1,2,-1
 -55 -170 l 1,3,-1
 278 -170 l 1,0,-1
EndSplineSet
EndChar

StartChar: a
Encoding: 97 97 68
Width: 627
GlyphClass: 1
Flags: W
LayerCount: 2
Fore
SplineSet
193 -10 m 0,0,1
 241 -10 241 -10 276.5 9.5 c 128,-1,2
 312 29 312 29 341 69 c 1,3,-1
 326 0 l 1,4,-1
 515 0 l 1,5,-1
 625 518 l 1,6,-1
 435 518 l 1,7,-1
 420 448 l 1,8,9
 408 490 408 490 373.5 513 c 128,-1,10
 339 536 339 536 290 536 c 0,11,12
 234 536 234 536 182.5 509.5 c 128,-1,13
 131 483 131 483 92 437 c 128,-1,14
 53 391 53 391 30 331 c 128,-1,15
 7 271 7 271 7 203 c 0,16,17
 7 156 7 156 20 116.5 c 128,-1,18
 33 77 33 77 57 49 c 128,-1,19
 81 21 81 21 115.5 5.5 c 128,-1,20
 150 -10 150 -10 193 -10 c 0,0,1
278 150 m 0,21,22
 262 150 262 150 248.5 156 c 128,-1,23
 235 162 235 162 226 173 c 128,-1,24
 217 184 217 184 212 199.5 c 128,-1,25
 207 215 207 215 207 234 c 0,26,27
 207 261 207 261 216.5 287 c 128,-1,28
 226 313 226 313 242 332.5 c 128,-1,29
 258 352 258 352 277.5 364 c 128,-1,30
 297 376 297 376 318 376 c 0,31,32
 331 376 331 376 343 370.5 c 128,-1,33
 355 365 355 365 364 355 c 128,-1,34
 373 345 373 345 379.5 330.5 c 128,-1,35
 386 316 386 316 389 298 c 1,36,-1
 369 204 l 1,37,38
 357 191 357 191 346 180.5 c 128,-1,39
 335 170 335 170 324 163.5 c 128,-1,40
 313 157 313 157 301.5 153.5 c 128,-1,41
 290 150 290 150 278 150 c 0,21,22
EndSplineSet
Substitution2: "Single Substitution lookup 46 subtable" ordfeminine
Substitution2: "'ss02' Style Set 2 lookup 33 subtable" a.ss02
Substitution2: "'ss01' Style Set 1 lookup 32 subtable" a.ss01
Substitution2: "'salt' Stylistic Alternatives lookup 31 subtable" a.ss01
AlternateSubs2: "'aalt' Access All Alternates lookup 1 subtable" ordfeminine a.ss01 a.ss02
EndChar

StartChar: b
Encoding: 98 98 69
Width: 627
GlyphClass: 1
Flags: W
LayerCount: 2
Fore
SplineSet
305 -10 m 0,0,1
 364 -10 364 -10 418 16 c 128,-1,2
 472 42 472 42 513.5 87.5 c 128,-1,3
 555 133 555 133 579.5 194 c 128,-1,4
 604 255 604 255 604 325 c 0,5,6
 604 371 604 371 593 410 c 128,-1,7
 582 449 582 449 560.5 477 c 128,-1,8
 539 505 539 505 507.5 520.5 c 128,-1,9
 476 536 476 536 436 536 c 0,10,11
 386 536 386 536 341.5 512.5 c 128,-1,12
 297 489 297 489 269 448 c 1,13,-1
 329 730 l 1,14,-1
 139 730 l 1,15,-1
 -16 0 l 1,16,-1
 149 0 l 1,17,-1
 166 82 l 1,18,19
 173 60 173 60 185 42.5 c 128,-1,20
 197 25 197 25 214.5 13.5 c 128,-1,21
 232 2 232 2 255 -4 c 128,-1,22
 278 -10 278 -10 305 -10 c 0,0,1
287 150 m 0,23,24
 274 150 274 150 264 153.5 c 128,-1,25
 254 157 254 157 245.5 163.5 c 128,-1,26
 237 170 237 170 230.5 180.5 c 128,-1,27
 224 191 224 191 217 204 c 1,28,-1
 237 298 l 1,29,30
 247 315 247 315 259.5 329.5 c 128,-1,31
 272 344 272 344 285.5 354.5 c 128,-1,32
 299 365 299 365 313.5 370.5 c 128,-1,33
 328 376 328 376 341 376 c 0,34,35
 356 376 356 376 367.5 369.5 c 128,-1,36
 379 363 379 363 387 351 c 128,-1,37
 395 339 395 339 399.5 322.5 c 128,-1,38
 404 306 404 306 404 287 c 0,39,40
 404 258 404 258 394.5 233 c 128,-1,41
 385 208 385 208 369 189.5 c 128,-1,42
 353 171 353 171 332 160.5 c 128,-1,43
 311 150 311 150 287 150 c 0,23,24
EndSplineSet
EndChar

StartChar: c
Encoding: 99 99 70
Width: 555
GlyphClass: 1
Flags: W
LayerCount: 2
Fore
SplineSet
232 -10 m 0,0,1
 278 -10 278 -10 318.5 0.5 c 128,-1,2
 359 11 359 11 394 30 c 128,-1,3
 429 49 429 49 458 75.5 c 128,-1,4
 487 102 487 102 509 133 c 1,5,-1
 336 189 l 1,6,7
 328 180 328 180 319.5 172.5 c 128,-1,8
 311 165 311 165 302 160 c 128,-1,9
 293 155 293 155 284 152.5 c 128,-1,10
 275 150 275 150 265 150 c 0,11,12
 251 150 251 150 240 155.5 c 128,-1,13
 229 161 229 161 221 171.5 c 128,-1,14
 213 182 213 182 208.5 197.5 c 128,-1,15
 204 213 204 213 204 232 c 0,16,17
 204 264 204 264 213 290.5 c 128,-1,18
 222 317 222 317 237.5 336 c 128,-1,19
 253 355 253 355 272.5 365.5 c 128,-1,20
 292 376 292 376 313 376 c 0,21,22
 333 376 333 376 346.5 366 c 128,-1,23
 360 356 360 356 368 337 c 1,24,-1
 565 393 l 1,25,26
 547 456 547 456 494 496 c 128,-1,27
 441 536 441 536 348 536 c 0,28,29
 270 536 270 536 207 508 c 128,-1,30
 144 480 144 480 99 434.5 c 128,-1,31
 54 389 54 389 30 330.5 c 128,-1,32
 6 272 6 272 6 211 c 0,33,34
 6 166 6 166 20 126 c 128,-1,35
 34 86 34 86 62 56 c 128,-1,36
 90 26 90 26 132.5 8 c 128,-1,37
 175 -10 175 -10 232 -10 c 0,0,1
EndSplineSet
EndChar

StartChar: d
Encoding: 100 100 71
Width: 627
GlyphClass: 1
Flags: W
LayerCount: 2
Fore
SplineSet
193 -10 m 0,0,1
 217 -10 217 -10 238 -5 c 128,-1,2
 259 0 259 0 277 9.5 c 128,-1,3
 295 19 295 19 310.5 34 c 128,-1,4
 326 49 326 49 341 69 c 1,5,-1
 326 0 l 1,6,-1
 515 0 l 1,7,-1
 670 730 l 1,8,-1
 480 730 l 1,9,-1
 420 448 l 1,10,11
 414 469 414 469 402.5 485 c 128,-1,12
 391 501 391 501 374 512.5 c 128,-1,13
 357 524 357 524 335.5 530 c 128,-1,14
 314 536 314 536 290 536 c 0,15,16
 234 536 234 536 183 509.5 c 128,-1,17
 132 483 132 483 93 437 c 128,-1,18
 54 391 54 391 30.5 330.5 c 128,-1,19
 7 270 7 270 7 202 c 0,20,21
 7 155 7 155 20 116 c 128,-1,22
 33 77 33 77 57 49 c 128,-1,23
 81 21 81 21 115.5 5.5 c 128,-1,24
 150 -10 150 -10 193 -10 c 0,0,1
278 150 m 0,25,26
 262 150 262 150 248.5 156 c 128,-1,27
 235 162 235 162 226 173 c 128,-1,28
 217 184 217 184 212 199.5 c 128,-1,29
 207 215 207 215 207 234 c 0,30,31
 207 261 207 261 216.5 287 c 128,-1,32
 226 313 226 313 242 332.5 c 128,-1,33
 258 352 258 352 277.5 364 c 128,-1,34
 297 376 297 376 318 376 c 0,35,36
 332 376 332 376 343.5 370.5 c 128,-1,37
 355 365 355 365 364.5 355 c 128,-1,38
 374 345 374 345 380.5 330.5 c 128,-1,39
 387 316 387 316 390 298 c 1,40,-1
 370 204 l 1,41,42
 358 191 358 191 346.5 180.5 c 128,-1,43
 335 170 335 170 324 163.5 c 128,-1,44
 313 157 313 157 302 153.5 c 128,-1,45
 291 150 291 150 278 150 c 0,25,26
EndSplineSet
Substitution2: "'ss03' Style Set 3 lookup 34 subtable" d.ss03
Substitution2: "'aalt' Access All Alternates lookup 0 subtable" d.ss03
EndChar

StartChar: e
Encoding: 101 101 72
Width: 566
GlyphClass: 1
Flags: W
LayerCount: 2
Fore
SplineSet
233 -10 m 0,0,1
 274 -10 274 -10 315 0 c 128,-1,2
 356 10 356 10 393.5 29 c 128,-1,3
 431 48 431 48 462.5 74 c 128,-1,4
 494 100 494 100 516 132 c 1,5,-1
 367 180 l 1,6,7
 359 167 359 167 348.5 157 c 128,-1,8
 338 147 338 147 325.5 140 c 128,-1,9
 313 133 313 133 299 129.5 c 128,-1,10
 285 126 285 126 269 126 c 0,11,12
 252 126 252 126 239.5 130.5 c 128,-1,13
 227 135 227 135 219.5 144 c 128,-1,14
 212 153 212 153 208.5 167.5 c 128,-1,15
 205 182 205 182 205 203 c 0,16,17
 205 244 205 244 214 280 c 128,-1,18
 223 316 223 316 239 343 c 128,-1,19
 255 370 255 370 275.5 385.5 c 128,-1,20
 296 401 296 401 320 401 c 0,21,22
 331 401 331 401 340.5 398 c 128,-1,23
 350 395 350 395 357 390 c 128,-1,24
 364 385 364 385 367.5 378 c 128,-1,25
 371 371 371 371 371 362 c 0,26,27
 371 350 371 350 364 341.5 c 128,-1,28
 357 333 357 333 340.5 327.5 c 128,-1,29
 324 322 324 322 297.5 320 c 128,-1,30
 271 318 271 318 233 318 c 0,31,32
 202 318 202 318 174 319.5 c 128,-1,33
 146 321 146 321 120 324 c 1,34,-1
 96 211 l 1,35,36
 131 207 131 207 166.5 205.5 c 128,-1,37
 202 204 202 204 234 204 c 0,38,39
 394 204 394 204 475.5 249 c 128,-1,40
 557 294 557 294 557 383 c 0,41,42
 557 419 557 419 543 447.5 c 128,-1,43
 529 476 529 476 503 495.5 c 128,-1,44
 477 515 477 515 439.5 525.5 c 128,-1,45
 402 536 402 536 354 536 c 0,46,47
 282 536 282 536 218.5 511 c 128,-1,48
 155 486 155 486 108 442 c 128,-1,49
 61 398 61 398 34 339.5 c 128,-1,50
 7 281 7 281 7 213 c 0,51,52
 7 162 7 162 23 121 c 128,-1,53
 39 80 39 80 68.5 51 c 128,-1,54
 98 22 98 22 140 6 c 128,-1,55
 182 -10 182 -10 233 -10 c 0,0,1
EndSplineSet
EndChar

StartChar: f
Encoding: 102 102 73
Width: 394
GlyphClass: 1
Flags: W
LayerCount: 2
Fore
SplineSet
-28 -213 m 1,0,-1
 162 -213 l 1,1,-1
 276 322 l 1,2,-1
 383 322 l 1,3,-1
 414 465 l 1,4,-1
 306 465 l 1,5,-1
 320 529 l 2,6,7
 325 555 325 555 338 567.5 c 128,-1,8
 351 580 351 580 371 580 c 0,9,10
 385 580 385 580 403 576 c 128,-1,11
 421 572 421 572 435 566 c 1,12,-1
 497 710 l 1,13,14
 461 725 461 725 427.5 732.5 c 128,-1,15
 394 740 394 740 362 740 c 0,16,17
 320 740 320 740 282.5 724.5 c 128,-1,18
 245 709 245 709 214 680.5 c 128,-1,19
 183 652 183 652 161.5 612 c 128,-1,20
 140 572 140 572 129 522 c 2,21,-1
 117 465 l 1,22,-1
 56 465 l 1,23,-1
 25 322 l 1,24,-1
 86 322 l 1,25,-1
 -28 -213 l 1,0,-1
EndSplineSet
EndChar

StartChar: g
Encoding: 103 103 74
Width: 626
GlyphClass: 1
Flags: W
LayerCount: 2
Fore
SplineSet
159 -223 m 0,0,1
 229 -223 229 -223 290 -203.5 c 128,-1,2
 351 -184 351 -184 399 -149 c 128,-1,3
 447 -114 447 -114 479.5 -64 c 128,-1,4
 512 -14 512 -14 525 48 c 2,5,-1
 627 526 l 1,6,-1
 462 526 l 1,7,-1
 445 448 l 1,8,9
 438 469 438 469 425.5 485.5 c 128,-1,10
 413 502 413 502 395.5 513.5 c 128,-1,11
 378 525 378 525 355.5 530.5 c 128,-1,12
 333 536 333 536 307 536 c 0,13,14
 247 536 247 536 192.5 510 c 128,-1,15
 138 484 138 484 97 439 c 128,-1,16
 56 394 56 394 32 333.5 c 128,-1,17
 8 273 8 273 8 204 c 0,18,19
 8 160 8 160 19 122.5 c 128,-1,20
 30 85 30 85 51.5 58 c 128,-1,21
 73 31 73 31 104.5 15.5 c 128,-1,22
 136 0 136 0 176 0 c 0,23,24
 200 0 200 0 223 5 c 128,-1,25
 246 10 246 10 268 20.5 c 128,-1,26
 290 31 290 31 308.5 46 c 128,-1,27
 327 61 327 61 342 82 c 1,28,-1
 335 48 l 2,29,30
 328 13 328 13 313 -12 c 128,-1,31
 298 -37 298 -37 278.5 -52.5 c 128,-1,32
 259 -68 259 -68 235.5 -75 c 128,-1,33
 212 -82 212 -82 188 -82 c 0,34,35
 146 -82 146 -82 112 -63.5 c 128,-1,36
 78 -45 78 -45 57 -18 c 1,37,-1
 -65 -122 l 1,38,39
 -47 -146 -47 -146 -24.5 -165 c 128,-1,40
 -2 -184 -2 -184 25.5 -197 c 128,-1,41
 53 -210 53 -210 86.5 -216.5 c 128,-1,42
 120 -223 120 -223 159 -223 c 0,0,1
277 150 m 0,43,44
 261 150 261 150 247.5 156 c 128,-1,45
 234 162 234 162 225 173 c 128,-1,46
 216 184 216 184 211 199.5 c 128,-1,47
 206 215 206 215 206 233 c 0,48,49
 206 261 206 261 215.5 286.5 c 128,-1,50
 225 312 225 312 241 332 c 128,-1,51
 257 352 257 352 276.5 364 c 128,-1,52
 296 376 296 376 317 376 c 0,53,54
 330 376 330 376 342 370.5 c 128,-1,55
 354 365 354 365 363 355 c 128,-1,56
 372 345 372 345 378.5 330.5 c 128,-1,57
 385 316 385 316 388 298 c 1,58,-1
 368 204 l 1,59,60
 356 191 356 191 345 180.5 c 128,-1,61
 334 170 334 170 322.5 163.5 c 128,-1,62
 311 157 311 157 300 153.5 c 128,-1,63
 289 150 289 150 277 150 c 0,43,44
EndSplineSet
EndChar

StartChar: h
Encoding: 104 104 75
Width: 601
GlyphClass: 1
Flags: W
LayerCount: 2
Fore
SplineSet
-16 0 m 1,0,-1
 174 0 l 1,1,-1
 237 295 l 1,2,3
 247 312 247 312 259.5 326 c 128,-1,4
 272 340 272 340 285 350 c 128,-1,5
 298 360 298 360 310 365 c 128,-1,6
 322 370 322 370 329 370 c 0,7,8
 347 370 347 370 358.5 359 c 128,-1,9
 370 348 370 348 370 323 c 0,10,11
 370 317 370 317 369.5 310.5 c 128,-1,12
 369 304 369 304 367 296 c 2,13,-1
 304 0 l 1,14,-1
 494 0 l 1,15,-1
 567 346 l 2,16,17
 571 363 571 363 573.5 382 c 128,-1,18
 576 401 576 401 576 420 c 0,19,20
 576 443 576 443 570.5 463.5 c 128,-1,21
 565 484 565 484 551 500.5 c 128,-1,22
 537 517 537 517 513 526.5 c 128,-1,23
 489 536 489 536 451 536 c 0,24,25
 425 536 425 536 400 530.5 c 128,-1,26
 375 525 375 525 351.5 513.5 c 128,-1,27
 328 502 328 502 307.5 485.5 c 128,-1,28
 287 469 287 469 269 448 c 1,29,-1
 329 730 l 1,30,-1
 139 730 l 1,31,-1
 -16 0 l 1,0,-1
EndSplineSet
EndChar

StartChar: k
Encoding: 107 107 78
Width: 582
GlyphClass: 1
Flags: W
LayerCount: 2
Fore
SplineSet
309 0 m 1,0,-1
 509 0 l 1,1,-1
 432 189 l 1,2,3
 494 227 494 227 528 283.5 c 128,-1,4
 562 340 562 340 562 407 c 0,5,6
 562 467 562 467 532 499 c 128,-1,7
 502 531 502 531 447 531 c 0,8,9
 416 531 416 531 386.5 520.5 c 128,-1,10
 357 510 357 510 330.5 489 c 128,-1,11
 304 468 304 468 281 437 c 128,-1,12
 258 406 258 406 239 365 c 1,13,-1
 209 197 l 1,14,15
 217 231 217 231 232 262 c 128,-1,16
 247 293 247 293 266.5 317 c 128,-1,17
 286 341 286 341 307.5 355 c 128,-1,18
 329 369 329 369 349 369 c 0,19,20
 368 369 368 369 380 356.5 c 128,-1,21
 392 344 392 344 392 324 c 0,22,23
 392 286 392 286 349.5 257 c 128,-1,24
 307 228 307 228 235 215 c 1,25,-1
 309 0 l 1,0,-1
-16 0 m 1,26,-1
 172 0 l 1,27,-1
 327 730 l 1,28,-1
 139 730 l 1,29,-1
 -16 0 l 1,26,-1
EndSplineSet
EndChar

StartChar: l
Encoding: 108 108 79
Width: 345
GlyphClass: 1
Flags: W
LayerCount: 2
Fore
SplineSet
132 -10 m 0,0,1
 169 -10 169 -10 213 -1 c 128,-1,2
 257 8 257 8 293 24 c 1,3,-1
 299 164 l 1,4,5
 286 157 286 157 272 153 c 128,-1,6
 258 149 258 149 247 149 c 0,7,8
 229 149 229 149 220 158.5 c 128,-1,9
 211 168 211 168 211 187 c 0,10,11
 211 192 211 192 211.5 197.5 c 128,-1,12
 212 203 212 203 214 209 c 2,13,-1
 325 730 l 1,14,-1
 135 730 l 1,15,-1
 10 142 l 2,16,17
 7 130 7 130 6 119 c 128,-1,18
 5 108 5 108 5 97 c 0,19,20
 5 45 5 45 37 17.5 c 128,-1,21
 69 -10 69 -10 132 -10 c 0,0,1
EndSplineSet
Substitution2: "'ss05' Style Set 5 lookup 36 subtable" l.ss05
Substitution2: "'aalt' Access All Alternates lookup 0 subtable" l.ss05
EndChar

StartChar: m
Encoding: 109 109 80
Width: 903
GlyphClass: 1
Flags: W
LayerCount: 2
Fore
SplineSet
-16 0 m 1,0,-1
 174 0 l 1,1,-1
 237 295 l 1,2,3
 245 310 245 310 256.5 324 c 128,-1,4
 268 338 268 338 280.5 348 c 128,-1,5
 293 358 293 358 305.5 364 c 128,-1,6
 318 370 318 370 328 370 c 0,7,8
 342 370 342 370 351.5 359 c 128,-1,9
 361 348 361 348 361 325 c 0,10,11
 361 319 361 319 360.5 311.5 c 128,-1,12
 360 304 360 304 358 296 c 2,13,-1
 295 0 l 1,14,-1
 485 0 l 1,15,-1
 547 295 l 1,16,17
 556 311 556 311 567.5 324.5 c 128,-1,18
 579 338 579 338 591.5 348 c 128,-1,19
 604 358 604 358 616.5 364 c 128,-1,20
 629 370 629 370 639 370 c 0,21,22
 652 370 652 370 661.5 359 c 128,-1,23
 671 348 671 348 671 325 c 0,24,25
 671 319 671 319 670.5 311.5 c 128,-1,26
 670 304 670 304 668 296 c 2,27,-1
 605 0 l 1,28,-1
 795 0 l 1,29,-1
 869 346 l 2,30,31
 875 375 875 375 876.5 393 c 128,-1,32
 878 411 878 411 878 420 c 0,33,34
 878 442 878 442 873 463 c 128,-1,35
 868 484 868 484 854.5 500 c 128,-1,36
 841 516 841 516 818.5 526 c 128,-1,37
 796 536 796 536 760 536 c 0,38,39
 732 536 732 536 705 530 c 128,-1,40
 678 524 678 524 653 512 c 128,-1,41
 628 500 628 500 606 483 c 128,-1,42
 584 466 584 466 566 445 c 1,43,44
 564 463 564 463 558 479.5 c 128,-1,45
 552 496 552 496 538.5 508.5 c 128,-1,46
 525 521 525 521 502.5 528.5 c 128,-1,47
 480 536 480 536 447 536 c 0,48,49
 390 536 390 536 337.5 513.5 c 128,-1,50
 285 491 285 491 250 448 c 1,51,-1
 267 526 l 1,52,-1
 96 526 l 1,53,-1
 -16 0 l 1,0,-1
EndSplineSet
EndChar

StartChar: n
Encoding: 110 110 81
Width: 601
GlyphClass: 1
Flags: W
LayerCount: 2
Fore
SplineSet
-16 0 m 1,0,-1
 174 0 l 1,1,-1
 237 295 l 1,2,3
 246 312 246 312 258.5 325.5 c 128,-1,4
 271 339 271 339 283.5 349 c 128,-1,5
 296 359 296 359 308.5 364.5 c 128,-1,6
 321 370 321 370 331 370 c 0,7,8
 347 370 347 370 358.5 358.5 c 128,-1,9
 370 347 370 347 370 322 c 0,10,11
 370 316 370 316 369.5 310 c 128,-1,12
 369 304 369 304 367 296 c 2,13,-1
 304 0 l 1,14,-1
 494 0 l 1,15,-1
 567 346 l 2,16,17
 570 362 570 362 572.5 380 c 128,-1,18
 575 398 575 398 575 417 c 0,19,20
 575 440 575 440 570 461 c 128,-1,21
 565 482 565 482 551.5 499 c 128,-1,22
 538 516 538 516 514.5 526 c 128,-1,23
 491 536 491 536 455 536 c 0,24,25
 423 536 423 536 393.5 530.5 c 128,-1,26
 364 525 364 525 338 513.5 c 128,-1,27
 312 502 312 502 290 485.5 c 128,-1,28
 268 469 268 469 250 448 c 1,29,-1
 267 526 l 1,30,-1
 96 526 l 1,31,-1
 -16 0 l 1,0,-1
EndSplineSet
EndChar

StartChar: o
Encoding: 111 111 82
Width: 596
GlyphClass: 1
Flags: W
LayerCount: 2
Fore
SplineSet
240 -10 m 0,0,1
 318 -10 318 -10 379.5 16.5 c 128,-1,2
 441 43 441 43 484 88 c 128,-1,3
 527 133 527 133 550 191.5 c 128,-1,4
 573 250 573 250 573 313 c 0,5,6
 573 359 573 359 560 399.5 c 128,-1,7
 547 440 547 440 519 470.5 c 128,-1,8
 491 501 491 501 447 518.5 c 128,-1,9
 403 536 403 536 340 536 c 0,10,11
 262 536 262 536 200.5 509.5 c 128,-1,12
 139 483 139 483 96 438.5 c 128,-1,13
 53 394 53 394 30 335.5 c 128,-1,14
 7 277 7 277 7 214 c 0,15,16
 7 168 7 168 20 127 c 128,-1,17
 33 86 33 86 61 55.5 c 128,-1,18
 89 25 89 25 133 7.5 c 128,-1,19
 177 -10 177 -10 240 -10 c 0,0,1
267 150 m 0,20,21
 252 150 252 150 240.5 155.5 c 128,-1,22
 229 161 229 161 221 172 c 128,-1,23
 213 183 213 183 209 198.5 c 128,-1,24
 205 214 205 214 205 234 c 0,25,26
 205 264 205 264 214 290 c 128,-1,27
 223 316 223 316 238 335 c 128,-1,28
 253 354 253 354 272.5 365 c 128,-1,29
 292 376 292 376 313 376 c 0,30,31
 328 376 328 376 339.5 370.5 c 128,-1,32
 351 365 351 365 359 354 c 128,-1,33
 367 343 367 343 371 327.5 c 128,-1,34
 375 312 375 312 375 292 c 0,35,36
 375 262 375 262 366 236 c 128,-1,37
 357 210 357 210 342 191 c 128,-1,38
 327 172 327 172 307.5 161 c 128,-1,39
 288 150 288 150 267 150 c 0,20,21
EndSplineSet
Substitution2: "Single Substitution lookup 46 subtable" ordmasculine
Substitution2: "'aalt' Access All Alternates lookup 0 subtable" ordmasculine
EndChar

StartChar: p
Encoding: 112 112 83
Width: 626
GlyphClass: 1
Flags: W
LayerCount: 2
Fore
SplineSet
-62 -213 m 1,0,-1
 128 -213 l 1,1,-1
 190 78 l 1,2,3
 196 57 196 57 207.5 40.5 c 128,-1,4
 219 24 219 24 236 12.5 c 128,-1,5
 253 1 253 1 275 -4.5 c 128,-1,6
 297 -10 297 -10 324 -10 c 0,7,8
 378 -10 378 -10 428.5 17 c 128,-1,9
 479 44 479 44 518 89.5 c 128,-1,10
 557 135 557 135 580 196 c 128,-1,11
 603 257 603 257 603 324 c 0,12,13
 603 370 603 370 590.5 409 c 128,-1,14
 578 448 578 448 554.5 476 c 128,-1,15
 531 504 531 504 497.5 520 c 128,-1,16
 464 536 464 536 422 536 c 0,17,18
 394 536 394 536 369 530 c 128,-1,19
 344 524 344 524 322 513 c 128,-1,20
 300 502 300 502 280.5 485 c 128,-1,21
 261 468 261 468 243 447 c 1,22,-1
 260 526 l 1,23,-1
 95 526 l 1,24,-1
 -62 -213 l 1,0,-1
292 150 m 0,25,26
 279 150 279 150 267.5 156 c 128,-1,27
 256 162 256 162 246.5 173 c 128,-1,28
 237 184 237 184 231 199 c 128,-1,29
 225 214 225 214 222 231 c 1,30,-1
 242 322 l 1,31,32
 254 336 254 336 265 346 c 128,-1,33
 276 356 276 356 287 362.5 c 128,-1,34
 298 369 298 369 309 372.5 c 128,-1,35
 320 376 320 376 332 376 c 0,36,37
 349 376 349 376 362.5 370 c 128,-1,38
 376 364 376 364 385 353 c 128,-1,39
 394 342 394 342 399 327 c 128,-1,40
 404 312 404 312 404 293 c 0,41,42
 404 265 404 265 394.5 239 c 128,-1,43
 385 213 385 213 369 193.5 c 128,-1,44
 353 174 353 174 333 162 c 128,-1,45
 313 150 313 150 292 150 c 0,25,26
EndSplineSet
EndChar

StartChar: q
Encoding: 113 113 84
Width: 626
GlyphClass: 1
Flags: W
LayerCount: 2
Fore
SplineSet
279 -214 m 1,0,-1
 469 -214 l 1,1,-1
 626 526 l 1,2,-1
 461 526 l 1,3,-1
 444 445 l 1,4,5
 435 466 435 466 423 483 c 128,-1,6
 411 500 411 500 393.5 512 c 128,-1,7
 376 524 376 524 354 530 c 128,-1,8
 332 536 332 536 304 536 c 0,9,10
 246 536 246 536 192 510 c 128,-1,11
 138 484 138 484 97 438.5 c 128,-1,12
 56 393 56 393 31.5 332 c 128,-1,13
 7 271 7 271 7 200 c 0,14,15
 7 154 7 154 18.5 115.5 c 128,-1,16
 30 77 30 77 51 49 c 128,-1,17
 72 21 72 21 102 5.5 c 128,-1,18
 132 -10 132 -10 169 -10 c 0,19,20
 223 -10 223 -10 267.5 12.5 c 128,-1,21
 312 35 312 35 341 78 c 1,22,-1
 279 -214 l 1,0,-1
278 150 m 0,23,24
 261 150 261 150 247.5 156 c 128,-1,25
 234 162 234 162 224.5 173 c 128,-1,26
 215 184 215 184 210 199.5 c 128,-1,27
 205 215 205 215 205 234 c 0,28,29
 205 262 205 262 214.5 287.5 c 128,-1,30
 224 313 224 313 239.5 332.5 c 128,-1,31
 255 352 255 352 275.5 364 c 128,-1,32
 296 376 296 376 317 376 c 0,33,34
 330 376 330 376 341.5 370.5 c 128,-1,35
 353 365 353 365 362.5 354.5 c 128,-1,36
 372 344 372 344 378.5 329.5 c 128,-1,37
 385 315 385 315 388 298 c 1,38,-1
 368 204 l 1,39,40
 356 191 356 191 345 180.5 c 128,-1,41
 334 170 334 170 322.5 163.5 c 128,-1,42
 311 157 311 157 300 153.5 c 128,-1,43
 289 150 289 150 278 150 c 0,23,24
EndSplineSet
Substitution2: "'ss06' Style Set 6 lookup 37 subtable" q.ss06
Substitution2: "'aalt' Access All Alternates lookup 0 subtable" q.ss06
EndChar

StartChar: r
Encoding: 114 114 85
Width: 408
GlyphClass: 1
Flags: W
LayerCount: 2
Fore
SplineSet
-16 0 m 1,0,-1
 174 0 l 1,1,-1
 240 312 l 1,2,3
 267 340 267 340 312 352 c 128,-1,4
 357 364 357 364 408 364 c 1,5,-1
 444 535 l 2,6,7
 441 536 441 536 437 536 c 128,-1,8
 433 536 433 536 422 536 c 0,9,10
 377 536 377 536 331.5 507.5 c 128,-1,11
 286 479 286 479 248 426 c 1,12,-1
 270 526 l 1,13,-1
 96 526 l 1,14,-1
 -16 0 l 1,0,-1
EndSplineSet
EndChar

StartChar: s
Encoding: 115 115 86
Width: 485
GlyphClass: 1
Flags: W
LayerCount: 2
Fore
SplineSet
191 -10 m 0,0,1
 247 -10 247 -10 293 5 c 128,-1,2
 339 20 339 20 372 47 c 128,-1,3
 405 74 405 74 423 112 c 128,-1,4
 441 150 441 150 441 196 c 0,5,6
 441 220 441 220 432.5 239.5 c 128,-1,7
 424 259 424 259 404.5 275.5 c 128,-1,8
 385 292 385 292 355 306 c 128,-1,9
 325 320 325 320 281 333 c 0,10,11
 263 338 263 338 251.5 343 c 128,-1,12
 240 348 240 348 232.5 352.5 c 128,-1,13
 225 357 225 357 222 362.5 c 128,-1,14
 219 368 219 368 219 374 c 0,15,16
 219 382 219 382 221.5 387.5 c 128,-1,17
 224 393 224 393 229 397.5 c 128,-1,18
 234 402 234 402 241 404 c 128,-1,19
 248 406 248 406 256 406 c 0,20,21
 282 406 282 406 309.5 392.5 c 128,-1,22
 337 379 337 379 379 347 c 1,23,-1
 474 461 l 1,24,25
 431 507 431 507 385 522 c 128,-1,26
 339 537 339 537 283 537 c 0,27,28
 232 537 232 537 187 520.5 c 128,-1,29
 142 504 142 504 108 475.5 c 128,-1,30
 74 447 74 447 54.5 408.5 c 128,-1,31
 35 370 35 370 35 326 c 0,32,33
 35 303 35 303 44 285 c 128,-1,34
 53 267 53 267 72.5 252 c 128,-1,35
 92 237 92 237 122 223 c 128,-1,36
 152 209 152 209 195 195 c 0,37,38
 211 190 211 190 222 185 c 128,-1,39
 233 180 233 180 239.5 174.5 c 128,-1,40
 246 169 246 169 248.5 164 c 128,-1,41
 251 159 251 159 251 153 c 0,42,43
 251 146 251 146 249 140.5 c 128,-1,44
 247 135 247 135 243 131 c 128,-1,45
 239 127 239 127 232 125 c 128,-1,46
 225 123 225 123 215 123 c 0,47,48
 180 123 180 123 140.5 141 c 128,-1,49
 101 159 101 159 61 192 c 1,50,-1
 -27 78 l 1,51,52
 8 35 8 35 66.5 12.5 c 128,-1,53
 125 -10 125 -10 191 -10 c 0,0,1
EndSplineSet
EndChar

StartChar: t
Encoding: 116 116 87
Width: 415
GlyphClass: 1
Flags: W
LayerCount: 2
Fore
SplineSet
45 96 m 0,0,1
 45 37 45 37 81.5 13 c 128,-1,2
 118 -11 118 -11 172 -11 c 0,3,4
 193 -11 193 -11 215 -8 c 128,-1,5
 237 -5 237 -5 260 0.5 c 128,-1,6
 283 6 283 6 306 13 c 128,-1,7
 329 20 329 20 351 29 c 1,8,-1
 349 179 l 1,9,10
 339 175 339 175 329.5 172 c 128,-1,11
 320 169 320 169 311.5 167 c 128,-1,12
 303 165 303 165 295.5 163.5 c 128,-1,13
 288 162 288 162 282 162 c 0,14,15
 268 162 268 162 260 168.5 c 128,-1,16
 252 175 252 175 252 191 c 0,17,18
 252 195 252 195 252.5 199.5 c 128,-1,19
 253 204 253 204 254 209 c 2,20,-1
 291 383 l 1,21,-1
 388 383 l 1,22,-1
 418 526 l 1,23,-1
 322 526 l 1,24,-1
 357 691 l 1,25,-1
 167 691 l 1,26,-1
 132 526 l 1,27,-1
 71 526 l 1,28,-1
 40 383 l 1,29,-1
 101 383 l 1,30,-1
 50 142 l 2,31,32
 47 129 47 129 46 118 c 128,-1,33
 45 107 45 107 45 96 c 0,0,1
EndSplineSet
Substitution2: "'ss07' Style Set 7 lookup 38 subtable" t.ss07
Substitution2: "'aalt' Access All Alternates lookup 0 subtable" t.ss07
EndChar

StartChar: u
Encoding: 117 117 88
Width: 600
GlyphClass: 1
Flags: W
LayerCount: 2
Fore
SplineSet
144 -10 m 0,0,1
 168 -10 168 -10 192 -6 c 128,-1,2
 216 -2 216 -2 239 7.5 c 128,-1,3
 262 17 262 17 283 32.5 c 128,-1,4
 304 48 304 48 321 70 c 1,5,-1
 306 0 l 1,6,-1
 488 0 l 1,7,-1
 600 526 l 1,8,-1
 410 526 l 1,9,-1
 342 204 l 1,10,11
 327 187 327 187 314 176.5 c 128,-1,12
 301 166 301 166 290 160 c 128,-1,13
 279 154 279 154 270.5 152 c 128,-1,14
 262 150 262 150 255 150 c 0,15,16
 235 150 235 150 224.5 162 c 128,-1,17
 214 174 214 174 214 196 c 0,18,19
 214 202 214 202 214.5 208.5 c 128,-1,20
 215 215 215 215 217 223 c 2,21,-1
 281 526 l 1,22,-1
 91 526 l 1,23,-1
 17 180 l 2,24,25
 13 161 13 161 11 144.5 c 128,-1,26
 9 128 9 128 9 113 c 0,27,28
 9 82 9 82 17.5 59 c 128,-1,29
 26 36 26 36 43 20.5 c 128,-1,30
 60 5 60 5 85.5 -2.5 c 128,-1,31
 111 -10 111 -10 144 -10 c 0,0,1
EndSplineSet
Substitution2: "'ss08' Style Set 8 lookup 39 subtable" u.ss08
Substitution2: "'aalt' Access All Alternates lookup 0 subtable" u.ss08
EndChar

StartChar: v
Encoding: 118 118 89
Width: 548
GlyphClass: 1
Flags: W
LayerCount: 2
Fore
SplineSet
96 0 m 1,0,-1
 311 0 l 1,1,-1
 594 526 l 1,2,-1
 405 526 l 1,3,-1
 240 149 l 1,4,-1
 240 526 l 1,5,-1
 43 526 l 1,6,-1
 96 0 l 1,0,-1
EndSplineSet
EndChar

StartChar: w
Encoding: 119 119 90
Width: 868
GlyphClass: 1
Flags: W
LayerCount: 2
Fore
SplineSet
56 520 m 1,0,-1
 111 0 l 1,1,-1
 304 0 l 1,2,-1
 432 275 l 1,3,-1
 432 0 l 1,4,-1
 636 0 l 1,5,-1
 908 520 l 1,6,-1
 736 520 l 1,7,-1
 566 171 l 1,8,-1
 566 520 l 1,9,-1
 402 520 l 1,10,-1
 255 172 l 1,11,-1
 232 520 l 1,12,-1
 56 520 l 1,0,-1
EndSplineSet
Substitution2: "'ss09' Style Set 9 lookup 40 subtable" w.ss09
Substitution2: "'aalt' Access All Alternates lookup 0 subtable" w.ss09
EndChar

StartChar: x
Encoding: 120 120 91
Width: 535
GlyphClass: 1
Flags: W
LayerCount: 2
Fore
SplineSet
-69 0 m 1,0,-1
 124 0 l 1,1,-1
 222 129 l 1,2,-1
 235 149 l 1,3,-1
 239 129 l 1,4,-1
 283 0 l 1,5,-1
 476 0 l 1,6,-1
 361 263 l 1,7,-1
 583 526 l 1,8,-1
 393 526 l 1,9,-1
 296 397 l 1,10,-1
 283 376 l 1,11,-1
 278 397 l 1,12,-1
 240 526 l 1,13,-1
 48 526 l 1,14,-1
 157 263 l 1,15,-1
 -69 0 l 1,0,-1
EndSplineSet
EndChar

StartChar: y
Encoding: 121 121 92
Width: 523
GlyphClass: 1
Flags: W
LayerCount: 2
Fore
SplineSet
107 0 m 1,0,1
 92 -27 92 -27 77 -53.5 c 128,-1,2
 62 -80 62 -80 46.5 -106.5 c 128,-1,3
 31 -133 31 -133 15 -159.5 c 128,-1,4
 -1 -186 -1 -186 -17 -213 c 1,5,-1
 205 -213 l 1,6,-1
 569 526 l 1,7,-1
 392 526 l 1,8,-1
 245 161 l 1,9,-1
 245 526 l 1,10,-1
 40 526 l 1,11,-1
 107 0 l 1,0,1
EndSplineSet
Substitution2: "'ss10' Style Set 10 lookup 41 subtable" y.ss10
Substitution2: "'aalt' Access All Alternates lookup 0 subtable" y.ss10
EndChar

StartChar: z
Encoding: 122 122 93
Width: 472
GlyphClass: 1
Flags: W
LayerCount: 2
Fore
SplineSet
-42 0 m 1,0,-1
 384 0 l 1,1,-1
 412 130 l 1,2,-1
 184 130 l 1,3,-1
 463 414 l 1,4,-1
 487 526 l 1,5,-1
 85 526 l 1,6,-1
 57 396 l 1,7,-1
 261 396 l 1,8,-1
 -18 112 l 1,9,-1
 -42 0 l 1,0,-1
EndSplineSet
EndChar

StartChar: braceleft
Encoding: 123 123 94
Width: 360
GlyphClass: 1
Flags: W
LayerCount: 2
Fore
SplineSet
377 590 m 1,0,-1
 409 740 l 1,1,-1
 209 740 l 2,2,3
 203 740 203 740 193.5 734 c 128,-1,4
 184 728 184 728 180 710 c 2,5,-1
 136 501 l 2,6,7
 133 487 133 487 124.5 473.5 c 128,-1,8
 116 460 116 460 105.5 449.5 c 128,-1,9
 95 439 95 439 83 432.5 c 128,-1,10
 71 426 71 426 61 426 c 1,11,-1
 34 296 l 1,12,13
 50 292 50 292 64 276.5 c 128,-1,14
 78 261 78 261 78 236 c 0,15,16
 78 231 78 231 77.5 227.5 c 128,-1,17
 77 224 77 224 76 219 c 2,18,-1
 29 -1 l 2,19,20
 28 -4 28 -4 28 -6.5 c 128,-1,21
 28 -9 28 -9 28 -11 c 0,22,23
 28 -24 28 -24 34 -27.5 c 128,-1,24
 40 -31 40 -31 45 -31 c 2,25,-1
 245 -31 l 1,26,-1
 277 119 l 1,27,-1
 225 119 l 1,28,-1
 260 284 l 2,29,30
 261 289 261 289 261.5 293 c 128,-1,31
 262 297 262 297 262 302 c 0,32,33
 262 321 262 321 253.5 335 c 128,-1,34
 245 349 245 349 236 360 c 1,35,36
 254 374 254 374 270 391 c 128,-1,37
 286 408 286 408 292 436 c 2,38,-1
 325 590 l 1,39,-1
 377 590 l 1,0,-1
EndSplineSet
EndChar

StartChar: bar
Encoding: 124 124 95
Width: 358
GlyphClass: 1
Flags: W
LayerCount: 2
Fore
SplineSet
264 -130 m 1,0,-1
 264 775 l 1,1,-1
 104 775 l 1,2,-1
 104 -130 l 1,3,-1
 264 -130 l 1,0,-1
EndSplineSet
EndChar

StartChar: braceright
Encoding: 125 125 96
Width: 364
GlyphClass: 1
Flags: W
LayerCount: 2
Fore
SplineSet
164 590 m 1,0,-1
 131 436 l 2,1,2
 129 431 129 431 129 426.5 c 128,-1,3
 129 422 129 422 129 417 c 0,4,5
 129 398 129 398 137 384.5 c 128,-1,6
 145 371 145 371 154 360 c 1,7,8
 137 346 137 346 120.5 328.5 c 128,-1,9
 104 311 104 311 98 284 c 2,10,-1
 63 119 l 1,11,-1
 11 119 l 1,12,-1
 -21 -31 l 1,13,-1
 179 -31 l 2,14,15
 184 -31 184 -31 194 -25.5 c 128,-1,16
 204 -20 204 -20 208 -1 c 2,17,-1
 254 219 l 2,18,19
 261 251 261 251 284.5 271 c 128,-1,20
 308 291 308 291 329 296 c 1,21,-1
 357 426 l 1,22,23
 339 426 339 426 325.5 444 c 128,-1,24
 312 462 312 462 312 486 c 0,25,26
 312 490 312 490 312.5 493.5 c 128,-1,27
 313 497 313 497 314 501 c 2,28,-1
 359 710 l 2,29,30
 360 713 360 713 360 715.5 c 128,-1,31
 360 718 360 718 360 720 c 0,32,33
 360 731 360 731 354 735.5 c 128,-1,34
 348 740 348 740 343 740 c 2,35,-1
 143 740 l 1,36,-1
 111 590 l 1,37,-1
 164 590 l 1,0,-1
EndSplineSet
EndChar

StartChar: asciitilde
Encoding: 126 126 97
Width: 587
GlyphClass: 1
Flags: W
LayerCount: 2
Fore
SplineSet
32 216 m 1,0,-1
 133 216 l 1,1,2
 133 217 133 217 134.5 224.5 c 128,-1,3
 136 232 136 232 142 241 c 128,-1,4
 148 250 148 250 161 257 c 128,-1,5
 174 264 174 264 197 264 c 0,6,7
 221 264 221 264 242.5 256.5 c 128,-1,8
 264 249 264 249 286.5 240 c 128,-1,9
 309 231 309 231 333 223.5 c 128,-1,10
 357 216 357 216 386 216 c 0,11,12
 435 216 435 216 467.5 237.5 c 128,-1,13
 500 259 500 259 519.5 287 c 128,-1,14
 539 315 539 315 547.5 340.5 c 128,-1,15
 556 366 556 366 556 374 c 1,16,-1
 456 374 l 1,17,18
 456 373 456 373 453.5 364.5 c 128,-1,19
 451 356 451 356 444 347 c 128,-1,20
 437 338 437 338 423.5 330.5 c 128,-1,21
 410 323 410 323 387 323 c 0,22,23
 363 323 363 323 342 331 c 128,-1,24
 321 339 321 339 299 348.5 c 128,-1,25
 277 358 277 358 252.5 366 c 128,-1,26
 228 374 228 374 198 374 c 0,27,28
 150 374 150 374 118.5 354 c 128,-1,29
 87 334 87 334 67.5 307.5 c 128,-1,30
 48 281 48 281 40 254.5 c 128,-1,31
 32 228 32 228 32 216 c 1,0,-1
EndSplineSet
EndChar

StartChar: exclamdown
Encoding: 161 161 99
Width: 330
GlyphClass: 1
Flags: W
LayerCount: 2
Fore
SplineSet
315 416 m 256,0,1
 320 439 320 439 315.5 459.5 c 128,-1,2
 311 480 311 480 299 495.5 c 128,-1,3
 287 511 287 511 268 520 c 128,-1,4
 249 529 249 529 226 529 c 256,5,6
 203 529 203 529 180.5 520 c 128,-1,7
 158 511 158 511 139 495.5 c 128,-1,8
 120 480 120 480 107 459.5 c 128,-1,9
 94 439 94 439 89 416 c 256,10,11
 84 393 84 393 88.5 372.5 c 128,-1,12
 93 352 93 352 105 336.5 c 128,-1,13
 117 321 117 321 136 312 c 128,-1,14
 155 303 155 303 178 303 c 256,15,16
 201 303 201 303 223.5 312 c 128,-1,17
 246 321 246 321 265 336.5 c 128,-1,18
 284 352 284 352 297 372.5 c 128,-1,19
 310 393 310 393 315 416 c 256,0,1
94 219 m 1,20,-1
 11 -31 l 1,21,-1
 -24 -198 l 1,22,-1
 166 -198 l 1,23,-1
 201 -31 l 1,24,-1
 224 219 l 1,25,-1
 94 219 l 1,20,-1
EndSplineSet
EndChar

StartChar: cent
Encoding: 162 162 100
Width: 599
GlyphClass: 1
Flags: W
LayerCount: 2
Fore
SplineSet
258 -120 m 1,0,-1
 282 -10 l 1,1,2
 305 -10 305 -10 337.5 -1 c 128,-1,3
 370 8 370 8 404.5 25.5 c 128,-1,4
 439 43 439 43 472 70 c 128,-1,5
 505 97 505 97 529 133 c 1,6,-1
 356 189 l 1,7,8
 352 184 352 184 348 179.5 c 128,-1,9
 344 175 344 175 339.5 170.5 c 128,-1,10
 335 166 335 166 329.5 162 c 128,-1,11
 324 158 324 158 317 155 c 1,12,-1
 363 370 l 1,13,14
 370 368 370 368 378 358.5 c 128,-1,15
 386 349 386 349 388 337 c 1,16,-1
 585 393 l 1,17,18
 564 463 564 463 511.5 497.5 c 128,-1,19
 459 532 459 532 397 534 c 1,20,-1
 421 645 l 1,21,-1
 342 645 l 1,22,-1
 318 534 l 1,23,24
 246 521 246 521 191.5 489.5 c 128,-1,25
 137 458 137 458 100 414.5 c 128,-1,26
 63 371 63 371 44 319 c 128,-1,27
 25 267 25 267 25 213 c 0,28,29
 25 172 25 172 37 133.5 c 128,-1,30
 49 95 49 95 72 64.5 c 128,-1,31
 95 34 95 34 128 14 c 128,-1,32
 161 -6 161 -6 203 -9 c 1,33,-1
 179 -120 l 1,34,-1
 258 -120 l 1,0,-1
222 226 m 0,35,36
 222 246 222 246 226.5 266.5 c 128,-1,37
 231 287 231 287 239.5 305.5 c 128,-1,38
 248 324 248 324 258.5 338.5 c 128,-1,39
 269 353 269 353 281 361 c 1,40,-1
 239 164 l 1,41,42
 235 169 235 169 231.5 176 c 128,-1,43
 228 183 228 183 226 191.5 c 128,-1,44
 224 200 224 200 223 208.5 c 128,-1,45
 222 217 222 217 222 226 c 0,35,36
EndSplineSet
EndChar

StartChar: sterling
Encoding: 163 163 101
Width: 566
GlyphClass: 1
Flags: W
LayerCount: 2
Fore
SplineSet
49 248 m 1,0,-1
 447 248 l 1,1,-1
 477 388 l 1,2,-1
 78 388 l 1,3,-1
 49 248 l 1,0,-1
19 -9 m 1,4,5
 58 3 58 3 97.5 10.5 c 128,-1,6
 137 18 137 18 164 18 c 0,7,8
 188 18 188 18 212 13 c 128,-1,9
 236 8 236 8 259.5 1.5 c 128,-1,10
 283 -5 283 -5 306 -10 c 128,-1,11
 329 -15 329 -15 351 -15 c 0,12,13
 380 -15 380 -15 414 -5.5 c 128,-1,14
 448 4 448 4 472 19 c 1,15,-1
 456 159 l 1,16,17
 438 152 438 152 424.5 149 c 128,-1,18
 411 146 411 146 395 146 c 0,19,20
 380 146 380 146 365 148.5 c 128,-1,21
 350 151 350 151 335 153.5 c 128,-1,22
 320 156 320 156 305.5 158.5 c 128,-1,23
 291 161 291 161 276 161 c 0,24,25
 260 161 260 161 242 157.5 c 128,-1,26
 224 154 224 154 198 146 c 1,27,28
 225 171 225 171 244.5 194 c 128,-1,29
 264 217 264 217 276 240.5 c 128,-1,30
 288 264 288 264 293.5 288.5 c 128,-1,31
 299 313 299 313 299 340 c 0,32,33
 299 362 299 362 296 383 c 128,-1,34
 293 404 293 404 290 423 c 128,-1,35
 287 442 287 442 284 459.5 c 128,-1,36
 281 477 281 477 281 492 c 0,37,38
 281 508 281 508 285.5 521 c 128,-1,39
 290 534 290 534 298.5 543 c 128,-1,40
 307 552 307 552 319 557 c 128,-1,41
 331 562 331 562 345 562 c 0,42,43
 375 562 375 562 407.5 542 c 128,-1,44
 440 522 440 522 458 493 c 1,45,-1
 578 610 l 1,46,47
 547 660 547 660 494.5 687.5 c 128,-1,48
 442 715 442 715 378 715 c 0,49,50
 327 715 327 715 279.5 698 c 128,-1,51
 232 681 232 681 196 651.5 c 128,-1,52
 160 622 160 622 138 582 c 128,-1,53
 116 542 116 542 116 495 c 0,54,55
 116 474 116 474 119 452.5 c 128,-1,56
 122 431 122 431 125 408.5 c 128,-1,57
 128 386 128 386 131 364.5 c 128,-1,58
 134 343 134 343 134 322 c 0,59,60
 134 293 134 293 123 263.5 c 128,-1,61
 112 234 112 234 94.5 208 c 128,-1,62
 77 182 77 182 55 160.5 c 128,-1,63
 33 139 33 139 10 125 c 1,64,-1
 19 -9 l 1,4,5
EndSplineSet
EndChar

StartChar: currency
Encoding: 164 164 102
Width: 586
GlyphClass: 1
Flags: W
LayerCount: 2
Fore
SplineSet
131 578 m 1,0,-1
 60 507 l 1,1,-1
 125 441 l 1,2,3
 111 418 111 418 104 392 c 128,-1,4
 97 366 97 366 97 338 c 0,5,6
 97 309 97 309 104.5 282.5 c 128,-1,7
 112 256 112 256 126 233 c 1,8,-1
 60 167 l 1,9,-1
 126 101 l 1,10,-1
 198 169 l 1,11,12
 220 158 220 158 246 152.5 c 128,-1,13
 272 147 272 147 303 147 c 0,14,15
 333 147 333 147 358.5 152 c 128,-1,16
 384 157 384 157 405 168 c 1,17,-1
 476 101 l 1,18,-1
 542 167 l 1,19,-1
 478 231 l 1,20,21
 493 254 493 254 501 281.5 c 128,-1,22
 509 309 509 309 509 338 c 256,23,24
 509 367 509 367 501 394 c 128,-1,25
 493 421 493 421 479 444 c 1,26,-1
 542 507 l 1,27,-1
 471 578 l 1,28,-1
 403 509 l 1,29,30
 382 518 382 518 357 523.5 c 128,-1,31
 332 529 332 529 303 529 c 0,32,33
 273 529 273 529 247.5 523.5 c 128,-1,34
 222 518 222 518 200 507 c 1,35,-1
 131 578 l 1,0,-1
230 338 m 256,36,37
 230 356 230 356 235.5 371 c 128,-1,38
 241 386 241 386 250.5 396 c 128,-1,39
 260 406 260 406 273.5 411.5 c 128,-1,40
 287 417 287 417 303 417 c 256,41,42
 319 417 319 417 332.5 411.5 c 128,-1,43
 346 406 346 406 355.5 396 c 128,-1,44
 365 386 365 386 370.5 371 c 128,-1,45
 376 356 376 356 376 338 c 256,46,47
 376 320 376 320 370.5 305 c 128,-1,48
 365 290 365 290 355.5 280 c 128,-1,49
 346 270 346 270 332.5 264.5 c 128,-1,50
 319 259 319 259 303 259 c 256,51,52
 287 259 287 259 273.5 264.5 c 128,-1,53
 260 270 260 270 250.5 280 c 128,-1,54
 241 290 241 290 235.5 305 c 128,-1,55
 230 320 230 320 230 338 c 256,36,37
EndSplineSet
EndChar

StartChar: yen
Encoding: 165 165 103
Width: 717
GlyphClass: 1
Flags: W
LayerCount: 2
Fore
SplineSet
767 710 m 1,0,-1
 555 710 l 1,1,-1
 375 403 l 1,2,-1
 327 710 l 1,3,-1
 116 710 l 1,4,-1
 187 432 l 1,5,-1
 126 432 l 1,6,-1
 101 312 l 1,7,-1
 222 312 l 1,8,-1
 242 237 l 1,9,-1
 235 202 l 1,10,-1
 77 202 l 1,11,-1
 51 82 l 1,12,-1
 209 82 l 1,13,-1
 192 0 l 1,14,-1
 386 0 l 1,15,-1
 403 82 l 1,16,-1
 563 82 l 1,17,-1
 588 202 l 1,18,-1
 429 202 l 1,19,-1
 436 235 l 1,20,-1
 490 312 l 1,21,-1
 611 312 l 1,22,-1
 636 432 l 1,23,-1
 577 432 l 1,24,-1
 767 710 l 1,0,-1
EndSplineSet
EndChar

StartChar: brokenbar
Encoding: 166 166 104
Width: 350
GlyphClass: 1
Flags: W
LayerCount: 2
Fore
SplineSet
100 254 m 1,0,-1
 100 -130 l 1,1,-1
 260 -130 l 1,2,-1
 260 254 l 1,3,-1
 100 254 l 1,0,-1
100 775 m 1,4,-1
 100 391 l 1,5,-1
 260 391 l 1,6,-1
 260 775 l 1,7,-1
 100 775 l 1,4,-1
EndSplineSet
EndChar

StartChar: section
Encoding: 167 167 105
Width: 535
GlyphClass: 1
Flags: W
LayerCount: 2
Fore
SplineSet
457 232 m 0,0,1
 459 236 459 236 464 246 c 128,-1,2
 469 256 469 256 474.5 270 c 128,-1,3
 480 284 480 284 484.5 301.5 c 128,-1,4
 489 319 489 319 489 338 c 0,5,6
 489 378 489 378 472 405.5 c 128,-1,7
 455 433 455 433 428 450 c 128,-1,8
 401 467 401 467 368 475 c 128,-1,9
 335 483 335 483 303 484 c 0,10,11
 292 485 292 485 283 488.5 c 128,-1,12
 274 492 274 492 274 506 c 0,13,14
 274 516 274 516 277 523.5 c 128,-1,15
 280 531 280 531 285.5 536.5 c 128,-1,16
 291 542 291 542 299.5 544.5 c 128,-1,17
 308 547 308 547 319 547 c 0,18,19
 333 547 333 547 343 543 c 128,-1,20
 353 539 353 539 360 532.5 c 128,-1,21
 367 526 367 526 371.5 517.5 c 128,-1,22
 376 509 376 509 379 500 c 1,23,-1
 538 568 l 1,24,25
 530 587 530 587 516 612 c 128,-1,26
 502 637 502 637 479 660 c 128,-1,27
 456 683 456 683 422.5 699 c 128,-1,28
 389 715 389 715 342 715 c 0,29,30
 288 715 288 715 240 694 c 128,-1,31
 192 673 192 673 156.5 639.5 c 128,-1,32
 121 606 121 606 100 563.5 c 128,-1,33
 79 521 79 521 79 477 c 0,34,35
 79 452 79 452 83 433 c 128,-1,36
 87 414 87 414 90 406 c 0,37,38
 89 401 89 401 84.5 393.5 c 128,-1,39
 80 386 80 386 74.5 374.5 c 128,-1,40
 69 363 69 363 65 346 c 128,-1,41
 61 329 61 329 61 305 c 0,42,43
 61 275 61 275 71 248 c 128,-1,44
 81 221 81 221 102 200.5 c 128,-1,45
 123 180 123 180 155.5 167 c 128,-1,46
 188 154 188 154 233 150 c 0,47,48
 238 150 238 150 242.5 149 c 128,-1,49
 247 148 247 148 250.5 146 c 128,-1,50
 254 144 254 144 256.5 140.5 c 128,-1,51
 259 137 259 137 259 131 c 0,52,53
 259 122 259 122 255.5 114.5 c 128,-1,54
 252 107 252 107 245 102 c 128,-1,55
 238 97 238 97 229.5 94.5 c 128,-1,56
 221 92 221 92 210 92 c 0,57,58
 188 92 188 92 167.5 103 c 128,-1,59
 147 114 147 114 130 143 c 1,60,-1
 -16 27 l 1,61,62
 -10 14 -10 14 6 -5.5 c 128,-1,63
 22 -25 22 -25 47 -43.5 c 128,-1,64
 72 -62 72 -62 105.5 -75 c 128,-1,65
 139 -88 139 -88 180 -88 c 0,66,67
 219 -88 219 -88 268.5 -74.5 c 128,-1,68
 318 -61 318 -61 361.5 -30 c 128,-1,69
 405 1 405 1 434.5 51.5 c 128,-1,70
 464 102 464 102 464 176 c 0,71,72
 464 194 464 194 462 209 c 128,-1,73
 460 224 460 224 457 232 c 0,0,1
243 307 m 0,74,75
 243 317 243 317 247 325 c 128,-1,76
 251 333 251 333 256 337 c 1,77,78
 254 337 254 337 262 335 c 128,-1,79
 270 333 270 333 279 333 c 0,80,81
 283 333 283 333 287.5 331.5 c 128,-1,82
 292 330 292 330 295.5 327 c 128,-1,83
 299 324 299 324 301.5 319 c 128,-1,84
 304 314 304 314 304 307 c 0,85,86
 304 299 304 299 300.5 290.5 c 128,-1,87
 297 282 297 282 291 277 c 1,88,89
 286 279 286 279 277.5 280 c 128,-1,90
 269 281 269 281 261.5 283.5 c 128,-1,91
 254 286 254 286 248.5 291 c 128,-1,92
 243 296 243 296 243 307 c 0,74,75
EndSplineSet
EndChar

StartChar: copyright
Encoding: 169 169 107
Width: 862
GlyphClass: 1
Flags: W
LayerCount: 2
Fore
SplineSet
438 -7 m 0,0,1
 522 -7 522 -7 594 20.5 c 128,-1,2
 666 48 666 48 718 96.5 c 128,-1,3
 770 145 770 145 799.5 211 c 128,-1,4
 829 277 829 277 829 355 c 0,5,6
 829 432 829 432 799.5 498 c 128,-1,7
 770 564 770 564 718 612 c 128,-1,8
 666 660 666 660 594 687.5 c 128,-1,9
 522 715 522 715 438 715 c 0,10,11
 356 715 356 715 286 687.5 c 128,-1,12
 216 660 216 660 165 612 c 128,-1,13
 114 564 114 564 85.5 498 c 128,-1,14
 57 432 57 432 57 355 c 0,15,16
 57 277 57 277 85.5 211 c 128,-1,17
 114 145 114 145 165 96.5 c 128,-1,18
 216 48 216 48 286 20.5 c 128,-1,19
 356 -7 356 -7 438 -7 c 0,0,1
438 57 m 0,20,21
 371 57 371 57 314 80 c 128,-1,22
 257 103 257 103 215.5 143.5 c 128,-1,23
 174 184 174 184 150.5 238.5 c 128,-1,24
 127 293 127 293 127 355 c 256,25,26
 127 417 127 417 150.5 470.5 c 128,-1,27
 174 524 174 524 216 564.5 c 128,-1,28
 258 605 258 605 315 628 c 128,-1,29
 372 651 372 651 438 651 c 0,30,31
 507 651 507 651 566 628 c 128,-1,32
 625 605 625 605 667.5 564.5 c 128,-1,33
 710 524 710 524 734.5 470.5 c 128,-1,34
 759 417 759 417 759 355 c 0,35,36
 759 289 759 289 734 234 c 128,-1,37
 709 179 709 179 666 140 c 128,-1,38
 623 101 623 101 564.5 79 c 128,-1,39
 506 57 506 57 438 57 c 0,20,21
448 111 m 0,40,41
 494 111 494 111 532.5 121.5 c 128,-1,42
 571 132 571 132 602 151 c 128,-1,43
 633 170 633 170 656.5 196.5 c 128,-1,44
 680 223 680 223 695 254 c 1,45,-1
 510 310 l 1,46,47
 504 301 504 301 497.5 293.5 c 128,-1,48
 491 286 491 286 483 281 c 128,-1,49
 475 276 475 276 466 273.5 c 128,-1,50
 457 271 457 271 447 271 c 0,51,52
 432 271 432 271 418.5 276.5 c 128,-1,53
 405 282 405 282 395.5 292.5 c 128,-1,54
 386 303 386 303 380 318.5 c 128,-1,55
 374 334 374 334 374 354 c 256,56,57
 374 374 374 374 380 389.5 c 128,-1,58
 386 405 386 405 395.5 415.5 c 128,-1,59
 405 426 405 426 418.5 431.5 c 128,-1,60
 432 437 432 437 447 437 c 0,61,62
 457 437 457 437 466 434.5 c 128,-1,63
 475 432 475 432 483 427 c 128,-1,64
 491 422 491 422 497.5 414.5 c 128,-1,65
 504 407 504 407 510 398 c 1,66,-1
 695 454 l 1,67,68
 664 517 664 517 602 557 c 128,-1,69
 540 597 540 597 448 597 c 0,70,71
 383 597 383 597 332.5 577 c 128,-1,72
 282 557 282 557 248 523.5 c 128,-1,73
 214 490 214 490 196.5 446 c 128,-1,74
 179 402 179 402 179 354 c 256,75,76
 179 306 179 306 196.5 262 c 128,-1,77
 214 218 214 218 248 184.5 c 128,-1,78
 282 151 282 151 332.5 131 c 128,-1,79
 383 111 383 111 448 111 c 0,40,41
EndSplineSet
EndChar

StartChar: ordfeminine
Encoding: 170 170 108
Width: 434
GlyphClass: 1
Flags: W
LayerCount: 2
Fore
SplineSet
155 333 m 0,0,1
 187 333 187 333 218 349.5 c 128,-1,2
 249 366 249 366 278 398 c 1,3,-1
 268 343 l 1,4,-1
 376 343 l 1,5,6
 376 345 376 345 380.5 366.5 c 128,-1,7
 385 388 385 388 390 414 c 128,-1,8
 395 440 395 440 400 462.5 c 128,-1,9
 405 485 405 485 405 487 c 2,10,-1
 420 558 l 2,11,12
 422 570 422 570 423.5 581 c 128,-1,13
 425 592 425 592 425 603 c 0,14,15
 425 659 425 659 389.5 687 c 128,-1,16
 354 715 354 715 285 715 c 0,17,18
 241 715 241 715 201.5 703.5 c 128,-1,19
 162 692 162 692 124 668 c 1,20,-1
 144 586 l 1,21,22
 174 606 174 606 199.5 616 c 128,-1,23
 225 626 225 626 254 626 c 0,24,25
 277 626 277 626 287 617.5 c 128,-1,26
 297 609 297 609 297 592 c 0,27,28
 297 588 297 588 296.5 583.5 c 128,-1,29
 296 579 296 579 295 574 c 2,30,-1
 293 563 l 1,31,32
 282 570 282 570 267 573.5 c 128,-1,33
 252 577 252 577 233 577 c 0,34,35
 197 577 197 577 166 565.5 c 128,-1,36
 135 554 135 554 111.5 534 c 128,-1,37
 88 514 88 514 74.5 487 c 128,-1,38
 61 460 61 460 61 428 c 0,39,40
 61 386 61 386 86.5 359.5 c 128,-1,41
 112 333 112 333 155 333 c 0,0,1
214 428 m 0,42,43
 202 428 202 428 194.5 436 c 128,-1,44
 187 444 187 444 187 456 c 0,45,46
 187 476 187 476 203.5 490.5 c 128,-1,47
 220 505 220 505 241 505 c 0,48,49
 249 505 249 505 259.5 502.5 c 128,-1,50
 270 500 270 500 278 495 c 1,51,-1
 272 468 l 2,52,53
 270 461 270 461 263.5 453.5 c 128,-1,54
 257 446 257 446 248.5 440.5 c 128,-1,55
 240 435 240 435 230.5 431.5 c 128,-1,56
 221 428 221 428 214 428 c 0,42,43
EndSplineSet
EndChar

StartChar: guillemotleft
Encoding: 171 171 109
Width: 693
GlyphClass: 1
Flags: W
LayerCount: 2
Fore
SplineSet
11 210 m 1,0,-1
 238 30 l 1,1,-1
 270 182 l 1,2,-1
 170 259 l 1,3,-1
 305 344 l 1,4,-1
 337 496 l 1,5,-1
 30 298 l 1,6,-1
 11 210 l 1,0,-1
355 210 m 1,7,-1
 582 30 l 1,8,-1
 614 182 l 1,9,-1
 514 259 l 1,10,-1
 648 344 l 1,11,-1
 681 496 l 1,12,-1
 373 298 l 1,13,-1
 355 210 l 1,7,-1
EndSplineSet
EndChar

StartChar: logicalnot
Encoding: 172 172 110
Width: 615
GlyphClass: 1
Flags: W
LayerCount: 2
Fore
SplineSet
74 431 m 1,0,-1
 38 261 l 1,1,-1
 388 261 l 1,2,-1
 351 89 l 1,3,-1
 511 89 l 1,4,-1
 584 431 l 1,5,-1
 74 431 l 1,0,-1
EndSplineSet
EndChar

StartChar: uni00AD
Encoding: 173 173 111
Width: 609
GlyphClass: 1
Flags: W
LayerCount: 2
Fore
SplineSet
536 191 m 1,0,-1
 572 361 l 1,1,-1
 62 361 l 1,2,-1
 26 191 l 1,3,-1
 536 191 l 1,0,-1
EndSplineSet
EndChar

StartChar: registered
Encoding: 174 174 112
Width: 862
GlyphClass: 1
Flags: W
LayerCount: 2
Fore
SplineSet
440 -7 m 256,0,1
 523 -7 523 -7 594.5 20.5 c 128,-1,2
 666 48 666 48 718 96.5 c 128,-1,3
 770 145 770 145 799.5 211 c 128,-1,4
 829 277 829 277 829 355 c 0,5,6
 829 432 829 432 799.5 498 c 128,-1,7
 770 564 770 564 718 612 c 128,-1,8
 666 660 666 660 594.5 687.5 c 128,-1,9
 523 715 523 715 440 715 c 256,10,11
 357 715 357 715 286.5 687.5 c 128,-1,12
 216 660 216 660 165 612 c 128,-1,13
 114 564 114 564 85.5 498 c 128,-1,14
 57 432 57 432 57 355 c 0,15,16
 57 277 57 277 85.5 211 c 128,-1,17
 114 145 114 145 165 96.5 c 128,-1,18
 216 48 216 48 286.5 20.5 c 128,-1,19
 357 -7 357 -7 440 -7 c 256,0,1
441 56 m 0,20,21
 373 56 373 56 316 79.5 c 128,-1,22
 259 103 259 103 218 143.5 c 128,-1,23
 177 184 177 184 154 238 c 128,-1,24
 131 292 131 292 131 354 c 256,25,26
 131 416 131 416 154 470 c 128,-1,27
 177 524 177 524 218 564.5 c 128,-1,28
 259 605 259 605 316 628 c 128,-1,29
 373 651 373 651 441 651 c 256,30,31
 509 651 509 651 566.5 628 c 128,-1,32
 624 605 624 605 666 564.5 c 128,-1,33
 708 524 708 524 731.5 469.5 c 128,-1,34
 755 415 755 415 755 352 c 0,35,36
 755 288 755 288 731 234 c 128,-1,37
 707 180 707 180 664.5 140.5 c 128,-1,38
 622 101 622 101 564.5 78.5 c 128,-1,39
 507 56 507 56 441 56 c 0,20,21
270 144 m 1,40,-1
 402 144 l 1,41,-1
 402 275 l 1,42,-1
 420 275 l 1,43,-1
 501 144 l 1,44,-1
 648 144 l 1,45,-1
 552 301 l 1,46,47
 566 311 566 311 577.5 324.5 c 128,-1,48
 589 338 589 338 597 354 c 128,-1,49
 605 370 605 370 609.5 387 c 128,-1,50
 614 404 614 404 614 422 c 0,51,52
 614 449 614 449 603 476 c 128,-1,53
 592 503 592 503 573 524.5 c 128,-1,54
 554 546 554 546 527.5 559 c 128,-1,55
 501 572 501 572 469 572 c 2,56,-1
 270 572 l 1,57,-1
 270 144 l 1,40,-1
402 387 m 1,58,-1
 402 457 l 1,59,-1
 453 457 l 2,60,61
 458 457 458 457 463.5 456 c 128,-1,62
 469 455 469 455 473.5 451 c 128,-1,63
 478 447 478 447 481 440.5 c 128,-1,64
 484 434 484 434 484 422 c 0,65,66
 484 412 484 412 481.5 405 c 128,-1,67
 479 398 479 398 475 394 c 128,-1,68
 471 390 471 390 466 388.5 c 128,-1,69
 461 387 461 387 455 387 c 2,70,-1
 402 387 l 1,58,-1
EndSplineSet
EndChar

StartChar: degree
Encoding: 176 176 114
Width: 294
GlyphClass: 1
Flags: W
LayerCount: 2
Fore
SplineSet
184 486 m 0,0,1
 214 486 214 486 240.5 497 c 128,-1,2
 267 508 267 508 286.5 527.5 c 128,-1,3
 306 547 306 547 317.5 573.5 c 128,-1,4
 329 600 329 600 329 631 c 0,5,6
 329 672 329 672 304 698 c 128,-1,7
 279 724 279 724 235 724 c 0,8,9
 204 724 204 724 177.5 711.5 c 128,-1,10
 151 699 151 699 132 678.5 c 128,-1,11
 113 658 113 658 102 631.5 c 128,-1,12
 91 605 91 605 91 577 c 0,13,14
 91 535 91 535 115.5 510.5 c 128,-1,15
 140 486 140 486 184 486 c 0,0,1
203 573 m 0,16,17
 191 573 191 573 185 581 c 128,-1,18
 179 589 179 589 179 600 c 0,19,20
 179 614 179 614 190.5 625 c 128,-1,21
 202 636 202 636 216 636 c 0,22,23
 224 636 224 636 231.5 631 c 128,-1,24
 239 626 239 626 239 612 c 0,25,26
 239 597 239 597 227.5 585 c 128,-1,27
 216 573 216 573 203 573 c 0,16,17
EndSplineSet
EndChar

StartChar: plusminus
Encoding: 177 177 115
Width: 542
GlyphClass: 1
Flags: W
LayerCount: 2
Fore
SplineSet
450 1 m 1,0,-1
 450 151 l 1,1,-1
 70 151 l 1,2,-1
 70 1 l 1,3,-1
 450 1 l 1,0,-1
346 462 m 1,4,-1
 346 577 l 1,5,-1
 176 577 l 1,6,-1
 176 462 l 1,7,-1
 71 462 l 1,8,-1
 71 312 l 1,9,-1
 176 312 l 1,10,-1
 176 197 l 1,11,-1
 346 197 l 1,12,-1
 346 312 l 1,13,-1
 451 312 l 1,14,-1
 451 462 l 1,15,-1
 346 462 l 1,4,-1
EndSplineSet
EndChar

StartChar: twosuperior
Encoding: 178 178 116
Width: 427
GlyphClass: 1
Flags: W
LayerCount: 2
Fore
SplineSet
397 376 m 1,0,-1
 422 483 l 1,1,-1
 243 483 l 1,2,3
 245 494 245 494 252.5 501.5 c 128,-1,4
 260 509 260 509 271 515 c 128,-1,5
 282 521 282 521 295.5 525.5 c 128,-1,6
 309 530 309 530 323 535 c 0,7,8
 342 541 342 541 367.5 553.5 c 128,-1,9
 393 566 393 566 415.5 586.5 c 128,-1,10
 438 607 438 607 454 637 c 128,-1,11
 470 667 470 667 470 709 c 0,12,13
 470 762 470 762 433.5 791.5 c 128,-1,14
 397 821 397 821 328 821 c 0,15,16
 298 821 298 821 268 815.5 c 128,-1,17
 238 810 238 810 211.5 801 c 128,-1,18
 185 792 185 792 163 779 c 128,-1,19
 141 766 141 766 127 751 c 1,20,-1
 175 671 l 1,21,22
 186 681 186 681 200 690.5 c 128,-1,23
 214 700 214 700 229 707.5 c 128,-1,24
 244 715 244 715 261 719.5 c 128,-1,25
 278 724 278 724 295 724 c 0,26,27
 318 724 318 724 332.5 713 c 128,-1,28
 347 702 347 702 347 682 c 256,29,30
 347 662 347 662 334 647 c 128,-1,31
 321 632 321 632 300.5 620.5 c 128,-1,32
 280 609 280 609 255 599 c 128,-1,33
 230 589 230 589 206 578 c 0,34,35
 165 559 165 559 137.5 540 c 128,-1,36
 110 521 110 521 91.5 497.5 c 128,-1,37
 73 474 73 474 61 445 c 128,-1,38
 49 416 49 416 40 376 c 1,39,-1
 397 376 l 1,0,-1
EndSplineSet
EndChar

StartChar: threesuperior
Encoding: 179 179 117
Width: 407
GlyphClass: 1
Flags: W
LayerCount: 2
Fore
SplineSet
201 369 m 0,0,1
 240 369 240 369 277.5 377 c 128,-1,2
 315 385 315 385 344 403 c 128,-1,3
 373 421 373 421 391 450 c 128,-1,4
 409 479 409 479 409 520 c 0,5,6
 409 554 409 554 395.5 580 c 128,-1,7
 382 606 382 606 355 611 c 1,8,9
 395 619 395 619 420.5 647.5 c 128,-1,10
 446 676 446 676 446 717 c 0,11,12
 446 763 446 763 411 792 c 128,-1,13
 376 821 376 821 310 821 c 0,14,15
 288 821 288 821 262 817.5 c 128,-1,16
 236 814 236 814 210.5 807 c 128,-1,17
 185 800 185 800 162.5 789.5 c 128,-1,18
 140 779 140 779 124 765 c 1,19,-1
 168 683 l 1,20,21
 188 699 188 699 215 712 c 128,-1,22
 242 725 242 725 277 725 c 0,23,24
 288 725 288 725 302.5 720 c 128,-1,25
 317 715 317 715 317 695 c 0,26,27
 317 685 317 685 314 677 c 128,-1,28
 311 669 311 669 301.5 663.5 c 128,-1,29
 292 658 292 658 275 655.5 c 128,-1,30
 258 653 258 653 230 653 c 2,31,-1
 208 653 l 1,32,-1
 187 557 l 1,33,-1
 210 557 l 2,34,35
 258 557 258 557 274.5 549 c 128,-1,36
 291 541 291 541 291 523 c 0,37,38
 291 509 291 509 285 499.5 c 128,-1,39
 279 490 279 490 268.5 484.5 c 128,-1,40
 258 479 258 479 245 476.5 c 128,-1,41
 232 474 232 474 217 474 c 0,42,43
 200 474 200 474 187 476.5 c 128,-1,44
 174 479 174 479 162.5 484.5 c 128,-1,45
 151 490 151 490 141.5 497.5 c 128,-1,46
 132 505 132 505 123 514 c 1,47,-1
 53 440 l 1,48,49
 64 403 64 403 105.5 386 c 128,-1,50
 147 369 147 369 201 369 c 0,0,1
EndSplineSet
EndChar

StartChar: uni00B5
Encoding: 181 181 119
Width: 668
GlyphClass: 1
Flags: W
LayerCount: 2
Fore
SplineSet
-49 -213 m 1,0,-1
 141 -213 l 1,1,-1
 180 26 l 1,2,3
 180 9 180 9 192 -0.5 c 128,-1,4
 204 -10 204 -10 226 -10 c 0,5,6
 246 -10 246 -10 267.5 0.5 c 128,-1,7
 289 11 289 11 308.5 25.5 c 128,-1,8
 328 40 328 40 342.5 55.5 c 128,-1,9
 357 71 357 71 363 82 c 1,10,-1
 381 0 l 1,11,-1
 511 0 l 1,12,-1
 617 526 l 1,13,-1
 427 526 l 1,14,-1
 359 204 l 1,15,16
 344 187 344 187 331.5 176.5 c 128,-1,17
 319 166 319 166 308 160 c 128,-1,18
 297 154 297 154 288 152 c 128,-1,19
 279 150 279 150 272 150 c 0,20,21
 251 150 251 150 240.5 161.5 c 128,-1,22
 230 173 230 173 230 195 c 0,23,24
 230 201 230 201 231 208 c 128,-1,25
 232 215 232 215 234 223 c 2,26,-1
 298 526 l 1,27,-1
 108 526 l 1,28,-1
 -49 -213 l 1,0,-1
EndSplineSet
EndChar

StartChar: paragraph
Encoding: 182 182 120
Width: 683
GlyphClass: 1
Flags: W
LayerCount: 2
Fore
SplineSet
60 377 m 0,0,1
 60 335 60 335 69.5 300 c 128,-1,2
 79 265 79 265 97.5 240.5 c 128,-1,3
 116 216 116 216 142.5 202 c 128,-1,4
 169 188 169 188 202 188 c 1,5,-1
 145 -80 l 1,6,-1
 305 -80 l 1,7,-1
 362 188 l 1,8,-1
 388 188 l 1,9,-1
 331 -80 l 1,10,-1
 491 -80 l 1,11,-1
 629 570 l 1,12,-1
 696 570 l 1,13,-1
 726 710 l 1,14,-1
 394 710 l 2,15,16
 317 710 317 710 255 686.5 c 128,-1,17
 193 663 193 663 149.5 619.5 c 128,-1,18
 106 576 106 576 83 514.5 c 128,-1,19
 60 453 60 453 60 377 c 0,0,1
218 387 m 0,20,21
 218 419 218 419 224.5 451 c 128,-1,22
 231 483 231 483 241 508.5 c 128,-1,23
 251 534 251 534 262.5 550.5 c 128,-1,24
 274 567 274 567 284 570 c 1,25,-1
 232 328 l 1,26,27
 229 329 229 329 226 334 c 128,-1,28
 223 339 223 339 221.5 347 c 128,-1,29
 220 355 220 355 219 365 c 128,-1,30
 218 375 218 375 218 387 c 0,20,21
418 328 m 1,31,-1
 392 328 l 1,32,-1
 443 570 l 1,33,-1
 470 570 l 1,34,-1
 418 328 l 1,31,-1
EndSplineSet
EndChar

StartChar: onesuperior
Encoding: 185 185 123
Width: 312
GlyphClass: 1
Flags: W
LayerCount: 2
Fore
SplineSet
266 485 m 1,0,-1
 338 821 l 1,1,-1
 228 821 l 1,2,3
 228 820 228 820 217.5 811 c 128,-1,4
 207 802 207 802 192 791 c 128,-1,5
 177 780 177 780 159.5 771 c 128,-1,6
 142 762 142 762 127 762 c 1,7,-1
 104 653 l 1,8,9
 115 653 115 653 129.5 658.5 c 128,-1,10
 144 664 144 664 158 672.5 c 128,-1,11
 172 681 172 681 184.5 690 c 128,-1,12
 197 699 197 699 204 706 c 1,13,-1
 157 485 l 1,14,-1
 85 485 l 1,15,-1
 62 378 l 1,16,-1
 306 378 l 1,17,-1
 329 485 l 1,18,-1
 266 485 l 1,0,-1
EndSplineSet
EndChar

StartChar: ordmasculine
Encoding: 186 186 124
Width: 424
GlyphClass: 1
Flags: W
LayerCount: 2
Fore
SplineSet
218 333 m 0,0,1
 272 333 272 333 314 353 c 128,-1,2
 356 373 356 373 385.5 405.5 c 128,-1,3
 415 438 415 438 430.5 480 c 128,-1,4
 446 522 446 522 446 565 c 0,5,6
 446 596 446 596 437 623 c 128,-1,7
 428 650 428 650 410 670.5 c 128,-1,8
 392 691 392 691 364.5 703 c 128,-1,9
 337 715 337 715 299 715 c 0,10,11
 246 715 246 715 203.5 695 c 128,-1,12
 161 675 161 675 131.5 643 c 128,-1,13
 102 611 102 611 86.5 569.5 c 128,-1,14
 71 528 71 528 71 484 c 0,15,16
 71 453 71 453 80 425.5 c 128,-1,17
 89 398 89 398 107 377.5 c 128,-1,18
 125 357 125 357 153 345 c 128,-1,19
 181 333 181 333 218 333 c 0,0,1
242 445 m 0,20,21
 233 445 233 445 226.5 449 c 128,-1,22
 220 453 220 453 215 460 c 128,-1,23
 210 467 210 467 207.5 477 c 128,-1,24
 205 487 205 487 205 500 c 0,25,26
 205 522 205 522 210.5 540.5 c 128,-1,27
 216 559 216 559 225.5 573 c 128,-1,28
 235 587 235 587 248 595 c 128,-1,29
 261 603 261 603 275 603 c 0,30,31
 284 603 284 603 291 599 c 128,-1,32
 298 595 298 595 302.5 588 c 128,-1,33
 307 581 307 581 309.5 571 c 128,-1,34
 312 561 312 561 312 548 c 0,35,36
 312 526 312 526 306.5 507.5 c 128,-1,37
 301 489 301 489 291.5 475 c 128,-1,38
 282 461 282 461 269 453 c 128,-1,39
 256 445 256 445 242 445 c 0,20,21
EndSplineSet
EndChar

StartChar: guillemotright
Encoding: 187 187 125
Width: 693
GlyphClass: 1
Flags: W
LayerCount: 2
Fore
SplineSet
662 298 m 1,0,-1
 439 496 l 1,1,-1
 406 344 l 1,2,-1
 505 259 l 1,3,-1
 372 182 l 1,4,-1
 340 30 l 1,5,-1
 643 210 l 1,6,-1
 662 298 l 1,0,-1
318 298 m 1,7,-1
 95 496 l 1,8,-1
 63 344 l 1,9,-1
 161 259 l 1,10,-1
 28 182 l 1,11,-1
 -4 30 l 1,12,-1
 300 210 l 1,13,-1
 318 298 l 1,7,-1
EndSplineSet
EndChar

StartChar: onehalf
Encoding: 189 189 127
Width: 970
GlyphClass: 1
Flags: W
LayerCount: 2
Fore
SplineSet
248 395 m 1,0,-1
 320 731 l 1,1,-1
 210 731 l 1,2,3
 210 730 210 730 199.5 721 c 128,-1,4
 189 712 189 712 174 701 c 128,-1,5
 159 690 159 690 141.5 681 c 128,-1,6
 124 672 124 672 109 672 c 1,7,-1
 86 563 l 1,8,9
 97 563 97 563 111.5 568.5 c 128,-1,10
 126 574 126 574 140 582.5 c 128,-1,11
 154 591 154 591 166.5 600 c 128,-1,12
 179 609 179 609 186 616 c 1,13,-1
 139 395 l 1,14,-1
 67 395 l 1,15,-1
 44 288 l 1,16,-1
 288 288 l 1,17,-1
 311 395 l 1,18,-1
 248 395 l 1,0,-1
156 -10 m 1,19,-1
 478 337 l 1,20,-1
 801 646 l 1,21,-1
 734 721 l 1,22,-1
 426 384 l 1,23,-1
 89 65 l 1,24,-1
 156 -10 l 1,19,-1
867 -1 m 1,25,-1
 891 106 l 1,26,-1
 719 106 l 1,27,28
 721 117 721 117 728 124.5 c 128,-1,29
 735 132 735 132 745.5 138 c 128,-1,30
 756 144 756 144 769 148.5 c 128,-1,31
 782 153 782 153 796 158 c 0,32,33
 814 164 814 164 838.5 176.5 c 128,-1,34
 863 189 863 189 885 209.5 c 128,-1,35
 907 230 907 230 922.5 260 c 128,-1,36
 938 290 938 290 938 332 c 0,37,38
 938 385 938 385 903 414.5 c 128,-1,39
 868 444 868 444 801 444 c 0,40,41
 772 444 772 444 743 438.5 c 128,-1,42
 714 433 714 433 688.5 424 c 128,-1,43
 663 415 663 415 642 402 c 128,-1,44
 621 389 621 389 607 374 c 1,45,-1
 653 294 l 1,46,47
 664 304 664 304 677 313.5 c 128,-1,48
 690 323 690 323 705 330.5 c 128,-1,49
 720 338 720 338 736 342.5 c 128,-1,50
 752 347 752 347 769 347 c 0,51,52
 791 347 791 347 805 336 c 128,-1,53
 819 325 819 325 819 305 c 256,54,55
 819 285 819 285 806.5 270 c 128,-1,56
 794 255 794 255 774 243.5 c 128,-1,57
 754 232 754 232 730 222 c 128,-1,58
 706 212 706 212 683 201 c 0,59,60
 643 182 643 182 616.5 163 c 128,-1,61
 590 144 590 144 572.5 120.5 c 128,-1,62
 555 97 555 97 543.5 68 c 128,-1,63
 532 39 532 39 523 -1 c 1,64,-1
 867 -1 l 1,25,-1
EndSplineSet
EndChar

StartChar: questiondown
Encoding: 191 191 129
Width: 476
GlyphClass: 1
Flags: W
LayerCount: 2
Fore
SplineSet
229 247 m 1,0,1
 226 231 226 231 211.5 219 c 128,-1,2
 197 207 197 207 176 196 c 128,-1,3
 155 185 155 185 130.5 174 c 128,-1,4
 106 163 106 163 82 148 c 0,5,6
 57 133 57 133 38.5 115.5 c 128,-1,7
 20 98 20 98 7 78.5 c 128,-1,8
 -6 59 -6 59 -15 37 c 128,-1,9
 -24 15 -24 15 -29 -9 c 0,10,11
 -41 -65 -41 -65 -30 -104 c 128,-1,12
 -19 -143 -19 -143 5.5 -167 c 128,-1,13
 30 -191 30 -191 65 -202 c 128,-1,14
 100 -213 100 -213 137 -213 c 0,15,16
 172 -213 172 -213 205 -204 c 128,-1,17
 238 -195 238 -195 268 -178.5 c 128,-1,18
 298 -162 298 -162 323 -138 c 128,-1,19
 348 -114 348 -114 366 -84 c 1,20,-1
 269 2 l 1,21,22
 262 -5 262 -5 253 -15.5 c 128,-1,23
 244 -26 244 -26 233 -36 c 128,-1,24
 222 -46 222 -46 208 -53 c 128,-1,25
 194 -60 194 -60 177 -60 c 0,26,27
 165 -60 165 -60 155.5 -56.5 c 128,-1,28
 146 -53 146 -53 139.5 -46.5 c 128,-1,29
 133 -40 133 -40 130 -30.5 c 128,-1,30
 127 -21 127 -21 130 -10 c 0,31,32
 134 11 134 11 152 28.5 c 128,-1,33
 170 46 170 46 192.5 60 c 128,-1,34
 215 74 215 74 237 84 c 128,-1,35
 259 94 259 94 271 100 c 0,36,37
 300 114 300 114 319 131 c 128,-1,38
 338 148 338 148 349.5 166.5 c 128,-1,39
 361 185 361 185 367.5 205.5 c 128,-1,40
 374 226 374 226 378 247 c 1,41,-1
 229 247 l 1,0,1
427 422 m 0,42,43
 435 461 435 461 415 488.5 c 128,-1,44
 395 516 395 516 357 516 c 0,45,46
 338 516 338 516 320 508.5 c 128,-1,47
 302 501 302 501 287 488.5 c 128,-1,48
 272 476 272 476 261 459 c 128,-1,49
 250 442 250 442 246 422 c 0,50,51
 238 383 238 383 258.5 355.5 c 128,-1,52
 279 328 279 328 317 328 c 0,53,54
 336 328 336 328 354 335.5 c 128,-1,55
 372 343 372 343 387 355.5 c 128,-1,56
 402 368 402 368 412.5 385.5 c 128,-1,57
 423 403 423 403 427 422 c 0,42,43
EndSplineSet
EndChar

StartChar: AE
Encoding: 198 198 136
Width: 935
GlyphClass: 1
Flags: W
LayerCount: 2
Fore
SplineSet
-80 0 m 1,0,-1
 126 0 l 1,1,-1
 221 139 l 1,2,-1
 408 139 l 1,3,-1
 378 0 l 1,4,-1
 840 0 l 1,5,-1
 876 170 l 1,6,-1
 609 170 l 1,7,-1
 631 276 l 1,8,-1
 839 276 l 1,9,-1
 875 446 l 1,10,-1
 667 446 l 1,11,-1
 687 540 l 1,12,-1
 946 540 l 1,13,-1
 983 710 l 1,14,-1
 478 710 l 1,15,-1
 -80 0 l 1,0,-1
339 309 m 1,16,-1
 468 495 l 1,17,-1
 429 309 l 1,18,-1
 339 309 l 1,16,-1
EndSplineSet
EndChar

StartChar: Idieresis
Encoding: 207 207 145
Width: 317
GlyphClass: 1
Flags: W
LayerCount: 2
Fore
SplineSet
-3 0 m 1,0,-1
 192 0 l 1,1,-1
 343 710 l 1,2,-1
 148 710 l 1,3,-1
 -3 0 l 1,0,-1
283 835 m 256,4,5
 275 796 275 796 288 768.5 c 128,-1,6
 301 741 301 741 326 741 c 0,7,8
 352 741 352 741 376.5 768.5 c 128,-1,9
 401 796 401 796 409 835 c 256,10,11
 417 874 417 874 404.5 901.5 c 128,-1,12
 392 929 392 929 366 929 c 256,13,14
 340 929 340 929 315.5 901.5 c 128,-1,15
 291 874 291 874 283 835 c 256,4,5
128 835 m 256,16,17
 120 796 120 796 132.5 768.5 c 128,-1,18
 145 741 145 741 171 741 c 256,19,20
 197 741 197 741 221.5 768.5 c 128,-1,21
 246 796 246 796 254 835 c 256,22,23
 262 874 262 874 249.5 901.5 c 128,-1,24
 237 929 237 929 211 929 c 256,25,26
 185 929 185 929 160.5 901.5 c 128,-1,27
 136 874 136 874 128 835 c 256,16,17
EndSplineSet
EndChar

StartChar: Eth
Encoding: 208 208 146
Width: 696
GlyphClass: 1
Flags: W
LayerCount: 2
Fore
SplineSet
28 287 m 1,0,-1
 360 287 l 1,1,-1
 390 427 l 1,2,-1
 57 427 l 1,3,-1
 28 287 l 1,0,-1
0 0 m 1,4,-1
 262 0 l 2,5,6
 353 0 353 0 431 32.5 c 128,-1,7
 509 65 509 65 566.5 123 c 128,-1,8
 624 181 624 181 656.5 260 c 128,-1,9
 689 339 689 339 689 433 c 0,10,11
 689 491 689 491 672.5 541.5 c 128,-1,12
 656 592 656 592 621.5 629.5 c 128,-1,13
 587 667 587 667 535.5 688.5 c 128,-1,14
 484 710 484 710 413 710 c 2,15,-1
 151 710 l 1,16,-1
 0 0 l 1,4,-1
231 170 m 1,17,-1
 310 540 l 1,18,-1
 377 540 l 2,19,20
 404 540 404 540 424.5 530.5 c 128,-1,21
 445 521 445 521 459.5 503 c 128,-1,22
 474 485 474 485 481 460 c 128,-1,23
 488 435 488 435 488 405 c 0,24,25
 488 358 488 358 474 315.5 c 128,-1,26
 460 273 460 273 435 240.5 c 128,-1,27
 410 208 410 208 375 189 c 128,-1,28
 340 170 340 170 298 170 c 2,29,-1
 231 170 l 1,17,-1
EndSplineSet
EndChar

StartChar: multiply
Encoding: 215 215 153
Width: 506
GlyphClass: 1
Flags: W
LayerCount: 2
Fore
SplineSet
362 278 m 1,0,-1
 442 358 l 1,1,-1
 325 476 l 1,2,-1
 245 396 l 1,3,-1
 165 476 l 1,4,-1
 46 358 l 1,5,-1
 126 277 l 1,6,-1
 40 191 l 1,7,-1
 157 73 l 1,8,-1
 244 160 l 1,9,-1
 331 73 l 1,10,-1
 450 191 l 1,11,-1
 362 278 l 1,0,-1
EndSplineSet
EndChar

StartChar: Thorn
Encoding: 222 222 160
Width: 585
GlyphClass: 1
Flags: W
LayerCount: 2
Fore
SplineSet
-3 0 m 1,0,-1
 192 0 l 1,1,-1
 213 101 l 1,2,-1
 301 101 l 2,3,4
 359 101 359 101 410 126 c 128,-1,5
 461 151 461 151 499.5 192 c 128,-1,6
 538 233 538 233 560.5 284.5 c 128,-1,7
 583 336 583 336 583 388 c 0,8,9
 583 427 583 427 570.5 464 c 128,-1,10
 558 501 558 501 534.5 529.5 c 128,-1,11
 511 558 511 558 477 575 c 128,-1,12
 443 592 443 592 400 592 c 2,13,-1
 318 592 l 1,14,-1
 343 710 l 1,15,-1
 148 710 l 1,16,-1
 -3 0 l 1,0,-1
250 271 m 1,17,-1
 282 422 l 1,18,-1
 354 422 l 2,19,20
 360 422 360 422 366 418.5 c 128,-1,21
 372 415 372 415 376.5 408 c 128,-1,22
 381 401 381 401 383.5 391 c 128,-1,23
 386 381 386 381 386 368 c 0,24,25
 386 347 386 347 380 329.5 c 128,-1,26
 374 312 374 312 365.5 299 c 128,-1,27
 357 286 357 286 346.5 278.5 c 128,-1,28
 336 271 336 271 327 271 c 2,29,-1
 250 271 l 1,17,-1
EndSplineSet
EndChar

StartChar: germandbls
Encoding: 223 223 161
Width: 546
GlyphClass: 1
Flags: W
LayerCount: 2
Fore
SplineSet
182 -6 m 1,0,1
 236 -6 236 -6 294 6 c 128,-1,2
 352 18 352 18 400 48 c 128,-1,3
 448 78 448 78 479.5 129 c 128,-1,4
 511 180 511 180 511 258 c 0,5,6
 511 311 511 311 490 348.5 c 128,-1,7
 469 386 469 386 431 403 c 1,8,9
 448 412 448 412 466 429 c 128,-1,10
 484 446 484 446 498.5 469.5 c 128,-1,11
 513 493 513 493 522 520.5 c 128,-1,12
 531 548 531 548 531 578 c 0,13,14
 531 643 531 643 486 678.5 c 128,-1,15
 441 714 441 714 367 714 c 0,16,17
 318 714 318 714 273 700 c 128,-1,18
 228 686 228 686 191.5 661.5 c 128,-1,19
 155 637 155 637 130 603 c 128,-1,20
 105 569 105 569 96 529 c 2,21,-1
 -16 0 l 1,22,-1
 164 0 l 1,23,-1
 269 494 l 2,24,25
 272 509 272 509 276 520 c 128,-1,26
 280 531 280 531 285 538.5 c 128,-1,27
 290 546 290 546 297 550 c 128,-1,28
 304 554 304 554 313 554 c 0,29,30
 325 554 325 554 333 545.5 c 128,-1,31
 341 537 341 537 341 522 c 0,32,33
 341 516 341 516 339.5 507.5 c 128,-1,34
 338 499 338 499 333.5 491.5 c 128,-1,35
 329 484 329 484 321 478.5 c 128,-1,36
 313 473 313 473 300 473 c 2,37,-1
 280 473 l 1,38,-1
 244 303 l 1,39,-1
 266 303 l 2,40,41
 271 303 271 303 279 300 c 128,-1,42
 287 297 287 297 294.5 290.5 c 128,-1,43
 302 284 302 284 307 274 c 128,-1,44
 312 264 312 264 312 250 c 0,45,46
 312 231 312 231 304 215.5 c 128,-1,47
 296 200 296 200 283 189.5 c 128,-1,48
 270 179 270 179 253.5 173.5 c 128,-1,49
 237 168 237 168 219 168 c 1,50,-1
 182 -6 l 1,0,1
EndSplineSet
EndChar

StartChar: ae
Encoding: 230 230 168
Width: 942
GlyphClass: 1
Flags: W
LayerCount: 2
Fore
SplineSet
193 -10 m 0,0,1
 241 -10 241 -10 276.5 9.5 c 128,-1,2
 312 29 312 29 341 69 c 1,3,-1
 326 0 l 1,4,-1
 465 0 l 1,5,-1
 496 162 l 1,6,-1
 491 263 l 1,7,-1
 540 352 l 1,8,-1
 575 518 l 1,9,-1
 435 518 l 1,10,-1
 420 448 l 1,11,12
 408 490 408 490 373.5 513 c 128,-1,13
 339 536 339 536 290 536 c 0,14,15
 234 536 234 536 182.5 509.5 c 128,-1,16
 131 483 131 483 92 437 c 128,-1,17
 53 391 53 391 30 331 c 128,-1,18
 7 271 7 271 7 203 c 0,19,20
 7 156 7 156 20 116.5 c 128,-1,21
 33 77 33 77 57 49 c 128,-1,22
 81 21 81 21 115.5 5.5 c 128,-1,23
 150 -10 150 -10 193 -10 c 0,0,1
278 150 m 0,24,25
 262 150 262 150 248.5 156 c 128,-1,26
 235 162 235 162 226 173 c 128,-1,27
 217 184 217 184 212 199.5 c 128,-1,28
 207 215 207 215 207 234 c 0,29,30
 207 261 207 261 216.5 287 c 128,-1,31
 226 313 226 313 242 332.5 c 128,-1,32
 258 352 258 352 277.5 364 c 128,-1,33
 297 376 297 376 318 376 c 0,34,35
 331 376 331 376 343 370.5 c 128,-1,36
 355 365 355 365 364 355 c 128,-1,37
 373 345 373 345 379.5 330.5 c 128,-1,38
 386 316 386 316 389 298 c 1,39,-1
 369 204 l 1,40,41
 357 191 357 191 346 180.5 c 128,-1,42
 335 170 335 170 324 163.5 c 128,-1,43
 313 157 313 157 301.5 153.5 c 128,-1,44
 290 150 290 150 278 150 c 0,24,25
609 -10 m 0,45,46
 650 -10 650 -10 691 0 c 128,-1,47
 732 10 732 10 769.5 29 c 128,-1,48
 807 48 807 48 838.5 74 c 128,-1,49
 870 100 870 100 892 132 c 1,50,-1
 743 180 l 1,51,52
 735 167 735 167 724.5 157 c 128,-1,53
 714 147 714 147 701.5 140 c 128,-1,54
 689 133 689 133 675 129.5 c 128,-1,55
 661 126 661 126 645 126 c 0,56,57
 628 126 628 126 615.5 130.5 c 128,-1,58
 603 135 603 135 595.5 144 c 128,-1,59
 588 153 588 153 584.5 167.5 c 128,-1,60
 581 182 581 182 581 203 c 0,61,62
 581 244 581 244 590 280 c 128,-1,63
 599 316 599 316 615 343 c 128,-1,64
 631 370 631 370 651.5 385.5 c 128,-1,65
 672 401 672 401 696 401 c 0,66,67
 707 401 707 401 716.5 398 c 128,-1,68
 726 395 726 395 733 390 c 128,-1,69
 740 385 740 385 743.5 378 c 128,-1,70
 747 371 747 371 747 362 c 0,71,72
 747 350 747 350 740 341.5 c 128,-1,73
 733 333 733 333 716.5 327.5 c 128,-1,74
 700 322 700 322 673.5 320 c 128,-1,75
 647 318 647 318 609 318 c 0,76,77
 578 318 578 318 551.5 319.5 c 128,-1,78
 525 321 525 321 506 324 c 1,79,-1
 482 211 l 1,80,81
 510 207 510 207 544 205.5 c 128,-1,82
 578 204 578 204 610 204 c 0,83,84
 770 204 770 204 851.5 249 c 128,-1,85
 933 294 933 294 933 383 c 0,86,87
 933 419 933 419 919 447.5 c 128,-1,88
 905 476 905 476 879 495.5 c 128,-1,89
 853 515 853 515 815.5 525.5 c 128,-1,90
 778 536 778 536 730 536 c 0,91,92
 658 536 658 536 601.5 511 c 128,-1,93
 545 486 545 486 507 442 c 128,-1,94
 469 398 469 398 449 339.5 c 128,-1,95
 429 281 429 281 429 213 c 0,96,97
 429 162 429 162 438 121 c 128,-1,98
 447 80 447 80 468 51 c 128,-1,99
 489 22 489 22 523.5 6 c 128,-1,100
 558 -10 558 -10 609 -10 c 0,45,46
EndSplineSet
EndChar

StartChar: idieresis
Encoding: 239 239 177
Width: 286
GlyphClass: 1
Flags: W
LayerCount: 2
Fore
SplineSet
76 651 m 256,0,1
 68 612 68 612 80.5 584.5 c 128,-1,2
 93 557 93 557 119 557 c 256,3,4
 145 557 145 557 169.5 584.5 c 128,-1,5
 194 612 194 612 202 651 c 256,6,7
 210 690 210 690 197.5 717.5 c 128,-1,8
 185 745 185 745 159 745 c 256,9,10
 133 745 133 745 108.5 717.5 c 128,-1,11
 84 690 84 690 76 651 c 256,0,1
231 651 m 256,12,13
 223 612 223 612 235.5 584.5 c 128,-1,14
 248 557 248 557 274 557 c 256,15,16
 300 557 300 557 324.5 584.5 c 128,-1,17
 349 612 349 612 357 651 c 256,18,19
 365 690 365 690 352.5 717.5 c 128,-1,20
 340 745 340 745 314 745 c 256,21,22
 288 745 288 745 263.5 717.5 c 128,-1,23
 239 690 239 690 231 651 c 256,12,13
-16 0 m 1,24,-1
 174 0 l 1,25,-1
 286 526 l 1,26,-1
 96 526 l 1,27,-1
 -16 0 l 1,24,-1
EndSplineSet
EndChar

StartChar: eth
Encoding: 240 240 178
Width: 603
GlyphClass: 1
Flags: W
LayerCount: 2
Fore
SplineSet
585 379 m 0,0,1
 585 436 585 436 573.5 491 c 128,-1,2
 562 546 562 546 540 592.5 c 128,-1,3
 518 639 518 639 488 675 c 128,-1,4
 458 711 458 711 420 730 c 1,5,-1
 192 730 l 1,6,7
 235 704 235 704 269.5 676.5 c 128,-1,8
 304 649 304 649 329.5 619 c 128,-1,9
 355 589 355 589 372 557 c 128,-1,10
 389 525 389 525 398 489 c 0,11,12
 402 474 402 474 404 458 c 128,-1,13
 406 442 406 442 407 425 c 1,14,15
 384 447 384 447 352.5 459 c 128,-1,16
 321 471 321 471 286 471 c 0,17,18
 231 471 231 471 180 448.5 c 128,-1,19
 129 426 129 426 90 388 c 128,-1,20
 51 350 51 350 27.5 299 c 128,-1,21
 4 248 4 248 4 191 c 0,22,23
 4 147 4 147 20 110 c 128,-1,24
 36 73 36 73 66 46.5 c 128,-1,25
 96 20 96 20 138.5 5 c 128,-1,26
 181 -10 181 -10 234 -10 c 0,27,28
 314 -10 314 -10 378.5 18 c 128,-1,29
 443 46 443 46 489 97 c 128,-1,30
 535 148 535 148 560 219.5 c 128,-1,31
 585 291 585 291 585 379 c 0,0,1
202 216 m 0,32,33
 202 239 202 239 209.5 258 c 128,-1,34
 217 277 217 277 230.5 290.5 c 128,-1,35
 244 304 244 304 263 312 c 128,-1,36
 282 320 282 320 304 320 c 0,37,38
 320 320 320 320 332 315.5 c 128,-1,39
 344 311 344 311 352.5 302 c 128,-1,40
 361 293 361 293 365 281 c 128,-1,41
 369 269 369 269 369 254 c 0,42,43
 369 232 369 232 361.5 212.5 c 128,-1,44
 354 193 354 193 340.5 179.5 c 128,-1,45
 327 166 327 166 308.5 158 c 128,-1,46
 290 150 290 150 268 150 c 0,47,48
 252 150 252 150 240 154.5 c 128,-1,49
 228 159 228 159 219.5 168 c 128,-1,50
 211 177 211 177 206.5 189 c 128,-1,51
 202 201 202 201 202 216 c 0,32,33
568 712 m 1,52,-1
 436 648 l 1,53,-1
 379 634 l 1,54,-1
 268 581 l 1,55,-1
 305 510 l 1,56,-1
 417 563 l 1,57,-1
 478 580 l 1,58,-1
 605 641 l 1,59,-1
 568 712 l 1,52,-1
EndSplineSet
EndChar

StartChar: divide
Encoding: 247 247 185
Width: 485
GlyphClass: 1
Flags: W
LayerCount: 2
Fore
SplineSet
445 235 m 1,0,-1
 445 385 l 1,1,-1
 41 385 l 1,2,-1
 41 235 l 1,3,-1
 445 235 l 1,0,-1
150 94 m 256,4,5
 150 55 150 55 177.5 27.5 c 128,-1,6
 205 0 205 0 244 0 c 256,7,8
 283 0 283 0 310.5 27.5 c 128,-1,9
 338 55 338 55 338 94 c 256,10,11
 338 133 338 133 310.5 160.5 c 128,-1,12
 283 188 283 188 244 188 c 256,13,14
 205 188 205 188 177.5 160.5 c 128,-1,15
 150 133 150 133 150 94 c 256,4,5
150 526 m 256,16,17
 150 487 150 487 177.5 459.5 c 128,-1,18
 205 432 205 432 244 432 c 256,19,20
 283 432 283 432 310.5 459.5 c 128,-1,21
 338 487 338 487 338 526 c 256,22,23
 338 565 338 565 310.5 592.5 c 128,-1,24
 283 620 283 620 244 620 c 256,25,26
 205 620 205 620 177.5 592.5 c 128,-1,27
 150 565 150 565 150 526 c 256,16,17
EndSplineSet
EndChar

StartChar: oslash
Encoding: 248 248 186
Width: 596
GlyphClass: 1
Flags: W
LayerCount: 2
Fore
SplineSet
232 -10 m 0,0,1
 311 -10 311 -10 374 18 c 128,-1,2
 437 46 437 46 481.5 92 c 128,-1,3
 526 138 526 138 549.5 197 c 128,-1,4
 573 256 573 256 573 317 c 0,5,6
 573 362 573 362 559.5 401.5 c 128,-1,7
 546 441 546 441 518.5 471 c 128,-1,8
 491 501 491 501 448.5 518.5 c 128,-1,9
 406 536 406 536 348 536 c 0,10,11
 269 536 269 536 206 508 c 128,-1,12
 143 480 143 480 98.5 434 c 128,-1,13
 54 388 54 388 30.5 329.5 c 128,-1,14
 7 271 7 271 7 209 c 0,15,16
 7 165 7 165 20.5 125 c 128,-1,17
 34 85 34 85 62 55 c 128,-1,18
 90 25 90 25 132.5 7.5 c 128,-1,19
 175 -10 175 -10 232 -10 c 0,0,1
266 150 m 0,20,21
 252 150 252 150 240.5 155.5 c 128,-1,22
 229 161 229 161 221 171.5 c 128,-1,23
 213 182 213 182 209 197.5 c 128,-1,24
 205 213 205 213 205 232 c 0,25,26
 205 263 205 263 213.5 289.5 c 128,-1,27
 222 316 222 316 237 335 c 128,-1,28
 252 354 252 354 272 365 c 128,-1,29
 292 376 292 376 314 376 c 0,30,31
 328 376 328 376 339.5 370.5 c 128,-1,32
 351 365 351 365 359 354.5 c 128,-1,33
 367 344 367 344 371.5 328.5 c 128,-1,34
 376 313 376 313 376 294 c 0,35,36
 376 263 376 263 367 236.5 c 128,-1,37
 358 210 358 210 343 191 c 128,-1,38
 328 172 328 172 308 161 c 128,-1,39
 288 150 288 150 266 150 c 0,20,21
-52 -6 m 1,40,-1
 47 -6 l 1,41,-1
 167 104 l 1,42,-1
 127 158 l 1,43,-1
 -52 -6 l 1,40,-1
180 121 m 1,44,-1
 453 381 l 1,45,-1
 405 418 l 1,46,-1
 144 169 l 1,47,-1
 180 121 l 1,44,-1
471 393 m 1,48,-1
 624 532 l 1,49,-1
 523 532 l 1,50,-1
 418 435 l 1,51,-1
 471 393 l 1,48,-1
EndSplineSet
EndChar

StartChar: thorn
Encoding: 254 254 192
Width: 626
GlyphClass: 1
Flags: W
LayerCount: 2
Fore
SplineSet
128 -213 m 1,0,-1
 190 78 l 1,1,2
 196 57 196 57 207.5 40.5 c 128,-1,3
 219 24 219 24 236 12.5 c 128,-1,4
 253 1 253 1 275 -4.5 c 128,-1,5
 297 -10 297 -10 324 -10 c 0,6,7
 378 -10 378 -10 428.5 17 c 128,-1,8
 479 44 479 44 518 89.5 c 128,-1,9
 557 135 557 135 580 196 c 128,-1,10
 603 257 603 257 603 324 c 0,11,12
 603 370 603 370 590.5 409 c 128,-1,13
 578 448 578 448 554.5 476 c 128,-1,14
 531 504 531 504 497.5 520 c 128,-1,15
 464 536 464 536 422 536 c 0,16,17
 400 536 400 536 380.5 532.5 c 128,-1,18
 361 529 361 529 343.5 522.5 c 128,-1,19
 326 516 326 516 310.5 506.5 c 128,-1,20
 295 497 295 497 281 485 c 1,21,-1
 329 710 l 1,22,-1
 134 710 l 1,23,-1
 -62 -213 l 1,24,-1
 128 -213 l 1,0,-1
292 150 m 0,25,26
 279 150 279 150 267.5 156 c 128,-1,27
 256 162 256 162 246.5 173 c 128,-1,28
 237 184 237 184 231 199 c 128,-1,29
 225 214 225 214 222 231 c 1,30,-1
 242 322 l 1,31,32
 254 336 254 336 265 346 c 128,-1,33
 276 356 276 356 287 362.5 c 128,-1,34
 298 369 298 369 309 372.5 c 128,-1,35
 320 376 320 376 332 376 c 0,36,37
 349 376 349 376 362.5 370 c 128,-1,38
 376 364 376 364 385 353 c 128,-1,39
 394 342 394 342 399 327 c 128,-1,40
 404 312 404 312 404 293 c 0,41,42
 404 265 404 265 394.5 239 c 128,-1,43
 385 213 385 213 369 193.5 c 128,-1,44
 353 174 353 174 333 162 c 128,-1,45
 313 150 313 150 292 150 c 0,25,26
EndSplineSet
EndChar

StartChar: Dcroat
Encoding: 272 272 210
Width: 696
GlyphClass: 1
Flags: W
LayerCount: 2
Fore
SplineSet
28 287 m 1,0,-1
 360 287 l 1,1,-1
 390 427 l 1,2,-1
 57 427 l 1,3,-1
 28 287 l 1,0,-1
0 0 m 1,4,-1
 262 0 l 2,5,6
 353 0 353 0 431 32.5 c 128,-1,7
 509 65 509 65 566.5 123 c 128,-1,8
 624 181 624 181 656.5 260 c 128,-1,9
 689 339 689 339 689 433 c 0,10,11
 689 491 689 491 672.5 541.5 c 128,-1,12
 656 592 656 592 621.5 629.5 c 128,-1,13
 587 667 587 667 535.5 688.5 c 128,-1,14
 484 710 484 710 413 710 c 2,15,-1
 151 710 l 1,16,-1
 0 0 l 1,4,-1
231 170 m 1,17,-1
 310 540 l 1,18,-1
 377 540 l 2,19,20
 404 540 404 540 424.5 530.5 c 128,-1,21
 445 521 445 521 459.5 503 c 128,-1,22
 474 485 474 485 481 460 c 128,-1,23
 488 435 488 435 488 405 c 0,24,25
 488 358 488 358 474 315.5 c 128,-1,26
 460 273 460 273 435 240.5 c 128,-1,27
 410 208 410 208 375 189 c 128,-1,28
 340 170 340 170 298 170 c 2,29,-1
 231 170 l 1,17,-1
EndSplineSet
EndChar

StartChar: dcroat
Encoding: 273 273 211
Width: 645
GlyphClass: 1
Flags: W
LayerCount: 2
Fore
SplineSet
378 579 m 1,0,-1
 702 579 l 1,1,-1
 726 688 l 1,2,-1
 401 688 l 1,3,-1
 378 579 l 1,0,-1
193 -10 m 0,4,5
 217 -10 217 -10 238 -5 c 128,-1,6
 259 0 259 0 277 9.5 c 128,-1,7
 295 19 295 19 310.5 34 c 128,-1,8
 326 49 326 49 341 69 c 1,9,-1
 326 0 l 1,10,-1
 515 0 l 1,11,-1
 670 730 l 1,12,-1
 480 730 l 1,13,-1
 420 448 l 1,14,15
 414 469 414 469 402.5 485 c 128,-1,16
 391 501 391 501 374 512.5 c 128,-1,17
 357 524 357 524 335.5 530 c 128,-1,18
 314 536 314 536 290 536 c 0,19,20
 234 536 234 536 183 509.5 c 128,-1,21
 132 483 132 483 93 437 c 128,-1,22
 54 391 54 391 30.5 330.5 c 128,-1,23
 7 270 7 270 7 202 c 0,24,25
 7 155 7 155 20 116 c 128,-1,26
 33 77 33 77 57 49 c 128,-1,27
 81 21 81 21 115.5 5.5 c 128,-1,28
 150 -10 150 -10 193 -10 c 0,4,5
278 150 m 0,29,30
 262 150 262 150 248.5 156 c 128,-1,31
 235 162 235 162 226 173 c 128,-1,32
 217 184 217 184 212 199.5 c 128,-1,33
 207 215 207 215 207 234 c 0,34,35
 207 261 207 261 216.5 287 c 128,-1,36
 226 313 226 313 242 332.5 c 128,-1,37
 258 352 258 352 277.5 364 c 128,-1,38
 297 376 297 376 318 376 c 0,39,40
 332 376 332 376 343.5 370.5 c 128,-1,41
 355 365 355 365 364.5 355 c 128,-1,42
 374 345 374 345 380.5 330.5 c 128,-1,43
 387 316 387 316 390 298 c 1,44,-1
 370 204 l 1,45,46
 358 191 358 191 346.5 180.5 c 128,-1,47
 335 170 335 170 324 163.5 c 128,-1,48
 313 157 313 157 302 153.5 c 128,-1,49
 291 150 291 150 278 150 c 0,29,30
EndSplineSet
EndChar

StartChar: hcircumflex
Encoding: 293 293 231
Width: 601
GlyphClass: 1
Flags: W
LayerCount: 2
Fore
SplineSet
-16 0 m 1,0,-1
 174 0 l 1,1,-1
 237 295 l 1,2,3
 247 312 247 312 259.5 326 c 128,-1,4
 272 340 272 340 285 350 c 128,-1,5
 298 360 298 360 310 365 c 128,-1,6
 322 370 322 370 329 370 c 0,7,8
 347 370 347 370 358.5 359 c 128,-1,9
 370 348 370 348 370 323 c 0,10,11
 370 317 370 317 369.5 310.5 c 128,-1,12
 369 304 369 304 367 296 c 2,13,-1
 304 0 l 1,14,-1
 494 0 l 1,15,-1
 567 346 l 2,16,17
 571 363 571 363 573.5 382 c 128,-1,18
 576 401 576 401 576 420 c 0,19,20
 576 443 576 443 570.5 463.5 c 128,-1,21
 565 484 565 484 551 500.5 c 128,-1,22
 537 517 537 517 513 526.5 c 128,-1,23
 489 536 489 536 451 536 c 0,24,25
 425 536 425 536 400 530.5 c 128,-1,26
 375 525 375 525 351.5 513.5 c 128,-1,27
 328 502 328 502 307.5 485.5 c 128,-1,28
 287 469 287 469 269 448 c 1,29,-1
 329 730 l 1,30,-1
 139 730 l 1,31,-1
 -16 0 l 1,0,-1
504 912 m 1,32,-1
 348 912 l 1,33,-1
 221 740 l 1,34,-1
 304 740 l 1,35,-1
 504 912 l 1,32,-1
348 912 m 1,36,-1
 479 740 l 1,37,-1
 563 740 l 1,38,-1
 504 912 l 1,39,-1
 348 912 l 1,36,-1
EndSplineSet
EndChar

StartChar: Hbar
Encoding: 294 294 232
Width: 729
GlyphClass: 1
Flags: W
LayerCount: 2
Fore
SplineSet
67 538 m 1,0,-1
 764 538 l 1,1,-1
 782 626 l 1,2,-1
 86 626 l 1,3,-1
 67 538 l 1,0,-1
0 0 m 1,4,-1
 195 0 l 1,5,-1
 254 278 l 1,6,-1
 466 278 l 1,7,-1
 407 0 l 1,8,-1
 602 0 l 1,9,-1
 753 710 l 1,10,-1
 558 710 l 1,11,-1
 502 448 l 1,12,-1
 290 448 l 1,13,-1
 346 710 l 1,14,-1
 151 710 l 1,15,-1
 0 0 l 1,4,-1
EndSplineSet
EndChar

StartChar: hbar
Encoding: 295 295 233
Width: 601
GlyphClass: 1
Flags: W
LayerCount: 2
Fore
SplineSet
61 579 m 1,0,-1
 386 579 l 1,1,-1
 409 688 l 1,2,-1
 84 688 l 1,3,-1
 61 579 l 1,0,-1
-16 0 m 1,4,-1
 174 0 l 1,5,-1
 237 295 l 1,6,7
 247 312 247 312 259.5 326 c 128,-1,8
 272 340 272 340 285 350 c 128,-1,9
 298 360 298 360 310 365 c 128,-1,10
 322 370 322 370 329 370 c 0,11,12
 347 370 347 370 358.5 359 c 128,-1,13
 370 348 370 348 370 323 c 0,14,15
 370 317 370 317 369.5 310.5 c 128,-1,16
 369 304 369 304 367 296 c 2,17,-1
 304 0 l 1,18,-1
 494 0 l 1,19,-1
 567 346 l 2,20,21
 571 363 571 363 573.5 382 c 128,-1,22
 576 401 576 401 576 420 c 0,23,24
 576 443 576 443 570.5 463.5 c 128,-1,25
 565 484 565 484 551 500.5 c 128,-1,26
 537 517 537 517 513 526.5 c 128,-1,27
 489 536 489 536 451 536 c 0,28,29
 425 536 425 536 400 530.5 c 128,-1,30
 375 525 375 525 351.5 513.5 c 128,-1,31
 328 502 328 502 307.5 485.5 c 128,-1,32
 287 469 287 469 269 448 c 1,33,-1
 329 730 l 1,34,-1
 139 730 l 1,35,-1
 -16 0 l 1,4,-1
EndSplineSet
EndChar

StartChar: dotlessi
Encoding: 305 305 243
Width: 286
GlyphClass: 1
Flags: W
LayerCount: 2
Fore
SplineSet
-16 0 m 1,0,-1
 174 0 l 1,1,-1
 286 526 l 1,2,-1
 96 526 l 1,3,-1
 -16 0 l 1,0,-1
EndSplineSet
EndChar

StartChar: kgreenlandic
Encoding: 312 312 248
Width: 564
GlyphClass: 1
Flags: W
LayerCount: 2
Fore
SplineSet
-16 0 m 1,0,-1
 174 0 l 1,1,-1
 206 150 l 1,2,-1
 245 192 l 1,3,-1
 312 0 l 1,4,-1
 513 0 l 1,5,-1
 388 296 l 1,6,-1
 606 526 l 1,7,-1
 407 526 l 1,8,-1
 244 331 l 1,9,-1
 286 526 l 1,10,-1
 96 526 l 1,11,-1
 -16 0 l 1,0,-1
EndSplineSet
EndChar

StartChar: Lslash
Encoding: 321 321 257
Width: 573
GlyphClass: 1
Flags: W
LayerCount: 2
Fore
SplineSet
17 252 m 1,0,-1
 396 426 l 1,1,-1
 375 527 l 1,2,-1
 -4 353 l 1,3,-1
 17 252 l 1,0,-1
-3 0 m 1,4,-1
 491 0 l 1,5,-1
 527 170 l 1,6,-1
 228 170 l 1,7,-1
 343 710 l 1,8,-1
 148 710 l 1,9,-1
 -3 0 l 1,4,-1
EndSplineSet
EndChar

StartChar: lslash
Encoding: 322 322 258
Width: 394
GlyphClass: 1
Flags: W
LayerCount: 2
Fore
SplineSet
25 252 m 1,0,-1
 409 426 l 1,1,-1
 388 527 l 1,2,-1
 4 353 l 1,3,-1
 25 252 l 1,0,-1
180 -10 m 0,4,5
 217 -10 217 -10 260.5 -1 c 128,-1,6
 304 8 304 8 341 24 c 1,7,-1
 347 164 l 1,8,9
 334 157 334 157 320 153 c 128,-1,10
 306 149 306 149 295 149 c 0,11,12
 277 149 277 149 268 158.5 c 128,-1,13
 259 168 259 168 259 187 c 0,14,15
 259 192 259 192 259.5 197.5 c 128,-1,16
 260 203 260 203 262 209 c 2,17,-1
 373 730 l 1,18,-1
 183 730 l 1,19,-1
 58 142 l 2,20,21
 55 130 55 130 54 119 c 128,-1,22
 53 108 53 108 53 97 c 0,23,24
 53 45 53 45 85 17.5 c 128,-1,25
 117 -10 117 -10 180 -10 c 0,4,5
EndSplineSet
EndChar

StartChar: Eng
Encoding: 330 330 265
Width: 705
GlyphClass: 1
Flags: W
LayerCount: 2
Fore
SplineSet
336 -209 m 0,0,1
 379 -209 379 -209 418.5 -194 c 128,-1,2
 458 -179 458 -179 490.5 -151 c 128,-1,3
 523 -123 523 -123 547 -83.5 c 128,-1,4
 571 -44 571 -44 581 5 c 2,5,-1
 731 709 l 1,6,-1
 536 709 l 1,7,-1
 462 359 l 1,8,-1
 298 710 l 1,9,-1
 148 710 l 1,10,-1
 -3 0 l 1,11,-1
 192 0 l 1,12,-1
 265 343 l 1,13,-1
 400 44 l 1,14,-1
 390 -3 l 2,15,16
 388 -13 388 -13 384 -21 c 128,-1,17
 380 -29 380 -29 374.5 -34.5 c 128,-1,18
 369 -40 369 -40 362 -43 c 128,-1,19
 355 -46 355 -46 347 -46 c 0,20,21
 334 -46 334 -46 323.5 -40.5 c 128,-1,22
 313 -35 313 -35 308 -26 c 1,23,-1
 203 -155 l 1,24,25
 228 -181 228 -181 262 -195 c 128,-1,26
 296 -209 296 -209 336 -209 c 0,0,1
EndSplineSet
EndChar

StartChar: eng
Encoding: 331 331 266
Width: 600
GlyphClass: 1
Flags: W
LayerCount: 2
Fore
SplineSet
248 -209 m 0,0,1
 292 -209 292 -209 332 -193 c 128,-1,2
 372 -177 372 -177 405 -147.5 c 128,-1,3
 438 -118 438 -118 461.5 -77.5 c 128,-1,4
 485 -37 485 -37 495 12 c 2,5,-1
 566 346 l 2,6,7
 570 363 570 363 572.5 381.5 c 128,-1,8
 575 400 575 400 575 419 c 0,9,10
 575 441 575 441 570 462 c 128,-1,11
 565 483 565 483 551.5 499.5 c 128,-1,12
 538 516 538 516 514.5 526 c 128,-1,13
 491 536 491 536 455 536 c 0,14,15
 423 536 423 536 393.5 530.5 c 128,-1,16
 364 525 364 525 338 513.5 c 128,-1,17
 312 502 312 502 290 485.5 c 128,-1,18
 268 469 268 469 250 448 c 1,19,-1
 267 526 l 1,20,-1
 96 526 l 1,21,-1
 -16 0 l 1,22,-1
 174 0 l 1,23,-1
 237 295 l 1,24,25
 246 312 246 312 258.5 325.5 c 128,-1,26
 271 339 271 339 283.5 349 c 128,-1,27
 296 359 296 359 308.5 364.5 c 128,-1,28
 321 370 321 370 331 370 c 0,29,30
 347 370 347 370 358.5 358.5 c 128,-1,31
 370 347 370 347 370 322 c 0,32,33
 370 316 370 316 369.5 310 c 128,-1,34
 369 304 369 304 367 296 c 2,35,-1
 303 -3 l 2,36,37
 301 -13 301 -13 297 -21 c 128,-1,38
 293 -29 293 -29 287 -34.5 c 128,-1,39
 281 -40 281 -40 274 -43 c 128,-1,40
 267 -46 267 -46 259 -46 c 0,41,42
 246 -46 246 -46 236 -40.5 c 128,-1,43
 226 -35 226 -35 221 -26 c 1,44,-1
 116 -155 l 1,45,46
 140 -181 140 -181 174 -195 c 128,-1,47
 208 -209 208 -209 248 -209 c 0,0,1
EndSplineSet
EndChar

StartChar: OE
Encoding: 338 338 273
Width: 977
GlyphClass: 1
Flags: W
LayerCount: 2
Fore
SplineSet
282 -5 m 0,0,1
 300 -5 300 -5 318.5 -1.5 c 128,-1,2
 337 2 337 2 355.5 8 c 128,-1,3
 374 14 374 14 392.5 22.5 c 128,-1,4
 411 31 411 31 429 41 c 1,5,-1
 420 0 l 1,6,-1
 883 0 l 1,7,-1
 919 170 l 1,8,-1
 651 170 l 1,9,-1
 674 276 l 1,10,-1
 882 276 l 1,11,-1
 918 446 l 1,12,-1
 710 446 l 1,13,-1
 730 540 l 1,14,-1
 989 540 l 1,15,-1
 1025 710 l 1,16,-1
 571 710 l 1,17,-1
 563 670 l 1,18,19
 550 681 550 681 535.5 689 c 128,-1,20
 521 697 521 697 505.5 703 c 128,-1,21
 490 709 490 709 474 712 c 128,-1,22
 458 715 458 715 440 715 c 0,23,24
 359 715 359 715 284.5 679 c 128,-1,25
 210 643 210 643 153 583 c 128,-1,26
 96 523 96 523 62 446 c 128,-1,27
 28 369 28 369 28 288 c 0,28,29
 28 231 28 231 45 178 c 128,-1,30
 62 125 62 125 94 84.5 c 128,-1,31
 126 44 126 44 173.5 19.5 c 128,-1,32
 221 -5 221 -5 282 -5 c 0,0,1
321 168 m 0,33,34
 296 168 296 168 278 179 c 128,-1,35
 260 190 260 190 249 208 c 128,-1,36
 238 226 238 226 232.5 250 c 128,-1,37
 227 274 227 274 227 301 c 0,38,39
 227 340 227 340 238.5 382.5 c 128,-1,40
 250 425 250 425 272 460.5 c 128,-1,41
 294 496 294 496 326 519 c 128,-1,42
 358 542 358 542 400 542 c 0,43,44
 425 542 425 542 442.5 531 c 128,-1,45
 460 520 460 520 471.5 502 c 128,-1,46
 483 484 483 484 488.5 460 c 128,-1,47
 494 436 494 436 494 409 c 0,48,49
 494 370 494 370 483 327.5 c 128,-1,50
 472 285 472 285 450 249.5 c 128,-1,51
 428 214 428 214 395.5 191 c 128,-1,52
 363 168 363 168 321 168 c 0,33,34
EndSplineSet
EndChar

StartChar: Tbar
Encoding: 358 358 293
Width: 620
GlyphClass: 1
Flags: W
LayerCount: 2
Fore
SplineSet
53 268 m 1,0,-1
 552 268 l 1,1,-1
 571 356 l 1,2,-1
 72 356 l 1,3,-1
 53 268 l 1,0,-1
149 0 m 1,4,-1
 344 0 l 1,5,-1
 458 540 l 1,6,-1
 648 540 l 1,7,-1
 684 710 l 1,8,-1
 108 710 l 1,9,-1
 72 540 l 1,10,-1
 263 540 l 1,11,-1
 149 0 l 1,4,-1
EndSplineSet
EndChar

StartChar: tbar
Encoding: 359 359 294
Width: 417
GlyphClass: 1
Flags: W
LayerCount: 2
Fore
SplineSet
9 227 m 1,0,-1
 336 227 l 1,1,-1
 359 336 l 1,2,-1
 32 336 l 1,3,-1
 9 227 l 1,0,-1
45 96 m 0,4,5
 45 37 45 37 81.5 13 c 128,-1,6
 118 -11 118 -11 172 -11 c 0,7,8
 193 -11 193 -11 215 -8 c 128,-1,9
 237 -5 237 -5 260 0.5 c 128,-1,10
 283 6 283 6 306 13 c 128,-1,11
 329 20 329 20 351 29 c 1,12,-1
 349 179 l 1,13,14
 339 175 339 175 329.5 172 c 128,-1,15
 320 169 320 169 311.5 167 c 128,-1,16
 303 165 303 165 295.5 163.5 c 128,-1,17
 288 162 288 162 282 162 c 0,18,19
 268 162 268 162 260 168.5 c 128,-1,20
 252 175 252 175 252 191 c 0,21,22
 252 195 252 195 252.5 199.5 c 128,-1,23
 253 204 253 204 254 209 c 2,24,-1
 291 383 l 1,25,-1
 388 383 l 1,26,-1
 418 526 l 1,27,-1
 322 526 l 1,28,-1
 357 691 l 1,29,-1
 167 691 l 1,30,-1
 132 526 l 1,31,-1
 71 526 l 1,32,-1
 40 383 l 1,33,-1
 101 383 l 1,34,-1
 50 142 l 2,35,36
 47 129 47 129 46 118 c 128,-1,37
 45 107 45 107 45 96 c 0,4,5
EndSplineSet
EndChar

StartChar: uni018F
Encoding: 399 399 318
Width: 732
GlyphClass: 1
Flags: W
LayerCount: 2
Fore
SplineSet
296 -5 m 0,0,1
 395 -5 395 -5 475 35.5 c 128,-1,2
 555 76 555 76 611 139 c 128,-1,3
 667 202 667 202 697.5 277.5 c 128,-1,4
 728 353 728 353 728 423 c 0,5,6
 728 475 728 475 711.5 527 c 128,-1,7
 695 579 695 579 660.5 620.5 c 128,-1,8
 626 662 626 662 573.5 688 c 128,-1,9
 521 714 521 714 449 714 c 0,10,11
 390 714 390 714 337.5 700 c 128,-1,12
 285 686 285 686 239.5 661 c 128,-1,13
 194 636 194 636 157 600.5 c 128,-1,14
 120 565 120 565 91 521 c 1,15,-1
 283 464 l 1,16,17
 292 483 292 483 306.5 497.5 c 128,-1,18
 321 512 321 512 339 522 c 128,-1,19
 357 532 357 532 376.5 537.5 c 128,-1,20
 396 543 396 543 415 543 c 0,21,22
 436 543 436 543 455 537 c 128,-1,23
 474 531 474 531 488 518 c 128,-1,24
 502 505 502 505 510.5 485 c 128,-1,25
 519 465 519 465 519 437 c 0,26,27
 519 431 519 431 518.5 424.5 c 128,-1,28
 518 418 518 418 517 411 c 1,29,-1
 43 411 l 1,30,31
 33 388 33 388 24 357 c 128,-1,32
 15 326 15 326 15 284 c 0,33,34
 15 234 15 234 31 182.5 c 128,-1,35
 47 131 47 131 81.5 89.5 c 128,-1,36
 116 48 116 48 169 21.5 c 128,-1,37
 222 -5 222 -5 296 -5 c 0,0,1
335 165 m 0,38,39
 311 165 311 165 290 170.5 c 128,-1,40
 269 176 269 176 253.5 186.5 c 128,-1,41
 238 197 238 197 229 212 c 128,-1,42
 220 227 220 227 220 246 c 0,43,44
 220 251 220 251 220.5 256.5 c 128,-1,45
 221 262 221 262 223 268 c 1,46,-1
 482 268 l 1,47,48
 473 244 473 244 458 224.5 c 128,-1,49
 443 205 443 205 424 192 c 128,-1,50
 405 179 405 179 382.5 172 c 128,-1,51
 360 165 360 165 335 165 c 0,38,39
EndSplineSet
EndChar

StartChar: florin
Encoding: 402 402 319
Width: 544
GlyphClass: 1
Flags: W
LayerCount: 2
Fore
SplineSet
64 -209 m 0,0,1
 107 -209 107 -209 147 -193.5 c 128,-1,2
 187 -178 187 -178 219 -150.5 c 128,-1,3
 251 -123 251 -123 274.5 -84 c 128,-1,4
 298 -45 298 -45 308 2 c 2,5,-1
 376 322 l 1,6,-1
 483 322 l 1,7,-1
 514 465 l 1,8,-1
 406 465 l 1,9,-1
 420 529 l 2,10,11
 425 555 425 555 438 567.5 c 128,-1,12
 451 580 451 580 471 580 c 0,13,14
 485 580 485 580 503 576 c 128,-1,15
 521 572 521 572 535 566 c 1,16,-1
 597 710 l 1,17,18
 561 725 561 725 527.5 732.5 c 128,-1,19
 494 740 494 740 462 740 c 0,20,21
 420 740 420 740 382.5 724.5 c 128,-1,22
 345 709 345 709 314 680.5 c 128,-1,23
 283 652 283 652 261.5 612 c 128,-1,24
 240 572 240 572 229 522 c 2,25,-1
 217 465 l 1,26,-1
 156 465 l 1,27,-1
 125 322 l 1,28,-1
 186 322 l 1,29,-1
 117 -3 l 2,30,31
 115 -13 115 -13 111 -21 c 128,-1,32
 107 -29 107 -29 101.5 -34.5 c 128,-1,33
 96 -40 96 -40 89 -43 c 128,-1,34
 82 -46 82 -46 74 -46 c 0,35,36
 62 -46 62 -46 51.5 -40.5 c 128,-1,37
 41 -35 41 -35 36 -26 c 1,38,-1
 -69 -155 l 1,39,40
 -45 -181 -45 -181 -10.5 -195 c 128,-1,41
 24 -209 24 -209 64 -209 c 0,0,1
EndSplineSet
EndChar

StartChar: Aringacute
Encoding: 506 506 328
Width: 636
GlyphClass: 1
Flags: W
LayerCount: 2
Fore
SplineSet
-61 0 m 1,0,-1
 138 0 l 1,1,-1
 203 139 l 1,2,-1
 373 139 l 1,3,-1
 380 0 l 1,4,-1
 578 0 l 1,5,-1
 499 710 l 1,6,-1
 320 710 l 1,7,-1
 -61 0 l 1,0,-1
259 269 m 1,8,-1
 362 489 l 1,9,-1
 370 269 l 1,10,-1
 259 269 l 1,8,-1
632 964 m 1,11,-1
 453 964 l 1,12,-1
 377 812 l 1,13,-1
 477 812 l 1,14,-1
 632 964 l 1,11,-1
301 734 m 0,15,16
 301 699 301 699 327.5 681.5 c 128,-1,17
 354 664 354 664 400 664 c 0,18,19
 460 664 460 664 497.5 690.5 c 128,-1,20
 535 717 535 717 535 768 c 0,21,22
 535 803 535 803 509 820.5 c 128,-1,23
 483 838 483 838 437 838 c 0,24,25
 376 838 376 838 338.5 811.5 c 128,-1,26
 301 785 301 785 301 734 c 0,15,16
425 784 m 0,27,28
 439 784 439 784 448 776.5 c 128,-1,29
 457 769 457 769 457 757 c 0,30,31
 457 740 457 740 443 729 c 128,-1,32
 429 718 429 718 411 718 c 0,33,34
 397 718 397 718 388.5 725.5 c 128,-1,35
 380 733 380 733 380 746 c 0,36,37
 380 763 380 763 393 773.5 c 128,-1,38
 406 784 406 784 425 784 c 0,27,28
EndSplineSet
EndChar

StartChar: uni0237
Encoding: 567 567 370
Width: 286
GlyphClass: 1
Flags: W
LayerCount: 2
Fore
SplineSet
-70 -209 m 0,0,1
 -26 -209 -26 -209 14.5 -193 c 128,-1,2
 55 -177 55 -177 87.5 -147.5 c 128,-1,3
 120 -118 120 -118 143.5 -77.5 c 128,-1,4
 167 -37 167 -37 177 12 c 2,5,-1
 286 526 l 1,6,-1
 95 526 l 1,7,-1
 -17 -3 l 2,8,9
 -19 -13 -19 -13 -23 -21 c 128,-1,10
 -27 -29 -27 -29 -32.5 -34.5 c 128,-1,11
 -38 -40 -38 -40 -45 -43 c 128,-1,12
 -52 -46 -52 -46 -60 -46 c 0,13,14
 -72 -46 -72 -46 -82.5 -40.5 c 128,-1,15
 -93 -35 -93 -35 -98 -26 c 1,16,-1
 -203 -155 l 1,17,18
 -179 -181 -179 -181 -144.5 -195 c 128,-1,19
 -110 -209 -110 -209 -70 -209 c 0,0,1
EndSplineSet
EndChar

StartChar: uni0259
Encoding: 601 601 371
Width: 591
GlyphClass: 1
Flags: W
LayerCount: 2
Fore
SplineSet
227 -10 m 0,0,1
 307 -10 307 -10 370.5 18.5 c 128,-1,2
 434 47 434 47 478 93.5 c 128,-1,3
 522 140 522 140 545.5 199 c 128,-1,4
 569 258 569 258 569 320 c 0,5,6
 569 364 569 364 555 403 c 128,-1,7
 541 442 541 442 513 471.5 c 128,-1,8
 485 501 485 501 442.5 518.5 c 128,-1,9
 400 536 400 536 343 536 c 0,10,11
 297 536 297 536 255 525.5 c 128,-1,12
 213 515 213 515 177.5 496 c 128,-1,13
 142 477 142 477 112.5 451 c 128,-1,14
 83 425 83 425 61 393 c 1,15,-1
 212 347 l 1,16,17
 218 359 218 359 229 369 c 128,-1,18
 240 379 240 379 252.5 386 c 128,-1,19
 265 393 265 393 279.5 396.5 c 128,-1,20
 294 400 294 400 308 400 c 0,21,22
 320 400 320 400 331.5 396.5 c 128,-1,23
 343 393 343 393 352 385 c 128,-1,24
 361 377 361 377 366.5 365.5 c 128,-1,25
 372 354 372 354 372 337 c 0,26,27
 372 333 372 333 372 329 c 128,-1,28
 372 325 372 325 371 321 c 1,29,-1
 26 321 l 1,30,31
 15 293 15 293 8.5 260 c 128,-1,32
 2 227 2 227 2 197 c 0,33,34
 2 154 2 154 15.5 116 c 128,-1,35
 29 78 29 78 57 50 c 128,-1,36
 85 22 85 22 127 6 c 128,-1,37
 169 -10 169 -10 227 -10 c 0,0,1
258 125 m 0,38,39
 244 125 244 125 233.5 129.5 c 128,-1,40
 223 134 223 134 215.5 142.5 c 128,-1,41
 208 151 208 151 204.5 163.5 c 128,-1,42
 201 176 201 176 201 192 c 0,43,44
 201 196 201 196 201 199.5 c 128,-1,45
 201 203 201 203 202 207 c 1,46,-1
 351 207 l 1,47,48
 345 188 345 188 335.5 172.5 c 128,-1,49
 326 157 326 157 314 146.5 c 128,-1,50
 302 136 302 136 288 130.5 c 128,-1,51
 274 125 274 125 258 125 c 0,38,39
EndSplineSet
EndChar

StartChar: uni02BC
Encoding: 700 700 375
Width: 267
GlyphClass: 1
Flags: W
LayerCount: 2
Fore
SplineSet
362 730 m 1,0,-1
 183 730 l 1,1,-1
 107 570 l 1,2,-1
 207 570 l 1,3,-1
 362 730 l 1,0,-1
EndSplineSet
EndChar

StartChar: uni02BE
Encoding: 702 702 376
Width: 135
GlyphClass: 1
Flags: W
LayerCount: 2
Fore
SplineSet
81 549 m 1,0,1
 106 549 106 549 127 557 c 128,-1,2
 148 565 148 565 163.5 579.5 c 128,-1,3
 179 594 179 594 187.5 614.5 c 128,-1,4
 196 635 196 635 196 660 c 0,5,6
 196 695 196 695 179.5 716 c 128,-1,7
 163 737 163 737 131 737 c 1,8,-1
 116 681 l 1,9,10
 122 681 122 681 125 671.5 c 128,-1,11
 128 662 128 662 128 650 c 0,12,13
 128 633 128 633 117.5 619 c 128,-1,14
 107 605 107 605 96 605 c 1,15,-1
 81 549 l 1,0,1
EndSplineSet
EndChar

StartChar: uni02BF
Encoding: 703 703 377
Width: 134
GlyphClass: 1
Flags: W
LayerCount: 2
Fore
SplineSet
181 605 m 1,0,1
 174 605 174 605 171.5 615 c 128,-1,2
 169 625 169 625 169 638 c 0,3,4
 169 655 169 655 179 668 c 128,-1,5
 189 681 189 681 200 681 c 1,6,-1
 215 737 l 1,7,8
 190 737 190 737 169 729 c 128,-1,9
 148 721 148 721 132.5 706.5 c 128,-1,10
 117 692 117 692 108.5 671.5 c 128,-1,11
 100 651 100 651 100 626 c 0,12,13
 100 591 100 591 116.5 570 c 128,-1,14
 133 549 133 549 166 549 c 1,15,-1
 181 605 l 1,0,1
EndSplineSet
EndChar

StartChar: uni02C8
Encoding: 712 712 380
Width: 239
GlyphClass: 1
Flags: W
LayerCount: 2
Fore
SplineSet
100 775 m 1,0,-1
 100 391 l 1,1,-1
 260 391 l 1,2,-1
 260 775 l 1,3,-1
 100 775 l 1,0,-1
EndSplineSet
EndChar

StartChar: uni02C9
Encoding: 713 713 381
Width: 413
GlyphClass: 1
Flags: W
LayerCount: 2
Fore
SplineSet
420 607 m 1,0,-1
 446 720 l 1,1,-1
 163 720 l 1,2,-1
 137 607 l 1,3,-1
 420 607 l 1,0,-1
EndSplineSet
EndChar

StartChar: uni02CB
Encoding: 715 715 382
Width: 261
GlyphClass: 1
Flags: W
LayerCount: 2
Fore
SplineSet
249 496 m 1,0,-1
 307 730 l 1,1,-1
 152 730 l 1,2,-1
 128 496 l 1,3,-1
 249 496 l 1,0,-1
EndSplineSet
EndChar

StartChar: uni02CC
Encoding: 716 716 383
Width: 239
GlyphClass: 1
Flags: W
LayerCount: 2
Fore
SplineSet
-11 254 m 1,0,-1
 -11 -130 l 1,1,-1
 149 -130 l 1,2,-1
 149 254 l 1,3,-1
 -11 254 l 1,0,-1
EndSplineSet
EndChar

StartChar: hungarumlaut
Encoding: 733 733 389
Width: 399
GlyphClass: 1
Flags: W
LayerCount: 2
Fore
SplineSet
491 730 m 1,0,-1
 322 730 l 1,1,-1
 225 556 l 1,2,-1
 315 556 l 1,3,-1
 491 730 l 1,0,-1
300 730 m 1,4,-1
 131 730 l 1,5,-1
 34 556 l 1,6,-1
 124 556 l 1,7,-1
 300 730 l 1,4,-1
EndSplineSet
EndChar

StartChar: gravecomb
Encoding: 768 768 390
Width: 284
GlyphClass: 1
Flags: W
LayerCount: 2
Fore
SplineSet
75 760 m 1,0,-1
 196 600 l 1,1,-1
 286 600 l 1,2,-1
 244 760 l 1,3,-1
 75 760 l 1,0,-1
EndSplineSet
EndChar

StartChar: acutecomb
Encoding: 769 769 391
Width: 284
GlyphClass: 1
Flags: W
LayerCount: 2
Fore
SplineSet
313 760 m 1,0,-1
 134 760 l 1,1,-1
 58 600 l 1,2,-1
 158 600 l 1,3,-1
 313 760 l 1,0,-1
EndSplineSet
EndChar

StartChar: uni0302
Encoding: 770 770 392
Width: 402
GlyphClass: 1
Flags: W
LayerCount: 2
Fore
SplineSet
63 600 m 1,0,-1
 153 600 l 1,1,-1
 254 680 l 1,2,-1
 321 600 l 1,3,-1
 411 600 l 1,4,-1
 356 760 l 1,5,-1
 186 760 l 1,6,-1
 63 600 l 1,0,-1
EndSplineSet
EndChar

StartChar: tildecomb
Encoding: 771 771 393
Width: 512
GlyphClass: 1
Flags: W
LayerCount: 2
Fore
SplineSet
388 602 m 0,0,1
 425 602 425 602 456 623.5 c 128,-1,2
 487 645 487 645 509.5 672.5 c 128,-1,3
 532 700 532 700 545.5 725.5 c 128,-1,4
 559 751 559 751 561 760 c 1,5,-1
 461 760 l 1,6,7
 461 759 461 759 457.5 751 c 128,-1,8
 454 743 454 743 447 733.5 c 128,-1,9
 440 724 440 724 429 716.5 c 128,-1,10
 418 709 418 709 403 709 c 0,11,12
 387 709 387 709 375.5 717 c 128,-1,13
 364 725 364 725 351.5 734.5 c 128,-1,14
 339 744 339 744 324 752 c 128,-1,15
 309 760 309 760 285 760 c 0,16,17
 249 760 249 760 219 740 c 128,-1,18
 189 720 189 720 167 694 c 128,-1,19
 145 668 145 668 132 641.5 c 128,-1,20
 119 615 119 615 116 602 c 1,21,-1
 217 602 l 1,22,23
 217 603 217 603 219 610.5 c 128,-1,24
 221 618 221 618 227 627 c 128,-1,25
 233 636 233 636 243.5 643 c 128,-1,26
 254 650 254 650 270 650 c 256,27,28
 286 650 286 650 298.5 642.5 c 128,-1,29
 311 635 311 635 323.5 626 c 128,-1,30
 336 617 336 617 351 609.5 c 128,-1,31
 366 602 366 602 388 602 c 0,0,1
EndSplineSet
EndChar

StartChar: uni0304
Encoding: 772 772 394
Width: 396
GlyphClass: 1
Flags: W
LayerCount: 2
Fore
SplineSet
419 607 m 1,0,-1
 443 720 l 1,1,-1
 147 720 l 1,2,-1
 123 607 l 1,3,-1
 419 607 l 1,0,-1
EndSplineSet
EndChar

StartChar: uni0306
Encoding: 774 774 395
Width: 412
GlyphClass: 1
Flags: W
LayerCount: 2
Fore
SplineSet
288 649 m 0,0,1
 268 649 268 649 256 665.5 c 128,-1,2
 244 682 244 682 244 707 c 0,3,4
 244 712 244 712 244.5 718 c 128,-1,5
 245 724 245 724 247 730 c 1,6,-1
 149 730 l 1,7,8
 147 719 147 719 145.5 709 c 128,-1,9
 144 699 144 699 144 689 c 0,10,11
 144 634 144 634 177.5 601 c 128,-1,12
 211 568 211 568 271 568 c 0,13,14
 306 568 306 568 337 580 c 128,-1,15
 368 592 368 592 393 613.5 c 128,-1,16
 418 635 418 635 436 664.5 c 128,-1,17
 454 694 454 694 461 730 c 1,18,-1
 363 730 l 1,19,20
 352 695 352 695 331 672 c 128,-1,21
 310 649 310 649 288 649 c 0,0,1
EndSplineSet
EndChar

StartChar: uni0307
Encoding: 775 775 396
Width: 270
GlyphClass: 1
Flags: W
LayerCount: 2
Fore
SplineSet
100 660 m 0,0,1
 92 621 92 621 113.5 593.5 c 128,-1,2
 135 566 135 566 174 566 c 0,3,4
 194 566 194 566 212.5 573.5 c 128,-1,5
 231 581 231 581 246.5 593.5 c 128,-1,6
 262 606 262 606 273 623.5 c 128,-1,7
 284 641 284 641 288 660 c 0,8,9
 296 699 296 699 274.5 726.5 c 128,-1,10
 253 754 253 754 214 754 c 0,11,12
 195 754 195 754 176 746.5 c 128,-1,13
 157 739 157 739 141.5 726.5 c 128,-1,14
 126 714 126 714 115 697 c 128,-1,15
 104 680 104 680 100 660 c 0,0,1
EndSplineSet
EndChar

StartChar: uni0308
Encoding: 776 776 397
Width: 566
GlyphClass: 1
Flags: W
LayerCount: 2
Fore
SplineSet
197 557 m 0,0,1
 217 557 217 557 235.5 564.5 c 128,-1,2
 254 572 254 572 269.5 584.5 c 128,-1,3
 285 597 285 597 296 614.5 c 128,-1,4
 307 632 307 632 311 651 c 0,5,6
 319 690 319 690 297.5 717.5 c 128,-1,7
 276 745 276 745 237 745 c 0,8,9
 218 745 218 745 199 737.5 c 128,-1,10
 180 730 180 730 164.5 717.5 c 128,-1,11
 149 705 149 705 138 688 c 128,-1,12
 127 671 127 671 123 651 c 0,13,14
 115 612 115 612 136.5 584.5 c 128,-1,15
 158 557 158 557 197 557 c 0,0,1
448 557 m 0,16,17
 468 557 468 557 486.5 564.5 c 128,-1,18
 505 572 505 572 520.5 584.5 c 128,-1,19
 536 597 536 597 547 614.5 c 128,-1,20
 558 632 558 632 562 651 c 0,21,22
 570 690 570 690 548.5 717.5 c 128,-1,23
 527 745 527 745 488 745 c 0,24,25
 469 745 469 745 450 737.5 c 128,-1,26
 431 730 431 730 415.5 717.5 c 128,-1,27
 400 705 400 705 389 688 c 128,-1,28
 378 671 378 671 374 651 c 0,29,30
 366 612 366 612 387.5 584.5 c 128,-1,31
 409 557 409 557 448 557 c 0,16,17
EndSplineSet
EndChar

StartChar: hookabovecomb
Encoding: 777 777 398
Width: 311
GlyphClass: 1
Flags: W
LayerCount: 2
Fore
SplineSet
180 676 m 1,0,1
 200 689 200 689 213 696 c 128,-1,2
 226 703 226 703 240 703 c 256,3,4
 254 703 254 703 259 694.5 c 128,-1,5
 264 686 264 686 259 673 c 0,6,7
 254 659 254 659 239.5 647.5 c 128,-1,8
 225 636 225 636 204 625 c 1,9,-1
 231 578 l 1,10,11
 281 609 281 609 309 635 c 128,-1,12
 337 661 337 661 353 701 c 0,13,14
 367 739 367 739 349.5 762 c 128,-1,15
 332 785 332 785 287 785 c 0,16,17
 258 785 258 785 225 771.5 c 128,-1,18
 192 758 192 758 148 726 c 1,19,-1
 180 676 l 1,0,1
EndSplineSet
EndChar

StartChar: uni030A
Encoding: 778 778 399
Width: 332
GlyphClass: 1
Flags: W
LayerCount: 2
Fore
SplineSet
130 626 m 0,0,1
 130 591 130 591 156.5 573.5 c 128,-1,2
 183 556 183 556 229 556 c 0,3,4
 289 556 289 556 326.5 582.5 c 128,-1,5
 364 609 364 609 364 660 c 0,6,7
 364 695 364 695 338 712.5 c 128,-1,8
 312 730 312 730 266 730 c 0,9,10
 205 730 205 730 167.5 703.5 c 128,-1,11
 130 677 130 677 130 626 c 0,0,1
254 676 m 0,12,13
 268 676 268 676 277 668.5 c 128,-1,14
 286 661 286 661 286 649 c 0,15,16
 286 632 286 632 272 621 c 128,-1,17
 258 610 258 610 240 610 c 0,18,19
 226 610 226 610 217.5 617.5 c 128,-1,20
 209 625 209 625 209 638 c 0,21,22
 209 655 209 655 222 665.5 c 128,-1,23
 235 676 235 676 254 676 c 0,12,13
EndSplineSet
EndChar

StartChar: uni030B
Encoding: 779 779 400
Width: 399
GlyphClass: 1
Flags: W
LayerCount: 2
Fore
SplineSet
536 760 m 1,0,-1
 357 760 l 1,1,-1
 264 600 l 1,2,-1
 364 600 l 1,3,-1
 536 760 l 1,0,-1
325 760 m 1,4,-1
 146 760 l 1,5,-1
 53 600 l 1,6,-1
 153 600 l 1,7,-1
 325 760 l 1,4,-1
EndSplineSet
EndChar

StartChar: uni030C
Encoding: 780 780 401
Width: 402
GlyphClass: 1
Flags: W
LayerCount: 2
Fore
SplineSet
97 760 m 1,0,-1
 152 600 l 1,1,-1
 322 600 l 1,2,-1
 445 760 l 1,3,-1
 355 760 l 1,4,-1
 254 680 l 1,5,-1
 187 760 l 1,6,-1
 97 760 l 1,0,-1
EndSplineSet
EndChar

StartChar: uni030F
Encoding: 783 783 402
Width: 399
GlyphClass: 1
Flags: W
LayerCount: 2
Fore
SplineSet
243 760 m 1,0,-1
 347 600 l 1,1,-1
 437 600 l 1,2,-1
 412 760 l 1,3,-1
 243 760 l 1,0,-1
35 760 m 1,4,-1
 139 600 l 1,5,-1
 229 600 l 1,6,-1
 204 760 l 1,7,-1
 35 760 l 1,4,-1
EndSplineSet
EndChar

StartChar: uni0311
Encoding: 785 785 403
Width: 412
GlyphClass: 1
Flags: W
LayerCount: 2
Fore
SplineSet
115 568 m 1,0,-1
 212 568 l 1,1,2
 221 616 221 616 242 632.5 c 128,-1,3
 263 649 263 649 287 649 c 0,4,5
 310 649 310 649 321 637.5 c 128,-1,6
 332 626 332 626 332 600 c 0,7,8
 332 593 332 593 331.5 585 c 128,-1,9
 331 577 331 577 329 568 c 1,10,-1
 427 568 l 1,11,12
 429 578 429 578 430 587 c 128,-1,13
 431 596 431 596 431 605 c 0,14,15
 431 659 431 659 399 694.5 c 128,-1,16
 367 730 367 730 305 730 c 0,17,18
 271 730 271 730 239.5 718 c 128,-1,19
 208 706 208 706 183 684.5 c 128,-1,20
 158 663 158 663 140.5 633.5 c 128,-1,21
 123 604 123 604 115 568 c 1,0,-1
EndSplineSet
EndChar

StartChar: uni0312
Encoding: 786 786 404
Width: 241
GlyphClass: 1
Flags: W
LayerCount: 2
Fore
SplineSet
53 575 m 1,0,-1
 222 575 l 1,1,-1
 319 749 l 1,2,-1
 229 749 l 1,3,-1
 53 575 l 1,0,-1
EndSplineSet
EndChar

StartChar: uni031B
Encoding: 795 795 405
Width: 344
GlyphClass: 1
Flags: W
LayerCount: 2
Fore
SplineSet
94 470 m 1,0,1
 123 470 123 470 153 474.5 c 128,-1,2
 183 479 183 479 211 486.5 c 128,-1,3
 239 494 239 494 262 504 c 128,-1,4
 285 514 285 514 300 526 c 0,5,6
 323 544 323 544 338 565 c 128,-1,7
 353 586 353 586 362 608 c 128,-1,8
 371 630 371 630 376 651.5 c 128,-1,9
 381 673 381 673 385 692 c 1,10,-1
 256 692 l 1,11,12
 251 672 251 672 246.5 653.5 c 128,-1,13
 242 635 242 635 225 621 c 256,14,15
 208 607 208 607 182 602.5 c 128,-1,16
 156 598 156 598 121 598 c 1,17,-1
 94 470 l 1,0,1
EndSplineSet
EndChar

StartChar: dotbelowcomb
Encoding: 803 803 406
Width: 270
GlyphClass: 1
Flags: W
LayerCount: 2
Fore
SplineSet
-54 -140 m 0,0,1
 -62 -179 -62 -179 -40.5 -206.5 c 128,-1,2
 -19 -234 -19 -234 20 -234 c 0,3,4
 40 -234 40 -234 58.5 -226.5 c 128,-1,5
 77 -219 77 -219 92.5 -206.5 c 128,-1,6
 108 -194 108 -194 119 -177 c 128,-1,7
 130 -160 130 -160 134 -140 c 0,8,9
 142 -101 142 -101 120.5 -73.5 c 128,-1,10
 99 -46 99 -46 60 -46 c 0,11,12
 41 -46 41 -46 22 -53.5 c 128,-1,13
 3 -61 3 -61 -12.5 -73.5 c 128,-1,14
 -28 -86 -28 -86 -39 -103.5 c 128,-1,15
 -50 -121 -50 -121 -54 -140 c 0,0,1
EndSplineSet
EndChar

StartChar: uni0324
Encoding: 804 804 407
Width: 566
GlyphClass: 1
Flags: W
LayerCount: 2
Fore
SplineSet
111 -238 m 0,0,1
 131 -238 131 -238 149.5 -230.5 c 128,-1,2
 168 -223 168 -223 183.5 -210.5 c 128,-1,3
 199 -198 199 -198 210 -181 c 128,-1,4
 221 -164 221 -164 225 -144 c 0,5,6
 233 -105 233 -105 211.5 -77.5 c 128,-1,7
 190 -50 190 -50 151 -50 c 0,8,9
 132 -50 132 -50 113 -57.5 c 128,-1,10
 94 -65 94 -65 78.5 -77.5 c 128,-1,11
 63 -90 63 -90 52 -107.5 c 128,-1,12
 41 -125 41 -125 37 -144 c 0,13,14
 29 -183 29 -183 50.5 -210.5 c 128,-1,15
 72 -238 72 -238 111 -238 c 0,0,1
362 -238 m 0,16,17
 382 -238 382 -238 400.5 -230.5 c 128,-1,18
 419 -223 419 -223 434.5 -210.5 c 128,-1,19
 450 -198 450 -198 461 -181 c 128,-1,20
 472 -164 472 -164 476 -144 c 0,21,22
 484 -105 484 -105 462.5 -77.5 c 128,-1,23
 441 -50 441 -50 402 -50 c 0,24,25
 383 -50 383 -50 364 -57.5 c 128,-1,26
 345 -65 345 -65 329.5 -77.5 c 128,-1,27
 314 -90 314 -90 303 -107.5 c 128,-1,28
 292 -125 292 -125 288 -144 c 0,29,30
 280 -183 280 -183 301.5 -210.5 c 128,-1,31
 323 -238 323 -238 362 -238 c 0,16,17
EndSplineSet
EndChar

StartChar: uni0326
Encoding: 806 806 408
Width: 241
GlyphClass: 1
Flags: W
LayerCount: 2
Fore
SplineSet
-31 -291 m 1,0,-1
 139 -46 l 1,1,-1
 -18 -46 l 1,2,-1
 -113 -291 l 1,3,-1
 -31 -291 l 1,0,-1
EndSplineSet
EndChar

StartChar: uni0327
Encoding: 807 807 409
Width: 350
GlyphClass: 1
Flags: W
LayerCount: 2
Fore
SplineSet
-42 -198 m 1,0,1
 -19 -209 -19 -209 8.5 -214 c 128,-1,2
 36 -219 36 -219 62 -219 c 0,3,4
 89 -219 89 -219 119.5 -213 c 128,-1,5
 150 -207 150 -207 175.5 -193.5 c 128,-1,6
 201 -180 201 -180 217.5 -157 c 128,-1,7
 234 -134 234 -134 234 -101 c 256,8,9
 234 -68 234 -68 211 -53 c 128,-1,10
 188 -38 188 -38 158 -38 c 0,11,12
 151 -38 151 -38 145.5 -38 c 128,-1,13
 140 -38 140 -38 133 -40 c 1,14,-1
 178 11 l 1,15,-1
 114 30 l 1,16,-1
 24 -102 l 1,17,18
 43 -98 43 -98 62.5 -95.5 c 128,-1,19
 82 -93 82 -93 101 -93 c 0,20,21
 107 -93 107 -93 115.5 -93.5 c 128,-1,22
 124 -94 124 -94 131 -96.5 c 128,-1,23
 138 -99 138 -99 143 -104 c 128,-1,24
 148 -109 148 -109 148 -118 c 0,25,26
 148 -130 148 -130 142 -137 c 128,-1,27
 136 -144 136 -144 127 -147.5 c 128,-1,28
 118 -151 118 -151 107.5 -152.5 c 128,-1,29
 97 -154 97 -154 88 -154 c 0,30,31
 80 -154 80 -154 68.5 -153 c 128,-1,32
 57 -152 57 -152 45 -149.5 c 128,-1,33
 33 -147 33 -147 22.5 -143.5 c 128,-1,34
 12 -140 12 -140 6 -134 c 1,35,36
 -6 -150 -6 -150 -18 -166 c 128,-1,37
 -30 -182 -30 -182 -42 -198 c 1,0,1
EndSplineSet
EndChar

StartChar: uni0328
Encoding: 808 808 410
Width: 273
GlyphClass: 1
Flags: W
LayerCount: 2
Fore
SplineSet
-31 -125 m 0,0,1
 -31 -157 -31 -157 -1.5 -181.5 c 128,-1,2
 28 -206 28 -206 80 -214 c 1,3,-1
 137 -114 l 1,4,5
 112 -114 112 -114 102 -105 c 128,-1,6
 92 -96 92 -96 92 -82 c 0,7,8
 92 -64 92 -64 112.5 -42.5 c 128,-1,9
 133 -21 133 -21 167 1 c 1,10,-1
 165 25 l 1,11,-1
 101 25 l 1,12,13
 37 -7 37 -7 3 -48 c 128,-1,14
 -31 -89 -31 -89 -31 -125 c 0,0,1
EndSplineSet
EndChar

StartChar: uni032E
Encoding: 814 814 411
Width: 343
GlyphClass: 1
Flags: W
LayerCount: 2
Fore
SplineSet
67 -213 m 0,0,1
 100 -213 100 -213 129.5 -201 c 128,-1,2
 159 -189 159 -189 183.5 -167.5 c 128,-1,3
 208 -146 208 -146 225.5 -116.5 c 128,-1,4
 243 -87 243 -87 251 -51 c 1,5,-1
 156 -51 l 1,6,7
 145 -86 145 -86 125.5 -109 c 128,-1,8
 106 -132 106 -132 86 -132 c 0,9,10
 64 -132 64 -132 54.5 -108 c 128,-1,11
 45 -84 45 -84 53 -51 c 1,12,-1
 -42 -51 l 1,13,14
 -59 -123 -59 -123 -29 -168 c 128,-1,15
 1 -213 1 -213 67 -213 c 0,0,1
EndSplineSet
EndChar

StartChar: uni0331
Encoding: 817 817 412
Width: 385
GlyphClass: 1
Flags: W
LayerCount: 2
Fore
SplineSet
237 -187 m 1,0,-1
 263 -74 l 1,1,-1
 -20 -74 l 1,2,-1
 -46 -187 l 1,3,-1
 237 -187 l 1,0,-1
EndSplineSet
EndChar

StartChar: uni0335
Encoding: 821 821 413
Width: 415
GlyphClass: 1
Flags: W
LayerCount: 2
Fore
SplineSet
356 227 m 1,0,-1
 381 336 l 1,1,-1
 67 336 l 1,2,-1
 42 227 l 1,3,-1
 356 227 l 1,0,-1
EndSplineSet
EndChar

StartChar: tonos
Encoding: 900 900 415
Width: 236
GlyphClass: 1
Flags: W
LayerCount: 2
Fore
SplineSet
198 842 m 1,0,-1
 114 582 l 1,1,-1
 204 568 l 1,2,-1
 322 814 l 1,3,-1
 198 842 l 1,0,-1
EndSplineSet
EndChar

StartChar: dieresistonos
Encoding: 901 901 416
Width: 616
GlyphClass: 1
Flags: W
LayerCount: 2
Fore
SplineSet
136 676 m 0,0,1
 125 631 125 631 147.5 599.5 c 128,-1,2
 170 568 170 568 212 568 c 0,3,4
 250 568 250 568 277 589.5 c 128,-1,5
 304 611 304 611 312 644 c 0,6,7
 323 691 323 691 301.5 721.5 c 128,-1,8
 280 752 280 752 236 752 c 0,9,10
 200 752 200 752 172 731.5 c 128,-1,11
 144 711 144 711 136 676 c 0,0,1
484 676 m 0,12,13
 475 631 475 631 497.5 599.5 c 128,-1,14
 520 568 520 568 562 568 c 0,15,16
 598 568 598 568 626 589.5 c 128,-1,17
 654 611 654 611 662 644 c 0,18,19
 673 691 673 691 650.5 721.5 c 128,-1,20
 628 752 628 752 586 752 c 0,21,22
 550 752 550 752 521.5 731.5 c 128,-1,23
 493 711 493 711 484 676 c 0,12,13
404 844 m 1,24,-1
 320 584 l 1,25,-1
 410 570 l 1,26,-1
 528 816 l 1,27,-1
 404 844 l 1,24,-1
EndSplineSet
EndChar

StartChar: Gamma
Encoding: 915 915 428
Width: 500
GlyphClass: 1
Flags: W
LayerCount: 2
Fore
SplineSet
130 714 m 1,0,-1
 620 714 l 1,1,-1
 575 545 l 1,2,-1
 278 545 l 1,3,-1
 136 10 l 1,4,-1
 -58 10 l 1,5,-1
 130 714 l 1,0,-1
EndSplineSet
EndChar

StartChar: uni0394
Encoding: 916 916 429
Width: 680
GlyphClass: 1
Flags: W
LayerCount: 2
Fore
SplineSet
-56 0 m 1,0,-1
 617 0 l 1,1,-1
 621 24 l 1,2,-1
 557 714 l 1,3,-1
 325 714 l 1,4,-1
 -52 24 l 1,5,-1
 -56 0 l 1,0,-1
186 147 m 1,6,-1
 301 353 l 1,7,-1
 411 573 l 1,8,-1
 414 573 l 1,9,-1
 426 353 l 1,10,-1
 440 147 l 1,11,-1
 186 147 l 1,6,-1
EndSplineSet
EndChar

StartChar: Eta
Encoding: 919 919 432
Width: 724
GlyphClass: 1
Flags: W
LayerCount: 2
Fore
SplineSet
-62 0 m 1,0,-1
 131 0 l 1,1,-1
 190 276 l 1,2,-1
 400 276 l 1,3,-1
 342 0 l 1,4,-1
 535 0 l 1,5,-1
 685 704 l 1,6,-1
 491 704 l 1,7,-1
 436 444 l 1,8,-1
 226 444 l 1,9,-1
 281 704 l 1,10,-1
 88 704 l 1,11,-1
 -62 0 l 1,0,-1
EndSplineSet
EndChar

StartChar: Theta
Encoding: 920 920 433
Width: 738
GlyphClass: 1
Flags: W
LayerCount: 2
Fore
SplineSet
256 278 m 1,0,-1
 461 278 l 1,1,-1
 496 440 l 1,2,-1
 292 440 l 1,3,-1
 256 278 l 1,0,-1
300 -6 m 0,4,5
 386 -6 386 -6 463.5 29.5 c 128,-1,6
 541 65 541 65 599.5 124 c 128,-1,7
 658 183 658 183 692.5 258 c 128,-1,8
 727 333 727 333 727 413 c 0,9,10
 727 470 727 470 709.5 523 c 128,-1,11
 692 576 692 576 657.5 617.5 c 128,-1,12
 623 659 623 659 572.5 683.5 c 128,-1,13
 522 708 522 708 456 708 c 0,14,15
 371 708 371 708 293 672.5 c 128,-1,16
 215 637 215 637 156 578.5 c 128,-1,17
 97 520 97 520 62.5 444.5 c 128,-1,18
 28 369 28 369 28 290 c 0,19,20
 28 232 28 232 46 178.5 c 128,-1,21
 64 125 64 125 98.5 84 c 128,-1,22
 133 43 133 43 184 18.5 c 128,-1,23
 235 -6 235 -6 300 -6 c 0,4,5
338 166 m 0,24,25
 308 166 308 166 286.5 177 c 128,-1,26
 265 188 265 188 252 207.5 c 128,-1,27
 239 227 239 227 232.5 252 c 128,-1,28
 226 277 226 277 226 304 c 0,29,30
 226 343 226 343 238 384 c 128,-1,31
 250 425 250 425 274 459 c 128,-1,32
 298 493 298 493 334 514.5 c 128,-1,33
 370 536 370 536 416 536 c 0,34,35
 447 536 447 536 468 525 c 128,-1,36
 489 514 489 514 503 495.5 c 128,-1,37
 517 477 517 477 523.5 452 c 128,-1,38
 530 427 530 427 530 400 c 0,39,40
 530 361 530 361 517.5 320 c 128,-1,41
 505 279 505 279 481 244.5 c 128,-1,42
 457 210 457 210 421.5 188 c 128,-1,43
 386 166 386 166 338 166 c 0,24,25
EndSplineSet
EndChar

StartChar: Lambda
Encoding: 923 923 436
Width: 704
GlyphClass: 1
Flags: W
LayerCount: 2
Fore
SplineSet
-56 0 m 1,0,-1
 127 0 l 1,1,-1
 317 355 l 1,2,-1
 420 553 l 1,3,-1
 424 553 l 1,4,-1
 438 353 l 1,5,-1
 464 0 l 1,6,-1
 641 0 l 1,7,-1
 571 714 l 1,8,-1
 339 714 l 1,9,-1
 -56 0 l 1,0,-1
EndSplineSet
EndChar

StartChar: Xi
Encoding: 926 926 439
Width: 672
GlyphClass: 1
Flags: W
LayerCount: 2
Fore
SplineSet
0 0 m 1,0,-1
 553 0 l 1,1,-1
 587 147 l 1,2,-1
 34 147 l 1,3,-1
 0 0 l 1,0,-1
139 280 m 1,4,-1
 541 280 l 1,5,-1
 575 426 l 1,6,-1
 173 426 l 1,7,-1
 139 280 l 1,4,-1
129 563 m 1,8,-1
 682 563 l 1,9,-1
 714 710 l 1,10,-1
 161 710 l 1,11,-1
 129 563 l 1,8,-1
EndSplineSet
EndChar

StartChar: Pi
Encoding: 928 928 441
Width: 686
GlyphClass: 1
Flags: W
LayerCount: 2
Fore
SplineSet
8 0 m 1,0,-1
 182 0 l 1,1,-1
 311 563 l 1,2,-1
 514 563 l 1,3,-1
 385 0 l 1,4,-1
 559 0 l 1,5,-1
 720 710 l 1,6,-1
 169 710 l 1,7,-1
 8 0 l 1,0,-1
EndSplineSet
EndChar

StartChar: Sigma
Encoding: 931 931 443
Width: 585
GlyphClass: 1
Flags: W
LayerCount: 2
Fore
SplineSet
-10 0 m 1,0,-1
 478 0 l 1,1,-1
 512 147 l 1,2,-1
 264 147 l 1,3,-1
 472 363 l 1,4,-1
 357 563 l 1,5,-1
 591 563 l 1,6,-1
 623 710 l 1,7,-1
 153 710 l 1,8,-1
 131 603 l 1,9,-1
 286 359 l 1,10,-1
 12 105 l 1,11,-1
 -10 0 l 1,0,-1
EndSplineSet
EndChar

StartChar: Upsilon
Encoding: 933 933 445
Width: 656
GlyphClass: 1
Flags: W
LayerCount: 2
Fore
SplineSet
180 0 m 1,0,-1
 357 0 l 1,1,-1
 407 218 l 2,2,3
 422 287 422 287 458 345 c 128,-1,4
 494 403 494 403 539.5 452.5 c 128,-1,5
 585 502 585 502 634 544 c 128,-1,6
 683 586 683 586 726 623 c 1,7,-1
 611 728 l 1,8,9
 562 689 562 689 524.5 656 c 128,-1,10
 487 623 487 623 458.5 592 c 128,-1,11
 430 561 430 561 409.5 531 c 128,-1,12
 389 501 389 501 375 468 c 2,13,-1
 367 452 l 1,14,15
 367 485 367 485 360.5 516 c 128,-1,16
 354 547 354 547 340 579 c 128,-1,17
 326 611 326 611 303.5 644.5 c 128,-1,18
 281 678 281 678 248 716 c 1,19,-1
 103 635 l 1,20,21
 129 597 129 597 159 556 c 128,-1,22
 189 515 189 515 211 466.5 c 128,-1,23
 233 418 233 418 241.5 360.5 c 128,-1,24
 250 303 250 303 234 234 c 2,25,-1
 180 0 l 1,0,-1
EndSplineSet
EndChar

StartChar: Phi
Encoding: 934 934 446
Width: 785
GlyphClass: 1
Flags: W
LayerCount: 2
Fore
SplineSet
347 210 m 1,0,1
 312 210 312 210 285.5 219.5 c 128,-1,2
 259 229 259 229 242.5 246 c 128,-1,3
 226 263 226 263 220.5 287 c 128,-1,4
 215 311 215 311 222 341 c 0,5,6
 230 377 230 377 249.5 407 c 128,-1,7
 269 437 269 437 295.5 458.5 c 128,-1,8
 322 480 322 480 354.5 492 c 128,-1,9
 387 504 387 504 422 504 c 1,10,-1
 446 647 l 1,11,12
 373 647 373 647 310 627.5 c 128,-1,13
 247 608 247 608 198 572 c 128,-1,14
 149 536 149 536 115 485.5 c 128,-1,15
 81 435 81 435 67 373 c 0,16,17
 52 304 52 304 62.5 248 c 128,-1,18
 73 192 73 192 107 151.5 c 128,-1,19
 141 111 141 111 195.5 89 c 128,-1,20
 250 67 250 67 323 67 c 1,21,-1
 347 210 l 1,0,1
407 -34 m 1,22,-1
 583 744 l 1,23,-1
 420 744 l 1,24,-1
 244 -34 l 1,25,-1
 407 -34 l 1,22,-1
387 67 m 1,26,27
 460 67 460 67 522 86.5 c 128,-1,28
 584 106 584 106 633 142 c 128,-1,29
 682 178 682 178 715 228.5 c 128,-1,30
 748 279 748 279 762 341 c 0,31,32
 777 410 777 410 767 466 c 128,-1,33
 757 522 757 522 724 562.5 c 128,-1,34
 691 603 691 603 637 625 c 128,-1,35
 583 647 583 647 510 647 c 1,36,-1
 486 504 l 1,37,38
 521 504 521 504 546.5 495 c 128,-1,39
 572 486 572 486 588 469 c 128,-1,40
 604 452 604 452 609 427.5 c 128,-1,41
 614 403 614 403 607 373 c 0,42,43
 599 337 599 337 580.5 307.5 c 128,-1,44
 562 278 562 278 536 256 c 128,-1,45
 510 234 510 234 478 222 c 128,-1,46
 446 210 446 210 411 210 c 1,47,-1
 387 67 l 1,26,27
EndSplineSet
EndChar

StartChar: Psi
Encoding: 936 936 448
Width: 837
GlyphClass: 1
Flags: W
LayerCount: 2
Fore
SplineSet
278 0 m 1,0,-1
 440 0 l 1,1,-1
 603 714 l 1,2,-1
 440 714 l 1,3,-1
 278 0 l 1,0,-1
119 456 m 2,4,5
 106 401 106 401 110 350 c 128,-1,6
 114 299 114 299 140.5 260 c 128,-1,7
 167 221 167 221 219 197.5 c 128,-1,8
 271 174 271 174 355 173 c 1,9,-1
 367 309 l 1,10,11
 328 309 328 309 306.5 318.5 c 128,-1,12
 285 328 285 328 276.5 343.5 c 128,-1,13
 268 359 268 359 269 378.5 c 128,-1,14
 270 398 270 398 274 418 c 0,15,16
 279 438 279 438 283.5 457.5 c 128,-1,17
 288 477 288 477 292.5 495 c 128,-1,18
 297 513 297 513 301 529.5 c 128,-1,19
 305 546 305 546 307 559 c 0,20,21
 319 604 319 604 326 644.5 c 128,-1,22
 333 685 333 685 327 706 c 1,23,-1
 167 722 l 1,24,25
 167 697 167 697 164 671.5 c 128,-1,26
 161 646 161 646 156.5 623 c 128,-1,27
 152 600 152 600 147.5 580 c 128,-1,28
 143 560 143 560 139 545 c 2,29,-1
 119 456 l 2,4,5
821 530 m 2,30,31
 826 548 826 548 831 568 c 128,-1,32
 836 588 836 588 842.5 610.5 c 128,-1,33
 849 633 849 633 857.5 657 c 128,-1,34
 866 681 866 681 877 706 c 1,35,-1
 710 722 l 1,36,37
 703 712 703 712 697 696 c 128,-1,38
 691 680 691 680 686 662 c 128,-1,39
 681 644 681 644 677 625.5 c 128,-1,40
 673 607 673 607 670 591 c 0,41,42
 666 572 666 572 662 552.5 c 128,-1,43
 658 533 658 533 654 514.5 c 128,-1,44
 650 496 650 496 647 480 c 128,-1,45
 644 464 644 464 641 450 c 0,46,47
 635 425 635 425 624 400 c 128,-1,48
 613 375 613 375 594.5 354.5 c 128,-1,49
 576 334 576 334 548.5 321.5 c 128,-1,50
 521 309 521 309 482 309 c 1,51,-1
 450 173 l 1,52,53
 534 174 534 174 595 195.5 c 128,-1,54
 656 217 656 217 697.5 253 c 128,-1,55
 739 289 739 289 763.5 337.5 c 128,-1,56
 788 386 788 386 799 440 c 2,57,-1
 821 530 l 2,30,31
EndSplineSet
EndChar

StartChar: uni03A9
Encoding: 937 937 449
Width: 726
GlyphClass: 1
Flags: W
LayerCount: 2
Fore
SplineSet
-36 0 m 1,0,-1
 266 0 l 1,1,-1
 319 254 l 1,2,3
 298 261 298 261 283 275.5 c 128,-1,4
 268 290 268 290 259 310 c 128,-1,5
 250 330 250 330 248 353.5 c 128,-1,6
 246 377 246 377 252 403 c 0,7,8
 259 436 259 436 276.5 464.5 c 128,-1,9
 294 493 294 493 318 514 c 128,-1,10
 342 535 342 535 372 547 c 128,-1,11
 402 559 402 559 434 559 c 0,12,13
 464 559 464 559 487 549.5 c 128,-1,14
 510 540 510 540 524.5 523 c 128,-1,15
 539 506 539 506 545 483 c 128,-1,16
 551 460 551 460 545 432 c 0,17,18
 541 406 541 406 526.5 375.5 c 128,-1,19
 512 345 512 345 491 318.5 c 128,-1,20
 470 292 470 292 445.5 273 c 128,-1,21
 421 254 421 254 397 250 c 1,22,-1
 339 0 l 1,23,-1
 643 0 l 1,24,-1
 676 147 l 1,25,-1
 418 147 l 1,26,-1
 478 97 l 1,27,-1
 502 216 l 1,28,-1
 440 137 l 1,29,30
 489 145 489 145 534.5 170 c 128,-1,31
 580 195 580 195 617 231 c 128,-1,32
 654 267 654 267 680.5 313 c 128,-1,33
 707 359 707 359 718 409 c 0,34,35
 733 472 733 472 721 528.5 c 128,-1,36
 709 585 709 585 674 628 c 128,-1,37
 639 671 639 671 583 696.5 c 128,-1,38
 527 722 527 722 454 722 c 0,39,40
 386 722 386 722 325 700 c 128,-1,41
 264 678 264 678 215 639.5 c 128,-1,42
 166 601 166 601 131.5 549 c 128,-1,43
 97 497 97 497 83 436 c 0,44,45
 71 387 71 387 75.5 340.5 c 128,-1,46
 80 294 80 294 98 254.5 c 128,-1,47
 116 215 116 215 148 185 c 128,-1,48
 180 155 180 155 224 139 c 1,49,-1
 204 216 l 1,50,-1
 180 97 l 1,51,-1
 258 147 l 1,52,-1
 -2 147 l 1,53,-1
 -36 0 l 1,0,-1
EndSplineSet
EndChar

StartChar: Iotadieresis
Encoding: 938 938 450
Width: 375
GlyphClass: 1
Flags: W
LayerCount: 2
Fore
SplineSet
-3 0 m 1,0,-1
 190 0 l 1,1,-1
 340 704 l 1,2,-1
 147 704 l 1,3,-1
 -3 0 l 1,0,-1
281 828 m 0,4,5
 272 789 272 789 284.5 762 c 128,-1,6
 297 735 297 735 323 735 c 256,7,8
 349 735 349 735 373 762 c 128,-1,9
 397 789 397 789 406 828 c 0,10,11
 414 867 414 867 401.5 894 c 128,-1,12
 389 921 389 921 363 921 c 256,13,14
 337 921 337 921 313 894 c 128,-1,15
 289 867 289 867 281 828 c 0,4,5
127 828 m 256,16,17
 119 789 119 789 131 762 c 128,-1,18
 143 735 143 735 170 735 c 0,19,20
 196 735 196 735 220 762 c 128,-1,21
 244 789 244 789 252 828 c 256,22,23
 260 867 260 867 247.5 894 c 128,-1,24
 235 921 235 921 209 921 c 256,25,26
 183 921 183 921 159 894 c 128,-1,27
 135 867 135 867 127 828 c 256,16,17
EndSplineSet
EndChar

StartChar: alphatonos
Encoding: 940 940 452
Width: 659
GlyphClass: 1
Flags: W
LayerCount: 2
Fore
SplineSet
375 255 m 2,0,1
 365 237 365 237 352.5 217.5 c 128,-1,2
 340 198 340 198 323.5 181.5 c 128,-1,3
 307 165 307 165 286.5 154 c 128,-1,4
 266 143 266 143 241 143 c 0,5,6
 221 143 221 143 206 150.5 c 128,-1,7
 191 158 191 158 182.5 171.5 c 128,-1,8
 174 185 174 185 171.5 204 c 128,-1,9
 169 223 169 223 173 245 c 0,10,11
 181 274 181 274 195.5 299 c 128,-1,12
 210 324 210 324 228.5 342 c 128,-1,13
 247 360 247 360 268.5 370.5 c 128,-1,14
 290 381 290 381 311 381 c 0,15,16
 322 381 322 381 332.5 378 c 128,-1,17
 343 375 343 375 352.5 369 c 128,-1,18
 362 363 362 363 369 352.5 c 128,-1,19
 376 342 376 342 380 327 c 128,-1,20
 384 312 384 312 385.5 291.5 c 128,-1,21
 387 271 387 271 385 245 c 1,22,-1
 466 333 l 1,23,24
 468 388 468 388 454 426.5 c 128,-1,25
 440 465 440 465 416.5 489 c 128,-1,26
 393 513 393 513 363 523.5 c 128,-1,27
 333 534 333 534 303 534 c 0,28,29
 259 534 259 534 216.5 514 c 128,-1,30
 174 494 174 494 138 459.5 c 128,-1,31
 102 425 102 425 74.5 377 c 128,-1,32
 47 329 47 329 34 273 c 0,33,34
 21 212 21 212 28 161 c 128,-1,35
 35 110 35 110 58 72 c 128,-1,36
 81 34 81 34 119.5 13 c 128,-1,37
 158 -8 158 -8 209 -8 c 0,38,39
 251 -8 251 -8 290.5 6 c 128,-1,40
 330 20 330 20 365 44.5 c 128,-1,41
 400 69 400 69 430 102.5 c 128,-1,42
 460 136 460 136 482 175 c 2,43,-1
 679 526 l 1,44,-1
 530 526 l 1,45,-1
 375 255 l 2,0,1
606 130 m 1,46,-1
 582 133 l 2,47,48
 574 138 574 138 563 143.5 c 128,-1,49
 552 149 552 149 540.5 159 c 128,-1,50
 529 169 529 169 518 186 c 128,-1,51
 507 203 507 203 498 231 c 1,52,-1
 400 135 l 1,53,54
 397 101 397 101 402.5 77 c 128,-1,55
 408 53 408 53 419.5 36.5 c 128,-1,56
 431 20 431 20 446.5 10 c 128,-1,57
 462 0 462 0 480 -6 c 2,58,-1
 492 -8 l 1,59,-1
 606 130 l 1,46,-1
399 839 m 1,60,-1
 316 580 l 1,61,-1
 405 566 l 1,62,-1
 523 811 l 1,63,-1
 399 839 l 1,60,-1
EndSplineSet
EndChar

StartChar: epsilontonos
Encoding: 941 941 453
Width: 522
GlyphClass: 1
Flags: W
LayerCount: 2
Fore
SplineSet
422 169 m 1,0,1
 391 162 391 162 345.5 150.5 c 128,-1,2
 300 139 300 139 255 139 c 0,3,4
 214 139 214 139 192 145.5 c 128,-1,5
 170 152 170 152 171 161 c 0,6,7
 174 172 174 172 184.5 180.5 c 128,-1,8
 195 189 195 189 210 195.5 c 128,-1,9
 225 202 225 202 243 205.5 c 128,-1,10
 261 209 261 209 279 209 c 2,11,-1
 317 209 l 1,12,-1
 341 315 l 1,13,-1
 303 315 l 2,14,15
 286 316 286 316 271.5 318 c 128,-1,16
 257 320 257 320 246.5 322.5 c 128,-1,17
 236 325 236 325 230 328.5 c 128,-1,18
 224 332 224 332 225 335 c 0,19,20
 227 344 227 344 236.5 352 c 128,-1,21
 246 360 246 360 261 366.5 c 128,-1,22
 276 373 276 373 296.5 377 c 128,-1,23
 317 381 317 381 343 381 c 0,24,25
 360 381 360 381 377 379.5 c 128,-1,26
 394 378 394 378 409 375.5 c 128,-1,27
 424 373 424 373 437.5 369.5 c 128,-1,28
 451 366 451 366 460 361 c 1,29,-1
 530 502 l 1,30,31
 491 522 491 522 449 530 c 128,-1,32
 407 538 407 538 367 534 c 1,33,34
 309 536 309 536 261.5 527 c 128,-1,35
 214 518 214 518 179 499.5 c 128,-1,36
 144 481 144 481 121.5 455 c 128,-1,37
 99 429 99 429 92 396 c 0,38,39
 87 375 87 375 88.5 354.5 c 128,-1,40
 90 334 90 334 97 317 c 128,-1,41
 104 300 104 300 116 288.5 c 128,-1,42
 128 277 128 277 145 273 c 1,43,-1
 137 275 l 1,44,45
 114 269 114 269 94 257.5 c 128,-1,46
 74 246 74 246 58.5 230.5 c 128,-1,47
 43 215 43 215 33.5 198 c 128,-1,48
 24 181 24 181 20 163 c 0,49,50
 11 125 11 125 23.5 92.5 c 128,-1,51
 36 60 36 60 66 36.5 c 128,-1,52
 96 13 96 13 141 -0.5 c 128,-1,53
 186 -14 186 -14 241 -14 c 0,54,55
 264 -14 264 -14 289.5 -12 c 128,-1,56
 315 -10 315 -10 341 -7 c 128,-1,57
 367 -4 367 -4 391 1 c 128,-1,58
 415 6 415 6 436 12 c 1,59,-1
 422 169 l 1,0,1
407 887 m 1,60,-1
 324 628 l 1,61,-1
 413 614 l 1,62,-1
 531 859 l 1,63,-1
 407 887 l 1,60,-1
EndSplineSet
EndChar

StartChar: etatonos
Encoding: 942 942 454
Width: 649
GlyphClass: 1
Flags: W
LayerCount: 2
Fore
SplineSet
169 -8 m 1,0,1
 202 88 202 88 227 164.5 c 128,-1,2
 252 241 252 241 267 315 c 0,3,4
 278 360 278 360 277.5 395.5 c 128,-1,5
 277 431 277 431 266 457.5 c 128,-1,6
 255 484 255 484 233.5 502.5 c 128,-1,7
 212 521 212 521 181 532 c 1,8,-1
 76 398 l 1,9,10
 91 391 91 391 98.5 379 c 128,-1,11
 106 367 106 367 107.5 350.5 c 128,-1,12
 109 334 109 334 105.5 312.5 c 128,-1,13
 102 291 102 291 96 265 c 0,14,15
 84 203 84 203 61 138 c 128,-1,16
 38 73 38 73 16 8 c 1,17,-1
 169 -8 l 1,0,1
440 -213 m 1,18,19
 462 -160 462 -160 484.5 -96.5 c 128,-1,20
 507 -33 507 -33 527 30 c 128,-1,21
 547 93 547 93 563.5 151 c 128,-1,22
 580 209 580 209 590 251 c 0,23,24
 623 399 623 399 597.5 466.5 c 128,-1,25
 572 534 572 534 482 534 c 0,26,27
 455 534 455 534 427 525.5 c 128,-1,28
 399 517 399 517 371 499 c 128,-1,29
 343 481 343 481 316 453.5 c 128,-1,30
 289 426 289 426 263 389 c 1,31,-1
 249 247 l 1,32,33
 259 269 259 269 276.5 290.5 c 128,-1,34
 294 312 294 312 315 329.5 c 128,-1,35
 336 347 336 347 358 358 c 128,-1,36
 380 369 380 369 398 369 c 0,37,38
 433 369 433 369 440.5 341 c 128,-1,39
 448 313 448 313 430 237 c 0,40,41
 422 201 422 201 410 159.5 c 128,-1,42
 398 118 398 118 380 66.5 c 128,-1,43
 362 15 362 15 338 -48 c 128,-1,44
 314 -111 314 -111 283 -189 c 1,45,-1
 440 -213 l 1,18,19
462 839 m 1,46,-1
 379 580 l 1,47,-1
 468 566 l 1,48,-1
 586 811 l 1,49,-1
 462 839 l 1,46,-1
EndSplineSet
EndChar

StartChar: iotatonos
Encoding: 943 943 455
Width: 353
GlyphClass: 1
Flags: W
LayerCount: 2
Fore
SplineSet
157 -8 m 0,0,1
 186 -8 186 -8 215 -4.5 c 128,-1,2
 244 -1 244 -1 265 8 c 1,3,-1
 269 169 l 1,4,5
 261 165 261 165 245 158 c 128,-1,6
 229 151 229 151 215 151 c 0,7,8
 210 151 210 151 206.5 152.5 c 128,-1,9
 203 154 203 154 201.5 159.5 c 128,-1,10
 200 165 200 165 201.5 176.5 c 128,-1,11
 203 188 203 188 207 209 c 0,12,13
 213 235 213 235 223.5 274 c 128,-1,14
 234 313 234 313 246 356 c 128,-1,15
 258 399 258 399 270 442 c 128,-1,16
 282 485 282 485 291 518 c 1,17,-1
 126 534 l 1,18,19
 113 482 113 482 102 437 c 128,-1,20
 91 392 91 392 81.5 351.5 c 128,-1,21
 72 311 72 311 63.5 271.5 c 128,-1,22
 55 232 55 232 46 191 c 0,23,24
 35 143 35 143 37 105.5 c 128,-1,25
 39 68 39 68 53 43 c 128,-1,26
 67 18 67 18 93.5 5 c 128,-1,27
 120 -8 120 -8 157 -8 c 0,0,1
261 859 m 1,28,-1
 178 600 l 1,29,-1
 267 586 l 1,30,-1
 385 831 l 1,31,-1
 261 859 l 1,28,-1
EndSplineSet
EndChar

StartChar: upsilondieresistonos
Encoding: 944 944 456
Width: 608
GlyphClass: 1
Flags: W
LayerCount: 2
Fore
SplineSet
56 209 m 0,0,1
 44 158 44 158 51.5 118 c 128,-1,2
 59 78 59 78 84 50 c 128,-1,3
 109 22 109 22 150 7 c 128,-1,4
 191 -8 191 -8 245 -8 c 0,5,6
 308 -8 308 -8 359.5 10.5 c 128,-1,7
 411 29 411 29 451 65.5 c 128,-1,8
 491 102 491 102 519 154.5 c 128,-1,9
 547 207 547 207 562 275 c 0,10,11
 570 309 570 309 578 344 c 128,-1,12
 586 379 586 379 592 411.5 c 128,-1,13
 598 444 598 444 602 471.5 c 128,-1,14
 606 499 606 499 606 518 c 1,15,-1
 446 534 l 1,16,17
 443 498 443 498 438.5 466 c 128,-1,18
 434 434 434 434 428.5 405.5 c 128,-1,19
 423 377 423 377 417.5 353 c 128,-1,20
 412 329 412 329 406 309 c 0,21,22
 389 222 389 222 352.5 184.5 c 128,-1,23
 316 147 316 147 261 147 c 0,24,25
 245 147 245 147 234.5 149.5 c 128,-1,26
 224 152 224 152 218 158 c 128,-1,27
 212 164 212 164 210.5 175 c 128,-1,28
 209 186 209 186 213 203 c 0,29,30
 216 215 216 215 219.5 227 c 128,-1,31
 223 239 223 239 227 253.5 c 128,-1,32
 231 268 231 268 235.5 286 c 128,-1,33
 240 304 240 304 245 327 c 0,34,35
 256 371 256 371 261 400.5 c 128,-1,36
 266 430 266 430 267.5 451.5 c 128,-1,37
 269 473 269 473 268.5 488 c 128,-1,38
 268 503 268 503 267 518 c 1,39,-1
 112 534 l 1,40,41
 113 516 113 516 113.5 477 c 128,-1,42
 114 438 114 438 98 365 c 0,43,44
 92 338 92 338 85.5 314 c 128,-1,45
 79 290 79 290 73 269.5 c 128,-1,46
 67 249 67 249 62.5 233.5 c 128,-1,47
 58 218 58 218 56 209 c 0,0,1
117 673 m 0,48,49
 107 628 107 628 129 597 c 128,-1,50
 151 566 151 566 193 566 c 0,51,52
 231 566 231 566 258 587 c 128,-1,53
 285 608 285 608 293 642 c 0,54,55
 303 688 303 688 282 718.5 c 128,-1,56
 261 749 261 749 217 749 c 0,57,58
 181 749 181 749 153 728.5 c 128,-1,59
 125 708 125 708 117 673 c 0,48,49
464 673 m 0,60,61
 455 628 455 628 477.5 597 c 128,-1,62
 500 566 500 566 542 566 c 0,63,64
 578 566 578 566 606 587 c 128,-1,65
 634 608 634 608 641 642 c 0,66,67
 652 688 652 688 630 718.5 c 128,-1,68
 608 749 608 749 566 749 c 0,69,70
 530 749 530 749 501.5 728.5 c 128,-1,71
 473 708 473 708 464 673 c 0,60,61
384 841 m 1,72,-1
 301 582 l 1,73,-1
 390 568 l 1,74,-1
 508 813 l 1,75,-1
 384 841 l 1,72,-1
EndSplineSet
EndChar

StartChar: alpha
Encoding: 945 945 457
Width: 659
GlyphClass: 1
Flags: W
LayerCount: 2
Fore
SplineSet
375 255 m 2,0,1
 365 237 365 237 352.5 217.5 c 128,-1,2
 340 198 340 198 323.5 181.5 c 128,-1,3
 307 165 307 165 286.5 154 c 128,-1,4
 266 143 266 143 241 143 c 0,5,6
 221 143 221 143 206 150.5 c 128,-1,7
 191 158 191 158 182.5 171.5 c 128,-1,8
 174 185 174 185 171.5 204 c 128,-1,9
 169 223 169 223 173 245 c 0,10,11
 181 274 181 274 195.5 299 c 128,-1,12
 210 324 210 324 228.5 342 c 128,-1,13
 247 360 247 360 268.5 370.5 c 128,-1,14
 290 381 290 381 311 381 c 0,15,16
 322 381 322 381 332.5 378 c 128,-1,17
 343 375 343 375 352.5 369 c 128,-1,18
 362 363 362 363 369 352.5 c 128,-1,19
 376 342 376 342 380 327 c 128,-1,20
 384 312 384 312 385.5 291.5 c 128,-1,21
 387 271 387 271 385 245 c 1,22,-1
 466 333 l 1,23,24
 468 388 468 388 454 426.5 c 128,-1,25
 440 465 440 465 416.5 489 c 128,-1,26
 393 513 393 513 363 523.5 c 128,-1,27
 333 534 333 534 303 534 c 0,28,29
 259 534 259 534 216.5 514 c 128,-1,30
 174 494 174 494 138 459.5 c 128,-1,31
 102 425 102 425 74.5 377 c 128,-1,32
 47 329 47 329 34 273 c 0,33,34
 21 212 21 212 28 161 c 128,-1,35
 35 110 35 110 58 72 c 128,-1,36
 81 34 81 34 119.5 13 c 128,-1,37
 158 -8 158 -8 209 -8 c 0,38,39
 251 -8 251 -8 290.5 6 c 128,-1,40
 330 20 330 20 365 44.5 c 128,-1,41
 400 69 400 69 430 102.5 c 128,-1,42
 460 136 460 136 482 175 c 2,43,-1
 679 526 l 1,44,-1
 530 526 l 1,45,-1
 375 255 l 2,0,1
606 130 m 1,46,-1
 582 133 l 2,47,48
 574 138 574 138 563 143.5 c 128,-1,49
 552 149 552 149 540.5 159 c 128,-1,50
 529 169 529 169 518 186 c 128,-1,51
 507 203 507 203 498 231 c 1,52,-1
 400 135 l 1,53,54
 397 101 397 101 402.5 77 c 128,-1,55
 408 53 408 53 419.5 36.5 c 128,-1,56
 431 20 431 20 446.5 10 c 128,-1,57
 462 0 462 0 480 -6 c 2,58,-1
 492 -8 l 1,59,-1
 606 130 l 1,46,-1
EndSplineSet
EndChar

StartChar: beta
Encoding: 946 946 458
Width: 697
GlyphClass: 1
Flags: W
LayerCount: 2
Fore
SplineSet
161 30 m 1,0,1
 174 22 174 22 193.5 15 c 128,-1,2
 213 8 213 8 236 3 c 128,-1,3
 259 -2 259 -2 284.5 -5 c 128,-1,4
 310 -8 310 -8 335 -8 c 0,5,6
 391 -8 391 -8 441 9.5 c 128,-1,7
 491 27 491 27 530.5 56.5 c 128,-1,8
 570 86 570 86 596.5 124.5 c 128,-1,9
 623 163 623 163 632 205 c 0,10,11
 640 240 640 240 638 271.5 c 128,-1,12
 636 303 636 303 623 328.5 c 128,-1,13
 610 354 610 354 586 372 c 128,-1,14
 562 390 562 390 526 398 c 1,15,-1
 536 400 l 1,16,17
 560 412 560 412 580 430.5 c 128,-1,18
 600 449 600 449 615 471.5 c 128,-1,19
 630 494 630 494 640 518 c 128,-1,20
 650 542 650 542 654 564 c 0,21,22
 663 606 663 606 652.5 642.5 c 128,-1,23
 642 679 642 679 615.5 705.5 c 128,-1,24
 589 732 589 732 549 747 c 128,-1,25
 509 762 509 762 460 761 c 0,26,27
 401 762 401 762 346.5 740.5 c 128,-1,28
 292 719 292 719 247 679.5 c 128,-1,29
 202 640 202 640 169.5 585 c 128,-1,30
 137 530 137 530 122 464 c 2,31,-1
 -30 -205 l 1,32,-1
 139 -213 l 1,33,34
 156 -108 156 -108 161 -52.5 c 128,-1,35
 166 3 166 3 163 24 c 1,36,-1
 197 151 l 2,37,38
 211 195 211 195 220 228 c 128,-1,39
 229 261 229 261 237 293 c 128,-1,40
 245 325 245 325 253.5 362.5 c 128,-1,41
 262 400 262 400 275 454 c 0,42,43
 283 489 283 489 299 518.5 c 128,-1,44
 315 548 315 548 336 569.5 c 128,-1,45
 357 591 357 591 382 603 c 128,-1,46
 407 615 407 615 432 614 c 0,47,48
 449 615 449 615 462.5 610.5 c 128,-1,49
 476 606 476 606 484.5 597.5 c 128,-1,50
 493 589 493 589 496 577 c 128,-1,51
 499 565 499 565 496 550 c 0,52,53
 491 528 491 528 476.5 509 c 128,-1,54
 462 490 462 490 442 475.5 c 128,-1,55
 422 461 422 461 399 452.5 c 128,-1,56
 376 444 376 444 353 442 c 1,57,-1
 335 327 l 1,58,59
 339 328 339 328 345.5 329 c 128,-1,60
 352 330 352 330 359.5 330.5 c 128,-1,61
 367 331 367 331 375.5 331.5 c 128,-1,62
 384 332 384 332 391 331 c 0,63,64
 418 332 418 332 439.5 326 c 128,-1,65
 461 320 461 320 475 309.5 c 128,-1,66
 489 299 489 299 495.5 284 c 128,-1,67
 502 269 502 269 498 251 c 0,68,69
 493 228 493 228 477 207 c 128,-1,70
 461 186 461 186 438.5 170.5 c 128,-1,71
 416 155 416 155 387.5 146 c 128,-1,72
 359 137 359 137 329 137 c 0,73,74
 314 137 314 137 295 139.5 c 128,-1,75
 276 142 276 142 256 147 c 128,-1,76
 236 152 236 152 217 159.5 c 128,-1,77
 198 167 198 167 183 177 c 1,78,-1
 161 30 l 1,0,1
EndSplineSet
EndChar

StartChar: gamma
Encoding: 947 947 459
Width: 650
GlyphClass: 1
Flags: W
LayerCount: 2
Fore
SplineSet
291 -213 m 1,0,1
 318 -105 318 -105 338 9.5 c 128,-1,2
 358 124 358 124 356 227 c 128,-1,3
 354 330 354 330 323.5 414 c 128,-1,4
 293 498 293 498 219 546 c 1,5,-1
 102 414 l 1,6,7
 136 396 136 396 154.5 358 c 128,-1,8
 173 320 173 320 180.5 269.5 c 128,-1,9
 188 219 188 219 186 159.5 c 128,-1,10
 184 100 184 100 176.5 38 c 128,-1,11
 169 -24 169 -24 157.5 -84.5 c 128,-1,12
 146 -145 146 -145 135 -197 c 1,13,-1
 291 -213 l 1,0,1
325 -10 m 1,14,15
 403 67 403 67 456.5 131.5 c 128,-1,16
 510 196 510 196 550.5 257 c 128,-1,17
 591 318 591 318 623 381 c 128,-1,18
 655 444 655 444 689 518 c 1,19,-1
 516 534 l 1,20,21
 499 482 499 482 478 431.5 c 128,-1,22
 457 381 457 381 432.5 336.5 c 128,-1,23
 408 292 408 292 380.5 254.5 c 128,-1,24
 353 217 353 217 323 189 c 1,25,-1
 325 -10 l 1,14,15
EndSplineSet
EndChar

StartChar: delta
Encoding: 948 948 460
Width: 604
GlyphClass: 1
Flags: W
LayerCount: 2
Fore
SplineSet
251 -8 m 0,0,1
 304 -8 304 -8 353.5 9 c 128,-1,2
 403 26 403 26 444 57.5 c 128,-1,3
 485 89 485 89 515 135 c 128,-1,4
 545 181 545 181 558 239 c 0,5,6
 571 298 571 298 564 341.5 c 128,-1,7
 557 385 557 385 539 416.5 c 128,-1,8
 521 448 521 448 495.5 468 c 128,-1,9
 470 488 470 488 446 500 c 1,10,11
 430 514 430 514 410.5 526.5 c 128,-1,12
 391 539 391 539 375 550 c 128,-1,13
 359 561 359 561 349 571 c 128,-1,14
 339 581 339 581 341 590 c 0,15,16
 344 608 344 608 362 620 c 128,-1,17
 380 632 380 632 408 632 c 0,18,19
 430 632 430 632 452 626.5 c 128,-1,20
 474 621 474 621 496.5 610.5 c 128,-1,21
 519 600 519 600 541 585.5 c 128,-1,22
 563 571 563 571 584 552 c 1,23,-1
 667 661 l 1,24,25
 649 678 649 678 624 696 c 128,-1,26
 599 714 599 714 567.5 728 c 128,-1,27
 536 742 536 742 496.5 751 c 128,-1,28
 457 760 457 760 410 759 c 0,29,30
 320 761 320 761 262 728 c 128,-1,31
 204 695 204 695 189 634 c 0,32,33
 180 594 180 594 190 564 c 128,-1,34
 200 534 200 534 222 510.5 c 128,-1,35
 244 487 244 487 273.5 468.5 c 128,-1,36
 303 450 303 450 333 432 c 1,37,38
 356 413 356 413 374.5 396 c 128,-1,39
 393 379 393 379 405.5 361 c 128,-1,40
 418 343 418 343 423.5 323.5 c 128,-1,41
 429 304 429 304 424 279 c 0,42,43
 416 246 416 246 398.5 220.5 c 128,-1,44
 381 195 381 195 359 178 c 128,-1,45
 337 161 337 161 312 152 c 128,-1,46
 287 143 287 143 263 143 c 0,47,48
 241 143 241 143 222 150 c 128,-1,49
 203 157 203 157 190.5 170 c 128,-1,50
 178 183 178 183 173 201 c 128,-1,51
 168 219 168 219 173 241 c 0,52,53
 179 270 179 270 195.5 296.5 c 128,-1,54
 212 323 212 323 235 342.5 c 128,-1,55
 258 362 258 362 286.5 373.5 c 128,-1,56
 315 385 315 385 345 385 c 0,57,58
 363 385 363 385 386 382 c 128,-1,59
 409 379 409 379 420 365 c 1,60,-1
 367 482 l 2,61,62
 362 485 362 485 341 490.5 c 128,-1,63
 320 496 320 496 293 496 c 0,64,65
 244 496 244 496 201 477 c 128,-1,66
 158 458 158 458 124.5 427 c 128,-1,67
 91 396 91 396 67.5 356 c 128,-1,68
 44 316 44 316 34 273 c 0,69,70
 22 219 22 219 31 168 c 128,-1,71
 40 117 40 117 68.5 78 c 128,-1,72
 97 39 97 39 143 15.5 c 128,-1,73
 189 -8 189 -8 251 -8 c 0,0,1
EndSplineSet
EndChar

StartChar: epsilon
Encoding: 949 949 461
Width: 522
GlyphClass: 1
Flags: W
LayerCount: 2
Fore
SplineSet
422 169 m 1,0,1
 391 162 391 162 345.5 150.5 c 128,-1,2
 300 139 300 139 255 139 c 0,3,4
 214 139 214 139 192 145.5 c 128,-1,5
 170 152 170 152 171 161 c 0,6,7
 174 172 174 172 184.5 180.5 c 128,-1,8
 195 189 195 189 210 195.5 c 128,-1,9
 225 202 225 202 243 205.5 c 128,-1,10
 261 209 261 209 279 209 c 2,11,-1
 317 209 l 1,12,-1
 341 315 l 1,13,-1
 303 315 l 2,14,15
 286 316 286 316 271.5 318 c 128,-1,16
 257 320 257 320 246.5 322.5 c 128,-1,17
 236 325 236 325 230 328.5 c 128,-1,18
 224 332 224 332 225 335 c 0,19,20
 227 344 227 344 236.5 352 c 128,-1,21
 246 360 246 360 261 366.5 c 128,-1,22
 276 373 276 373 296.5 377 c 128,-1,23
 317 381 317 381 343 381 c 0,24,25
 360 381 360 381 377 379.5 c 128,-1,26
 394 378 394 378 409 375.5 c 128,-1,27
 424 373 424 373 437.5 369.5 c 128,-1,28
 451 366 451 366 460 361 c 1,29,-1
 530 502 l 1,30,31
 491 522 491 522 449 530 c 128,-1,32
 407 538 407 538 367 534 c 1,33,34
 309 536 309 536 261.5 527 c 128,-1,35
 214 518 214 518 179 499.5 c 128,-1,36
 144 481 144 481 121.5 455 c 128,-1,37
 99 429 99 429 92 396 c 0,38,39
 87 375 87 375 88.5 354.5 c 128,-1,40
 90 334 90 334 97 317 c 128,-1,41
 104 300 104 300 116 288.5 c 128,-1,42
 128 277 128 277 145 273 c 1,43,-1
 137 275 l 1,44,45
 114 269 114 269 94 257.5 c 128,-1,46
 74 246 74 246 58.5 230.5 c 128,-1,47
 43 215 43 215 33.5 198 c 128,-1,48
 24 181 24 181 20 163 c 0,49,50
 11 125 11 125 23.5 92.5 c 128,-1,51
 36 60 36 60 66 36.5 c 128,-1,52
 96 13 96 13 141 -0.5 c 128,-1,53
 186 -14 186 -14 241 -14 c 0,54,55
 264 -14 264 -14 289.5 -12 c 128,-1,56
 315 -10 315 -10 341 -7 c 128,-1,57
 367 -4 367 -4 391 1 c 128,-1,58
 415 6 415 6 436 12 c 1,59,-1
 422 169 l 1,0,1
EndSplineSet
EndChar

StartChar: zeta
Encoding: 950 950 462
Width: 556
GlyphClass: 1
Flags: W
LayerCount: 2
Fore
SplineSet
235 -217 m 0,0,1
 276 -217 276 -217 315.5 -202.5 c 128,-1,2
 355 -188 355 -188 387.5 -162.5 c 128,-1,3
 420 -137 420 -137 443.5 -101.5 c 128,-1,4
 467 -66 467 -66 476 -24 c 0,5,6
 485 13 485 13 481 44 c 128,-1,7
 477 75 477 75 462 97.5 c 128,-1,8
 447 120 447 120 422.5 132.5 c 128,-1,9
 398 145 398 145 367 145 c 0,10,11
 360 145 360 145 350.5 144 c 128,-1,12
 341 143 341 143 329.5 142 c 128,-1,13
 318 141 318 141 304.5 140 c 128,-1,14
 291 139 291 139 275 139 c 0,15,16
 262 139 262 139 244.5 139.5 c 128,-1,17
 227 140 227 140 212 145.5 c 128,-1,18
 197 151 197 151 188.5 163.5 c 128,-1,19
 180 176 180 176 185 199 c 0,20,21
 192 230 192 230 215.5 268 c 128,-1,22
 239 306 239 306 273.5 345.5 c 128,-1,23
 308 385 308 385 349 425 c 128,-1,24
 390 465 390 465 432.5 499.5 c 128,-1,25
 475 534 475 534 515.5 562 c 128,-1,26
 556 590 556 590 588 606 c 1,27,-1
 606 717 l 1,28,-1
 428 717 l 2,29,30
 421 717 421 717 410 716 c 128,-1,31
 399 715 399 715 389.5 716.5 c 128,-1,32
 380 718 380 718 374.5 722.5 c 128,-1,33
 369 727 369 727 371 737 c 0,34,35
 374 752 374 752 382 768 c 128,-1,36
 390 784 390 784 398 795 c 1,37,-1
 275 857 l 1,38,39
 251 825 251 825 239 803.5 c 128,-1,40
 227 782 227 782 221 761 c 0,41,42
 213 724 213 724 221.5 694.5 c 128,-1,43
 230 665 230 665 252.5 645 c 128,-1,44
 275 625 275 625 309.5 614.5 c 128,-1,45
 344 604 344 604 387 604 c 2,46,-1
 442 604 l 1,47,-1
 404 661 l 1,48,49
 339 615 339 615 278 561 c 128,-1,50
 217 507 217 507 167 449 c 128,-1,51
 117 391 117 391 82 331.5 c 128,-1,52
 47 272 47 272 34 215 c 0,53,54
 20 154 20 154 31.5 111.5 c 128,-1,55
 43 69 43 69 70 42.5 c 128,-1,56
 97 16 97 16 134.5 4 c 128,-1,57
 172 -8 172 -8 211 -8 c 0,58,59
 223 -8 223 -8 239.5 -7.5 c 128,-1,60
 256 -7 256 -7 272.5 -6 c 128,-1,61
 289 -5 289 -5 302.5 -4.5 c 128,-1,62
 316 -4 316 -4 323 -4 c 0,63,64
 334 -4 334 -4 338 -6.5 c 128,-1,65
 342 -9 342 -9 339 -14 c 0,66,67
 337 -28 337 -28 327 -39.5 c 128,-1,68
 317 -51 317 -51 300.5 -59.5 c 128,-1,69
 284 -68 284 -68 263 -73 c 128,-1,70
 242 -78 242 -78 217 -78 c 0,71,72
 199 -78 199 -78 183.5 -76 c 128,-1,73
 168 -74 168 -74 157 -74 c 1,74,-1
 137 -205 l 1,75,76
 170 -211 170 -211 193.5 -214 c 128,-1,77
 217 -217 217 -217 235 -217 c 0,0,1
EndSplineSet
EndChar

StartChar: eta
Encoding: 951 951 463
Width: 649
GlyphClass: 1
Flags: W
LayerCount: 2
Fore
SplineSet
169 -8 m 1,0,1
 202 88 202 88 227 164.5 c 128,-1,2
 252 241 252 241 267 315 c 0,3,4
 278 360 278 360 277.5 395.5 c 128,-1,5
 277 431 277 431 266 457.5 c 128,-1,6
 255 484 255 484 233.5 502.5 c 128,-1,7
 212 521 212 521 181 532 c 1,8,-1
 76 398 l 1,9,10
 91 391 91 391 98.5 379 c 128,-1,11
 106 367 106 367 107.5 350.5 c 128,-1,12
 109 334 109 334 105.5 312.5 c 128,-1,13
 102 291 102 291 96 265 c 0,14,15
 84 203 84 203 61 138 c 128,-1,16
 38 73 38 73 16 8 c 1,17,-1
 169 -8 l 1,0,1
440 -213 m 1,18,19
 462 -160 462 -160 484.5 -96.5 c 128,-1,20
 507 -33 507 -33 527 30 c 128,-1,21
 547 93 547 93 563.5 151 c 128,-1,22
 580 209 580 209 590 251 c 0,23,24
 623 399 623 399 597.5 466.5 c 128,-1,25
 572 534 572 534 482 534 c 0,26,27
 455 534 455 534 427 525.5 c 128,-1,28
 399 517 399 517 371 499 c 128,-1,29
 343 481 343 481 316 453.5 c 128,-1,30
 289 426 289 426 263 389 c 1,31,-1
 249 247 l 1,32,33
 259 269 259 269 276.5 290.5 c 128,-1,34
 294 312 294 312 315 329.5 c 128,-1,35
 336 347 336 347 358 358 c 128,-1,36
 380 369 380 369 398 369 c 0,37,38
 433 369 433 369 440.5 341 c 128,-1,39
 448 313 448 313 430 237 c 0,40,41
 422 201 422 201 410 159.5 c 128,-1,42
 398 118 398 118 380 66.5 c 128,-1,43
 362 15 362 15 338 -48 c 128,-1,44
 314 -111 314 -111 283 -189 c 1,45,-1
 440 -213 l 1,18,19
EndSplineSet
EndChar

StartChar: theta
Encoding: 952 952 464
Width: 683
GlyphClass: 1
Flags: W
LayerCount: 2
Fore
SplineSet
291 -8 m 0,0,1
 356 -8 356 -8 413 18.5 c 128,-1,2
 470 45 470 45 516.5 94 c 128,-1,3
 563 143 563 143 596.5 211 c 128,-1,4
 630 279 630 279 648 361 c 0,5,6
 669 452 669 452 665.5 526 c 128,-1,7
 662 600 662 600 636 652.5 c 128,-1,8
 610 705 610 705 563 733.5 c 128,-1,9
 516 762 516 762 450 761 c 0,10,11
 389 762 389 762 332 737.5 c 128,-1,12
 275 713 275 713 227.5 666 c 128,-1,13
 180 619 180 619 144 550 c 128,-1,14
 108 481 108 481 88 393 c 0,15,16
 67 302 67 302 71 228 c 128,-1,17
 75 154 75 154 101.5 101.5 c 128,-1,18
 128 49 128 49 176 20.5 c 128,-1,19
 224 -8 224 -8 291 -8 c 0,0,1
293 143 m 0,20,21
 265 143 265 143 246.5 160.5 c 128,-1,22
 228 178 228 178 219.5 208 c 128,-1,23
 211 238 211 238 213.5 278 c 128,-1,24
 216 318 216 318 229 363 c 0,25,26
 244 417 244 417 268 461.5 c 128,-1,27
 292 506 292 506 320.5 538 c 128,-1,28
 349 570 349 570 380.5 588 c 128,-1,29
 412 606 412 606 442 606 c 0,30,31
 469 606 469 606 488 591 c 128,-1,32
 507 576 507 576 516 548 c 128,-1,33
 525 520 525 520 523.5 481 c 128,-1,34
 522 442 522 442 508 394 c 0,35,36
 495 344 495 344 472.5 298.5 c 128,-1,37
 450 253 450 253 421 218.5 c 128,-1,38
 392 184 392 184 359 163.5 c 128,-1,39
 326 143 326 143 293 143 c 0,20,21
546 319 m 1,40,-1
 574 434 l 1,41,-1
 191 434 l 1,42,-1
 163 319 l 1,43,-1
 546 319 l 1,40,-1
EndSplineSet
EndChar

StartChar: iota
Encoding: 953 953 465
Width: 353
GlyphClass: 1
Flags: W
LayerCount: 2
Fore
SplineSet
157 -8 m 0,0,1
 186 -8 186 -8 215 -4.5 c 128,-1,2
 244 -1 244 -1 265 8 c 1,3,-1
 269 169 l 1,4,5
 261 165 261 165 245 158 c 128,-1,6
 229 151 229 151 215 151 c 0,7,8
 210 151 210 151 206.5 152.5 c 128,-1,9
 203 154 203 154 201.5 159.5 c 128,-1,10
 200 165 200 165 201.5 176.5 c 128,-1,11
 203 188 203 188 207 209 c 0,12,13
 213 235 213 235 223.5 274 c 128,-1,14
 234 313 234 313 246 356 c 128,-1,15
 258 399 258 399 270 442 c 128,-1,16
 282 485 282 485 291 518 c 1,17,-1
 126 534 l 1,18,19
 113 482 113 482 102 437 c 128,-1,20
 91 392 91 392 81.5 351.5 c 128,-1,21
 72 311 72 311 63.5 271.5 c 128,-1,22
 55 232 55 232 46 191 c 0,23,24
 35 143 35 143 37 105.5 c 128,-1,25
 39 68 39 68 53 43 c 128,-1,26
 67 18 67 18 93.5 5 c 128,-1,27
 120 -8 120 -8 157 -8 c 0,0,1
EndSplineSet
EndChar

